<?xml version="1.0" encoding="UTF-8"?>
<svg width="82px" height="73px" viewBox="0 0 82 73" version="1.1" xmlns="http://www.w3.org/2000/svg" xmlns:xlink="http://www.w3.org/1999/xlink">
    <!-- Generator: Sketch 61.2 (89653) - https://sketch.com -->
    <title>22</title>
    <desc>Created with Sketch.</desc>
    <g id="Page-1" stroke="none" stroke-width="1" fill="none" fill-rule="evenodd">
        <g id="22" fill="#FFFFFF">
            <path d="M35.8985216,45.5818876 C36.463492,45.5818876 36.9601193,45.6680414 37.4120128,45.5632485 C38.2486991,45.3694024 39.374498,43.6645503 39.3102968,42.7988698 C39.3007702,42.6663254 39.257279,42.4733077 39.1657406,42.4202899 C38.7461548,42.1792249 38.3033737,41.9779231 37.8692909,41.7621243 C37.6116577,42.2057337 36.8139063,41.7082781 36.7049713,42.443071 C36.6602376,42.7458521 35.9685216,42.5524201 36.1528412,43.0896391 C35.7059181,43.8840769 36.033137,44.7298757 35.8985216,45.5818876 M33.6904151,42.1398757 C33.8262731,41.9070947 34.0027228,41.6921243 34.0868057,41.4456746 C34.3916577,40.5526568 35.1831962,40.209284 35.9432554,39.9947278 C36.4713619,39.8456154 37.0334329,39.6675089 37.6406518,39.7101716 C39.0199418,39.8075089 39.9887583,40.4549053 40.6788175,41.6241953 C41.0006518,42.169284 41.3030187,42.7205858 41.4388767,43.334432 C41.5304151,43.7498757 41.6426636,44.2311775 41.5204743,44.6101716 C41.0462139,46.0818284 40.237279,47.3169763 38.7063915,47.9018284 C38.2847347,48.0625385 37.8460956,48.1805858 37.4128412,48.3110592 C37.3440838,48.3321834 37.2517169,48.3400533 37.1908293,48.3102308 C36.0807702,47.7709408 35.0079891,47.1566805 34.363492,46.0631893 C34.0868057,45.5938994 33.8304151,45.0508817 33.8983441,44.460645 C33.980356,43.7449053 33.6746755,42.9918876 34.1021311,42.3101124 C33.9741429,42.2570947 33.8457406,42.2040769 33.6904151,42.1398757" id="Fill-419"></path>
            <path d="M0.685373706,55.4017692 C0.326675481,55.3201716 0.117503883,55.1698166 0.246320451,54.7456746 C0.30182341,54.7199941 0.39998909,54.6938994 0.476616309,54.6379822 C1.2080956,54.1094615 2.10774057,54.0303491 2.93117252,53.7681598 C3.29028495,53.6538402 3.86022578,53.7561479 4.16093584,53.9864438 C5.09578791,54.7030118 6.13294767,55.325142 6.57531453,56.5549053 C6.94063998,57.5701124 6.79318436,58.8731893 6.14785891,59.7036627 C5.77342104,60.1857929 5.24904234,60.488574 4.86342104,60.978574 C4.23135004,60.8762663 3.56531453,61.133071 2.93655714,60.7528343 C2.6428885,60.575142 1.36424945,59.8991657 1.11407193,59.7123609 C0.531290866,59.2770355 0.303894416,58.6399941 0.0860245934,57.9942544 C0.0408766644,57.8608817 -0.0307801403,57.6910592 0.0143677887,57.5808817 C0.303480215,56.873426 0.0976222266,56.0234852 0.685373706,55.4017692" id="Fill-421"></path>
            <path d="M51.709782,32.1308698 C52.607356,32.9870237 54.1067642,33.4645976 55.339427,33.4177929 C55.9300778,33.3958402 56.3761725,33.1883254 56.7675926,32.7840651 C56.9941607,32.5500414 57.2265276,32.3222308 57.462208,32.0861361 C57.328421,31.9018166 57.2083027,31.7999231 57.1706104,31.6731775 C56.9958175,31.0916391 56.677711,30.7267278 56.0203737,30.6770237 C55.7221489,30.6546568 55.4396636,30.4599822 55.141853,30.3705148 C54.9471784,30.3121124 54.6046341,30.2139467 54.5565867,30.2856036 C54.2844565,30.6940059 54.1365867,30.0536509 53.7799595,30.3643018 C53.5745157,30.5573195 53.2311429,30.8799822 52.8856991,31.2043018 C52.6065276,30.9847751 52.3865867,30.8116391 52.1919122,30.6587988 C51.4844565,31.0121124 51.8423264,31.6089763 51.709782,32.1308698 M58.7205512,32.8689763 C58.9367642,32.9439467 59.0676518,32.9895089 59.2068234,33.0375562 C59.0945749,33.391284 58.989782,33.722645 58.8841607,34.0556627 C58.7068826,34.0759586 58.5291903,34.0970828 58.2802554,34.1256627 C58.3626814,34.2362544 58.4144565,34.3066686 58.4948116,34.4147751 C58.1120897,34.8857219 57.672208,35.2473195 56.9933323,35.217497 C56.823924,35.2100414 56.6466459,35.2779704 56.480137,35.332645 C56.0178885,35.4846568 55.5676518,35.5165503 55.1078885,35.3094497 C54.950492,35.2386213 54.6522672,35.1582663 54.6017347,35.2232959 C54.178421,35.7704556 53.8300778,35.0667278 53.4150483,35.1615799 C53.2406696,35.2013432 53.0754033,34.7457219 52.7026222,34.7328817 C52.5033915,34.7262544 52.3269418,34.4325858 52.1152849,34.3132959 C51.8675926,34.1737101 51.7702554,33.800929 51.4032731,33.8547751 C51.2309654,33.2976746 50.6738648,33.0404556 50.394279,32.5782071 C49.7717347,31.5493314 49.7709063,30.0706331 50.2828589,29.0753077 C50.7355808,28.1934734 51.5892494,27.935426 52.3737465,28.5285621 C52.7539832,28.816432 53.0426814,29.0454852 53.4759358,28.6979704 C53.6250483,28.9344793 53.7638057,28.839213 53.8723264,28.6698047 C54.0450483,28.4001598 54.308066,28.3844201 54.5648707,28.4378521 C55.4578885,28.6254852 56.3645749,28.8785621 57.0832139,29.4170237 C57.7152849,29.8908698 58.1680068,30.6037101 58.6998412,31.210929 C58.6567642,31.7498047 59.3414388,32.258858 58.7205512,32.8689763" id="Fill-423"></path>
            <path d="M66.9494861,58.5693314 C67.2891311,58.3920533 67.6701962,58.0987988 68.227711,58.3257811 C68.1684802,58.4061361 68.1183619,58.4753077 68.0160542,58.6157219 C68.235995,58.6728817 68.5934506,58.6844793 68.6199595,58.784716 C68.8046932,59.4776746 69.5867051,59.6740059 69.8207287,60.316432 C70.2158767,61.4028817 70.5625631,62.4868462 69.9822672,63.6122308 C69.9176518,63.7373195 69.8517938,63.7658994 69.9441607,63.9427633 C70.2005512,64.4311065 69.9619713,64.7823491 69.5142199,65.0358402 C69.2027406,65.2118757 69.3750483,65.387497 69.5564684,65.5635325 C69.1671193,66.0634734 68.7765276,66.565071 68.3925631,67.0579704 L67.1512021,67.0579704 C66.9217347,66.8111065 66.6396636,66.5132959 66.3633915,66.2101006 C66.1144565,65.9379704 65.7888944,65.7677337 65.5643974,65.4405148 C65.0557583,64.6986805 64.9592494,63.8980296 65.1294861,63.073355 C65.2624447,62.4321716 65.5772376,61.8303373 65.7350483,61.1920533 C65.8381844,60.7749527 65.9400778,60.4402781 66.35635,60.2124675 C66.5236873,60.120929 66.6388352,59.7858402 66.6338648,59.5646568 C66.6268234,59.2411657 66.8521489,59.1198047 66.9929773,58.9147751 C67.0393678,58.8480888 66.969782,58.7022899 66.9494861,58.5693314" id="Fill-425"></path>
            <path d="M78.3925808,23.1142899 C78.3395631,23.0612722 78.2625216,23.0177811 78.2372554,22.9535799 C78.0525216,22.4847041 77.557137,22.5629882 77.2125216,22.437071 C77.0282021,22.3695562 76.7022258,22.6756509 76.4458352,22.8226923 C76.3315157,22.8881361 76.1037051,23.262574 75.9516932,23.5338757 C75.8340601,23.7447041 75.7052435,24.0889053 75.5466045,24.1092012 C75.1899773,24.1560059 75.2628767,24.3544083 75.2301548,24.5673077 C75.2082021,24.7139349 75.1104506,24.8489645 75.0541193,24.9719822 C75.8452435,25.7763609 76.5895631,25.4392012 77.404711,25.0606213 C78.2940009,24.6476627 78.4489122,23.9576036 78.3925808,23.1142899 M76.307492,27.0761243 C76.1368412,27.3254734 75.9864861,27.5433432 75.8315749,27.7699112 C75.7300956,27.6754734 75.6402139,27.5300888 75.5739418,27.5400296 C74.7691489,27.6605621 74.5032317,26.8864201 73.9618707,26.5770118 C73.900569,26.5422189 73.8587347,26.3218639 73.8960128,26.2899704 C74.4589122,25.809497 73.8587347,25.4545266 73.7841784,25.0390828 C73.694711,25.1190237 73.6155986,25.1906805 73.5356577,25.2615089 C73.5087347,25.2345858 73.4582021,25.2068343 73.4594447,25.181568 C73.4855394,24.6890828 73.2175512,24.1526923 73.7129358,23.7264793 C73.8255986,23.629142 73.8044743,23.3918047 73.8877287,23.2431065 C74.1018707,22.8620414 74.1590305,22.358787 74.551279,22.1197929 C74.9534684,21.8737574 74.7960719,21.3729882 75.1970187,21.0842899 C75.8775512,20.5938757 76.9412199,20.345355 77.7385571,20.6431657 C78.8962494,21.0760059 79.6335276,21.9570118 80.0651252,23.0223373 C80.4122258,23.8797337 80.5762494,24.8514497 80.4151252,25.7925148 C80.3206873,26.340503 79.8389713,26.7170118 79.4115157,27.0463018 C79.2831134,27.1448817 78.9621074,26.993284 78.6613974,26.9452367 C78.6808648,27.0231065 78.6841784,27.1916864 78.7624625,27.3122189 C78.8817524,27.4969527 78.9297997,27.6700888 78.6990897,27.7442308 C78.4646518,27.8200296 78.378498,27.6576627 78.392995,27.4265385 C78.3954802,27.3888462 78.2898589,27.3441124 78.17264,27.256716 C77.9957761,27.4041716 77.8048293,27.5636391 77.5749477,27.7554142 C77.5389122,27.6307396 77.5037051,27.5085503 77.4370187,27.277426 C77.1400364,27.5528698 76.8728767,27.8001479 76.4814565,28.162574 C76.4073145,27.7011538 76.3600956,27.4045858 76.307492,27.0761243" id="Fill-427"></path>
            <path d="M19.4041193,38.7275207 C19.590924,38.8853314 19.6737642,38.9553314 19.7752435,39.0406568 C19.8464861,38.896929 19.8999181,38.6446805 19.9947702,38.6281124 C20.2358352,38.5858639 20.5580838,38.5605976 20.7357761,38.6865148 C21.268853,39.0655089 21.8292672,39.4561006 22.2248293,39.9630828 C22.5992672,40.4439704 22.8482021,41.0574024 23.016782,41.6513669 C23.1141193,41.9951538 23.0590305,42.3890592 22.8581429,42.804503 C22.4455986,43.654858 22.0322258,44.4178166 21.1715157,44.9181716 C20.7908648,45.139355 20.362995,45.1492959 20.00264,45.3725503 C19.8601548,45.4611893 19.6870187,45.4997101 19.520924,45.563497 C19.459208,45.4541479 19.3796814,45.3129053 19.3001548,45.1720769 C19.1725808,45.3543254 19.0868412,45.332787 18.8917524,45.1981716 C18.5413382,44.9558639 17.8599773,44.3362189 17.5646518,44.0947396 C16.6140601,43.3185266 17.1616341,42.3530237 17.2030542,41.4678757 C17.212995,41.2458639 17.5675512,41.0395917 17.777137,40.8117811 C18.5537642,41.2292959 18.9551252,41.8961598 19.2268412,42.6330237 C19.9885571,42.5381716 20.1119891,41.8274024 20.5303323,41.431426 C20.6226991,41.3440296 20.5601548,41.0921953 20.5775512,40.7322544 C20.2122258,41.0971657 19.9699181,41.3394734 19.7665453,41.542432 C19.1937051,41.5018402 19.2628767,40.8113669 18.7803323,40.7695325 C18.7724625,40.3221953 18.6958352,39.8603609 18.7828175,39.4324911 C18.8325216,39.189355 19.1510423,39.0013077 19.4041193,38.7275207" id="Fill-429"></path>
            <path d="M62.5639654,9.36392899 C62.8874565,9.04043787 63.127279,8.80061538 63.4068648,8.52102959 L64.8068648,8.52102959 C64.9526636,7.91008284 64.5011844,8.15736095 64.2100009,8.07659172 C64.241066,7.99789349 64.2497642,7.90386982 64.3011252,7.8595503 C64.6577524,7.55304142 64.1296459,7.43375148 64.1801784,7.12227219 C64.4191725,6.55440237 65.085208,6.45085207 65.5855631,6.14144379 C65.7272199,6.05363314 66.003492,6.10209467 66.1840838,6.17333728 C67.100711,6.53534911 67.4329003,7.35795266 67.8019536,8.18718343 C68.0397051,8.72026036 67.8185216,9.34984615 68.2343796,9.81582249 C68.0695276,10.4255266 68.0057406,11.0899053 67.7116577,11.6291953 C67.3997642,12.2020355 66.7324861,12.513929 66.1053855,12.5764734 C65.7578707,12.6112663 65.4546755,13.0192544 65.1133737,12.7545799 C64.8238471,12.5300828 64.4162731,12.6564142 64.1528412,12.3014438 C63.965208,12.0483669 63.5485216,12.0313846 63.4354447,11.5890178 C63.3795276,11.3707337 62.962427,11.3359408 62.7739654,10.9892544 C62.4699418,10.4300828 62.6952672,9.89617751 62.5639654,9.36392899" id="Fill-431"></path>
            <path d="M58.5942613,44.749426 C58.7346755,45.309426 58.8581074,45.7803728 58.9678707,46.2542189 C58.9927228,46.3606686 59.0196459,46.5296627 58.9641429,46.5814379 C58.4666873,47.0420296 58.9289358,47.4206095 59.0498826,47.827355 C59.9192909,47.8414379 59.8952672,47.7867633 60.3413619,47.1517929 C60.8719536,46.3958757 60.7808293,45.5736864 60.7659181,44.7506686 C60.7634329,44.601142 60.6205335,44.4209645 60.4929595,44.3132722 C60.2382258,44.0978876 59.81864,44.4304911 59.5866873,44.0717929 L59.3501784,44.4333905 C58.9111252,44.1401361 58.8001193,44.6106686 58.5942613,44.749426 M57.5616577,45.4742781 C57.4262139,45.2112604 57.2824861,44.932503 57.1652672,44.7046923 C57.2928412,44.0295444 58.0611844,44.2163491 58.3113619,43.6919704 C58.556569,43.1771183 59.3058589,43.396645 59.7072199,42.8772367 C59.5481666,42.7703728 59.3940838,42.6672367 59.2371015,42.5616154 C59.2594684,42.5330355 59.2909477,42.4530947 59.3344388,42.4452249 C60.0953264,42.3064675 60.650356,42.713213 61.1681074,43.1754615 C61.5992909,43.5598402 61.8461548,44.0854615 62.1700601,44.5506095 C62.3518944,44.8119704 62.0350305,45.0526213 62.3100601,45.2191302 C62.5560956,45.3686568 62.6318944,45.6117929 62.5859181,45.8905503 C62.5349713,46.196645 62.8240838,46.5263491 62.7723086,46.6854024 C62.6497051,47.0598402 62.6401784,47.4516746 62.5146755,47.814929 C62.2802376,48.4929763 61.9364506,49.1105503 61.4050305,49.6080059 C61.1001784,49.8933905 60.6714802,49.9894852 60.1342613,49.8954615 C58.8378116,49.6688935 58.8224861,49.6825621 58.2380483,49.0401361 C57.7799418,48.5368817 57.4829595,47.9619704 57.3599418,47.2582426 C57.2895276,46.8589527 57.0526045,46.5068817 57.3338471,46.1117337 C56.956924,45.7497219 57.5268648,45.7584201 57.5616577,45.4742781" id="Fill-433"></path>
            <path d="M27.2755571,14.8359408 C28.3036045,15.4149941 28.5405276,15.8979527 27.9755571,16.7802012 C27.6843737,17.2354083 28.0447287,17.7481893 27.633427,18.1217988 C27.5725394,18.1768876 27.7328352,18.478426 27.7937228,18.6648166 C27.9623027,19.1771834 28.1288116,19.2231598 28.6863264,19.0761183 C29.7508234,18.7961183 30.2549063,18.0431006 30.5112968,17.0225089 C30.114492,16.9098462 29.7152021,16.8021538 29.3192258,16.6828639 C28.835853,16.5374793 29.0114743,15.9944615 28.8134861,15.7451124 C29.0412968,15.5173018 29.2914743,15.2671243 29.542066,15.0169467 C30.2304684,14.6321538 30.657924,15.3843432 31.2854388,15.5545799 C31.7460305,16.298071 32.3888707,16.9429822 32.3225986,17.9391361 C32.2381015,19.1966509 31.6963264,20.2449941 30.322421,20.7482485 C29.1759122,21.1690769 28.2688116,20.9926272 27.2850838,20.1182485 C26.6857347,19.5855858 26.1969773,19.0367692 26.175853,18.0907337 C26.1468589,16.841503 26.385853,15.7438698 27.2755571,14.8359408" id="Fill-435"></path>
            <path d="M25.6992317,61.1423077 C24.7192317,61.4301775 24.1472199,60.7695266 23.4882258,60.3756213 C22.8839063,60.0144379 22.805208,59.3020118 22.6262731,58.7167456 C22.461421,58.1749704 22.7944388,57.6116568 22.9907702,57.0872781 C23.1560364,56.6457396 23.428995,56.2435503 23.6526636,55.8268639 C23.550356,55.7895858 23.4198826,55.7423669 23.2624861,55.6852071 C23.428995,55.5104142 23.5756222,55.3559172 23.7578707,55.1637278 C23.5238471,55.1214793 23.3179891,55.0842012 22.9795867,55.0228994 C23.1982849,54.8601183 23.352782,54.6497041 23.492782,54.6592308 C23.8837879,54.6857396 24.2665098,54.5502959 24.6778116,54.7747929 C25.7249122,55.3459763 26.2600601,56.3023669 26.6460956,57.3283432 C27.1874565,58.7681065 26.8979299,60.0769822 25.6992317,61.1423077" id="Fill-437"></path>
            <path d="M38.2437702,66.5014497 C38.1360778,66.7176627 38.043711,66.9028107 37.9368471,67.1177811 C38.679924,67.881568 38.9868471,68.8023373 38.8683855,69.8684911 C38.8398057,70.1211538 38.8468471,70.3394379 38.6575571,70.5759467 C38.2988589,71.0257692 38.2499832,71.6818639 37.553711,71.9196154 C37.2521725,72.0227515 36.9232968,72.1076627 36.7203382,72.0036982 C36.1553678,71.7133432 35.5059003,71.4892604 35.1554861,70.9081361 C34.980279,70.6177811 34.8179122,70.317071 34.7810483,69.9351775 C34.6588589,68.6809763 35.1683264,67.6400888 35.8061962,66.6418639 C35.9495098,66.4173669 36.1922317,66.255 36.4813441,66.1241124 C36.8143619,65.9737574 37.0202199,65.851568 37.3536518,66.100503 C37.5963737,66.2823373 37.9165512,66.3597929 38.2437702,66.5014497" id="Fill-439"></path>
            <path d="M78.9717997,40.6241893 C78.5257051,40.2808166 78.2639299,39.6611716 77.5684861,39.6868521 C77.3941074,39.3848994 77.1182494,39.099929 77.0656459,38.7780947 C76.9389003,37.9981538 77.1215631,37.3018817 77.9275986,36.9199882 C78.0228648,36.8748402 78.0883086,36.7659053 78.1918589,36.662355 C78.0510305,36.6147219 77.9255276,36.5720592 77.9131015,36.5679172 C78.1094329,36.3715858 78.3513264,36.1296923 78.5928057,35.888213 C78.5406163,35.826497 78.488427,35.7651953 78.4362376,35.7034793 C78.5397879,35.6893964 78.6478944,35.6496331 78.7456459,35.6666154 C79.1991962,35.7448994 79.7215039,35.4363195 80.1062968,35.8993964 C80.6066518,36.5012308 80.9761193,37.156497 81.1223323,37.9484497 C81.3165926,38.9996923 80.3013855,40.1619408 79.5305571,40.5367929 C79.3342258,40.6320592 79.0902613,40.2468521 78.9717997,40.6241893" id="Fill-441"></path>
            <path d="M49.0308116,54.3755444 C49.0308116,54.6870237 49.0113441,54.8406923 49.0341252,54.9877337 C49.1517583,55.7540059 48.5122317,56.0253077 48.0673796,56.3628817 C47.6250128,56.6983846 47.2021134,56.2054852 46.7883264,56.0832959 C46.4018767,55.9693905 46.083356,55.5982663 45.7577938,55.3145385 C45.2089773,54.8373787 45.0035335,53.7032959 45.3514625,53.0240059 C45.4305749,52.8695089 45.3460778,52.6064911 45.7130601,52.5721124 C45.9321725,52.5514024 46.1392731,52.2022308 46.3153086,51.9731775 C46.7767287,51.3754852 47.1809891,51.307142 47.6751311,51.8290355 C47.9977938,52.1699231 48.3718175,52.4490947 48.6021134,52.9063728 C48.8688589,53.4357219 49.1683264,53.9166095 49.0308116,54.3755444" id="Fill-443"></path>
            <path d="M36.7212909,28.658497 C37.2096341,29.1832899 37.7538944,29.6368402 38.0102849,30.3753609 C38.3279773,31.2899172 38.1548412,31.7890296 37.3769713,32.3221065 C36.4905808,32.9297396 35.8978589,32.8245325 35.1241311,32.0354793 C35.018924,31.9282012 34.9120601,31.8229941 34.8271489,31.738497 C34.6987465,31.3425207 34.9928293,30.8856568 34.5715867,30.5762485 C34.3375631,29.5332899 35.0425335,28.6787929 36.1550778,28.6589112 C36.342711,28.6555976 36.5303441,28.658497 36.7212909,28.658497" id="Fill-445"></path>
            <path d="M47.2231548,17.0474852 C47.4265276,16.8888462 47.5507879,16.7919231 47.6750483,16.695 C47.5296636,16.5728107 47.384279,16.4502071 47.242208,16.3309172 C47.3001962,16.2663018 47.3701962,16.1880178 47.4683619,16.0790828 C47.2123855,16.0227515 46.9845749,15.9730473 46.7107879,15.9134024 C47.0309654,15.0539349 47.8175335,14.9913905 48.4338648,14.7105621 C48.5543974,14.6558876 48.8141015,14.8145266 48.9632139,14.9329882 C49.5675335,15.4113905 50.0078293,16.0227515 50.313924,16.7285503 C50.3541015,16.8217456 50.4079477,16.9903254 50.3698412,17.0230473 C49.83635,17.4782544 50.540492,18.3592604 49.8413205,18.6641124 C49.7042199,18.7237574 49.3964684,18.3721006 49.0282435,18.3464201 C49.1777702,18.5100296 49.3264684,18.6740533 49.4967051,18.860858 C49.2225039,19.0426923 48.9636281,19.231568 48.6861134,19.3877219 C48.6012021,19.4361834 48.4649299,19.4042899 48.353924,19.3918639 C48.2876518,19.3844083 48.1671193,19.3342899 48.1696045,19.3181361 C48.2611429,18.7009763 47.5251074,19.159497 47.4430956,18.7544083 C47.4025039,18.5539349 47.2517347,18.3704438 47.2330956,18.1716272 C47.1983027,17.800503 47.2231548,17.4239941 47.2231548,17.0474852" id="Fill-447"></path>
            <path d="M48.826569,0.49704142 L48.826569,-1.75415238e-14 L49.8330778,-1.75415238e-14 C50.3433737,0.766272189 51.0417169,1.49236686 50.794853,2.64674556 C50.6333145,2.65710059 50.4307702,2.66952663 50.1470423,2.68733728 L50.1470423,1.75538462 C49.9660364,1.78976331 49.8268648,1.77485207 49.7759181,1.83491124 C49.6905926,1.93473373 49.6818944,2.09627219 49.6056814,2.20727811 C49.464853,2.41189349 49.3878116,2.36591716 49.1989358,2.06230769 C49.0713619,1.85686391 48.8961548,1.6804142 48.7201193,1.46420118 C48.9516577,1.35733728 49.1049122,1.28692308 49.2685216,1.21153846 C48.7930187,0.976686391 48.8013027,0.984970414 49.193137,0.577810651 C49.261066,0.50739645 49.2225453,0.334674556 49.2407702,0.114733728 C49.0726045,0.270473373 48.9939063,0.342544379 48.826569,0.49704142" id="Fill-449"></path>
        </g>
    </g>
</svg>