<svg xmlns="http://www.w3.org/2000/svg" viewBox="0 0 715 715" width="715" height="715" preserveAspectRatio="xMidYMid meet"><defs><clipPath id="__lottie_element_70"><rect width="715" height="715" x="0" y="0"></rect></clipPath></defs><g clip-path="url(#__lottie_element_70)"><g transform="matrix(0,1,-1,0,184.25,357.5)" opacity="1" style="display: none;"><g opacity="1" transform="matrix(1,0,0,1,0,0)"><path stroke-linecap="butt" stroke-linejoin="miter" fill-opacity="0" stroke-miterlimit="10" stroke="rgb(6,6,9)" stroke-opacity="1" stroke-width="20" d=" M-346.5,-173.25 C-346.5,-151.35400390625 -344.468994140625,-129.9320068359375 -340.5849914550781,-109.16200256347656"></path></g></g><g transform="matrix(0,1,-1,0,530.75,357.5)" opacity="1" style="display: none;"><g opacity="1" transform="matrix(1,0,0,1,0,0)"><path stroke-linecap="butt" stroke-linejoin="miter" fill-opacity="0" stroke-miterlimit="10" stroke="rgb(6,6,9)" stroke-opacity="1" stroke-width="20" d=" M-346.5,173.25 C-346.5,151.35400390625 -344.468994140625,129.9320068359375 -340.5849914550781,109.16200256347656"></path></g></g><g transform="matrix(0,1,-1,0,357.5,321.3189697265625)" opacity="1" style="display: block;"><g opacity="1" transform="matrix(1,0,0,1,0,0)"><path stroke-linecap="butt" stroke-linejoin="miter" fill-opacity="0" stroke-miterlimit="10" stroke="rgb(0,0,0)" stroke-opacity="1" stroke-width="20" d=" M197.73300170898438,0 C197.73300170898438,0 185.375,0 185.375,0 C185.375,0 153.58299255371094,0 153.58299255371094,0 C153.58299255371094,0 114.22200012207031,0 114.22200012207031,0 C114.22200012207031,0 83.5260009765625,0 68.1780014038086,0 C-20.458999633789062,0 -197.73300170898438,0 -197.73300170898438,0"></path></g></g><g transform="matrix(0,1,-1,0,357,448.70697021484375)" opacity="1" style="display: block;"><g opacity="1" transform="matrix(1,0,0,1,0,0)"><path stroke-linecap="butt" stroke-linejoin="miter" fill-opacity="0" stroke-miterlimit="10" stroke="rgb(0,0,0)" stroke-opacity="1" stroke-width="20" d=" M-74.38800048828125,-125.2770004272461 C-74.38800048828125,-125.2770004272461 75.38800048828125,-0.5 75.38800048828125,-0.5 C75.38800048828125,-0.5 -75.38800048828125,125.2770004272461 -75.38800048828125,125.2770004272461"></path></g></g><g transform="matrix(0,1,-1,0,357.5,288.5)" opacity="1" style="display: none;"><g opacity="1" transform="matrix(1,0,0,1,0,0)"><path stroke-linecap="butt" stroke-linejoin="miter" fill-opacity="0" stroke-miterlimit="10" stroke="rgb(0,0,0)" stroke-opacity="1" stroke-width="20" d=" M-197.73300170898438,0 C-197.73300170898438,0 26.486000061035156,0 26.486000061035156,0 C26.486000061035156,0 68.1780014038086,0 68.1780014038086,0 C68.1780014038086,0 197.73300170898438,0 197.73300170898438,0"></path></g></g><g transform="matrix(0,1,-1,0,357,415.88800048828125)" opacity="1" style="display: none;"><g opacity="1" transform="matrix(1,0,0,1,0,0)"><path stroke-linecap="butt" stroke-linejoin="miter" fill-opacity="0" stroke-miterlimit="10" stroke="rgb(0,0,0)" stroke-opacity="1" stroke-width="20" d=" M-74.38800048828125,-125.2770004272461 C-74.38800048828125,-125.2770004272461 75.38800048828125,-0.5 75.38800048828125,-0.5 C75.38800048828125,-0.5 -62.74300003051758,114.72799682617188 -74.58100128173828,124.60399627685547"></path></g></g><g transform="matrix(0,1,-1,0,357.5,357.5)" opacity="1" style="display: none;"><g opacity="1" transform="matrix(1,0,0,1,0,0)"><path stroke-linecap="butt" stroke-linejoin="round" fill-opacity="0" stroke="rgb(6,6,9)" stroke-opacity="1" stroke-width="5" d=" M-279.6860046386719,-138.7740020751953 C-298.47698974609375,-101.79499816894531 -307.68701171875,-68.23999786376953 -311.5570068359375,-47.09600067138672"></path></g></g><g transform="matrix(0,-1,1,0,357.5,357.5)" opacity="1" style="display: none;"><g opacity="1" transform="matrix(1,0,0,1,0,0)"><path stroke-linecap="butt" stroke-linejoin="round" fill-opacity="0" stroke="rgb(6,6,9)" stroke-opacity="1" stroke-width="5" d=" M277.21600341796875,-143.5970001220703 C297.25799560546875,-105.86900329589844 307.03900146484375,-72.99600219726562 310.3800048828125,-52.452999114990234"></path></g></g><g transform="matrix(0,1,-1,0,381.5,467.5)" opacity="1" style="display: none;"><g opacity="1" transform="matrix(1,0,0,1,0,0)"><path stroke-linecap="butt" stroke-linejoin="miter" fill-opacity="0" stroke-miterlimit="10" stroke="rgb(0,0,0)" stroke-opacity="1" stroke-width="5" d=" M67.05699920654297,1.6069999933242798 C84.92400360107422,1.6619999408721924 101.51100158691406,1.7130000591278076 116.41799926757812,1.7589999437332153"></path></g></g></g></svg>