<?xml version="1.0" encoding="UTF-8"?>
<svg width="1205px" height="271px" viewBox="0 0 1205 271" version="1.1" xmlns="http://www.w3.org/2000/svg" xmlns:xlink="http://www.w3.org/1999/xlink">
    <!-- Generator: Sketch 61.2 (89653) - https://sketch.com -->
    <title>Group 18</title>
    <desc>Created with Sketch.</desc>
    <g id="Page-1" stroke="none" stroke-width="1" fill="none" fill-rule="evenodd">
        <g id="Artboard" transform="translate(-1560.000000, -1487.000000)" fill="#FFFFFF">
            <g id="Group-18" transform="translate(1560.000000, 1487.000000)">
                <path d="M127.678311,106.85 C127.678311,90.8417219 123.039238,77.0089404 113.756126,65.3615894 C102.476325,51.1711921 86.1899007,44.0735099 64.9018212,44.0735099 L37.6087748,44.0735099 L37.6087748,169.62649 L64.9018212,169.62649 C86.1899007,169.62649 102.476325,162.528808 113.756126,148.338411 C123.039238,136.696026 127.678311,122.868212 127.678311,106.85 L127.678311,106.85 Z M0.764403974,11.3268212 L60.809106,11.3268212 C88.2809603,11.3268212 110.209768,17.3317881 126.585596,29.3417219 C138.411755,38.068543 147.689901,49.2639073 154.425,62.907947 C161.155132,76.5519868 164.522682,91.2043046 164.522682,106.85 C164.522682,122.495695 161.155132,137.143046 154.425,150.792053 C147.689901,164.436093 138.411755,175.62649 126.585596,184.358278 C110.209768,196.368212 88.2809603,202.373179 60.809106,202.373179 L0.764403974,202.373179 L0.764403974,11.3268212 Z" id="Fill-1"></path>
                <path d="M210.097848,119.131623 L264.68394,119.131623 C264.137583,112.952815 261.361093,107.528974 256.359437,102.889901 C251.352815,98.2508278 245.397517,95.9312914 238.483609,95.9312914 C231.385927,95.9312914 225.107781,98.2508278 219.649172,102.889901 C214.19553,107.528974 211.006788,112.952815 210.097848,119.131623 M277.513411,161.161424 L297.708775,181.361755 C291.336258,188.82202 283.284934,194.643212 273.554801,198.830298 C263.814735,203.012417 253.766722,205.108444 243.395861,205.108444 C223.374338,205.108444 206.824669,198.785596 193.72202,186.134934 C180.619371,173.489238 174.073013,156.889901 174.073013,136.326987 C174.073013,117.219371 180.028311,100.942881 191.948841,87.4726821 C203.864404,74.0074503 219.375993,67.2773179 238.483609,67.2773179 C256.493543,67.2773179 271.414073,73.8733444 283.245199,87.0604305 C295.066391,100.252483 300.981954,116.225993 300.981954,134.96606 C300.981954,138.785596 300.713742,142.153146 300.167384,145.058775 L208.458775,145.058775 C209.367715,154.341887 213.192219,161.891556 219.922351,167.712748 C226.652483,173.538907 234.753477,176.444536 244.215397,176.444536 C256.950497,176.444536 268.046523,171.358444 277.513411,161.161424" id="Fill-3"></path>
                <path d="M305.618046,187.368212 L322.808444,161.98245 C332.454139,170.714238 344.553477,175.080132 359.111424,175.080132 C363.839901,175.080132 367.848179,174.037086 371.121358,171.946026 C374.394536,169.854967 376.033609,167.167881 376.033609,163.889735 C376.033609,160.253974 373.853146,157.16457 369.482285,154.611589 C365.116391,152.068543 359.796854,149.793709 353.518709,147.787086 C347.240563,145.790397 340.912748,143.465894 334.550166,140.828477 C328.177649,138.196026 322.808444,134.098344 318.447517,128.550331 C314.081623,122.997351 311.896192,116.311921 311.896192,108.489073 C311.896192,96.3003311 316.94255,86.381457 327.040232,78.7374172 C337.142881,71.0983444 349.013742,67.2738411 362.657781,67.2738411 C370.848179,67.2738411 379.217384,68.6 387.770364,71.2324503 C396.318377,73.8698675 402.869702,77.0089404 407.424338,80.6496689 L390.775331,106.308609 C382.401159,100.303642 373.937583,97.2937086 365.38957,97.2937086 C360.293543,97.2937086 356.017053,98.2523179 352.565066,100.159603 C349.103146,102.076821 347.374669,104.669536 347.374669,107.942715 C347.374669,111.037086 349.560099,113.674503 353.925993,115.854967 C358.291887,118.040397 363.661093,120.136424 370.028642,122.133113 C376.396192,124.139735 382.71904,126.548675 388.997185,129.364901 C395.275331,132.19106 400.599834,136.561921 404.965728,142.46755 C409.331623,148.383113 411.512086,155.614901 411.512086,164.167881 C411.512086,176.356623 406.371358,186.230795 396.094868,193.780464 C385.813411,201.335099 373.396192,205.104967 358.838245,205.104967 C339.368046,205.104967 321.626325,199.194371 305.618046,187.368212" id="Fill-5"></path>
                <path d="M430.619205,202.375166 L466.102649,202.375166 L466.102649,70.002649 L430.619205,70.002649 L430.619205,202.375166 Z M431.985099,39.163245 C427.430464,34.797351 425.160596,29.4331126 425.160596,23.0556291 C425.160596,16.6930464 427.430464,11.3238411 431.985099,6.95298013 C436.529801,2.58708609 441.988411,0.406622517 448.35596,0.406622517 C454.728477,0.406622517 460.182119,2.58708609 464.736755,6.95298013 C469.281457,11.3238411 471.556291,16.6930464 471.556291,23.0556291 C471.556291,29.4331126 469.281457,34.797351 464.736755,39.163245 C460.182119,43.5291391 454.728477,45.7145695 448.35596,45.7145695 C441.988411,45.7145695 436.529801,43.5291391 431.985099,39.163245 L431.985099,39.163245 Z" id="Fill-7"></path>
                <path d="M683.077152,202.375166 L647.593709,202.375166 L647.593709,70.002649 L681.716225,70.002649 L681.716225,80.6466887 C692.628477,71.7360927 705.095364,67.2758278 719.101987,67.2758278 C737.837086,67.2758278 753.130132,74.3735099 764.951325,88.5639073 C774.050662,99.3023179 778.600331,114.764238 778.600331,134.96457 L778.600331,202.375166 L743.121854,202.375166 L743.121854,132.232781 C743.121854,120.95298 740.484437,112.673179 735.204636,107.393377 C730.292384,102.486093 723.651656,100.027483 715.28245,100.027483 C708.547351,100.027483 702.219536,101.706291 696.313907,105.073841 C690.398344,108.446358 685.982781,112.221192 683.077152,116.403311 L683.077152,202.375166 Z" id="Fill-9"></path>
                <path d="M898.690728,11.3248344 L898.690728,142.331457 C898.690728,157.435762 896.689073,168.715563 892.685762,176.175828 C887.77351,185.275166 880.631126,192.367881 871.263576,197.463907 C861.886093,202.554967 851.649338,205.107947 840.558278,205.107947 C828.180795,205.107947 817.223841,202.10298 807.672517,196.098013 C798.116225,190.093046 791.157616,181.907616 786.791722,171.536755 L818.450662,155.702318 C822.816556,166.808278 830.276821,172.351325 840.831457,172.351325 C847.924172,172.351325 853.472185,169.808278 857.475497,164.712252 C860.386093,160.892715 861.846358,154.798344 861.846358,146.424172 L861.846358,11.3248344 L898.690728,11.3248344 Z" id="Fill-10"></path>
                <path d="M960.374007,110.536424 C953.822682,117.539735 950.544536,126.142384 950.544536,136.324503 C950.544536,146.516556 953.822682,155.069536 960.374007,161.978477 C966.920364,168.897351 975.28957,172.349338 985.481623,172.349338 C995.668709,172.349338 1004.04288,168.897351 1010.59421,161.978477 C1017.14553,155.069536 1020.41871,146.516556 1020.41871,136.324503 C1020.41871,126.142384 1017.14553,117.539735 1010.59421,110.536424 C1004.04288,103.533113 995.668709,100.02649 985.481623,100.02649 C975.28957,100.02649 966.920364,103.533113 960.374007,110.536424 M935.261424,185.178808 C921.791225,171.897351 915.06606,155.615894 915.06606,136.324503 C915.06606,117.043046 921.791225,100.706954 935.261424,87.3360927 C948.726656,73.9652318 965.465066,67.2748344 985.481623,67.2748344 C1005.49321,67.2748344 1022.23162,73.9652318 1035.70182,87.3360927 C1049.16705,100.706954 1055.89719,117.043046 1055.89719,136.324503 C1055.89719,155.615894 1049.16705,171.897351 1035.70182,185.178808 C1022.23162,198.465232 1005.49321,205.10596 985.481623,205.10596 C965.465066,205.10596 948.726656,198.465232 935.261424,185.178808" id="Fill-11"></path>
                <polygon id="Fill-12" points="1112.94586 267.88096 1075.82334 267.88096 1112.3995 189.001821 1053.17434 70.0001656 1092.20414 70.0001656 1130.96076 149.425662 1166.71242 70.0001656 1204.10811 70.0001656"></polygon>
                <path d="M548.037417,271.125828 C529.918212,271.125828 512.717881,263.258278 500.851987,249.544702 L524.444702,229.135762 C530.375166,236 538.977815,239.933775 548.037417,239.933775 C565.222848,239.933775 579.204636,225.94702 579.204636,208.761589 L610.401656,208.761589 C610.401656,243.147351 582.423179,271.125828 548.037417,271.125828" id="Fill-13" transform="translate(555.626821, 239.943709) rotate(19.000000) translate(-555.626821, -239.943709) "></path>
                <path d="M534.468377,110.536424 C527.917053,117.539735 524.638907,126.142384 524.638907,136.324503 C524.638907,146.516556 527.917053,155.069536 534.468377,161.978477 C541.014735,168.897351 549.38394,172.349338 559.575993,172.349338 C569.763079,172.349338 578.132285,168.897351 584.683609,161.978477 C591.239901,155.069536 594.513079,146.516556 594.513079,136.324503 C594.513079,126.142384 591.239901,117.539735 584.683609,110.536424 C578.132285,103.533113 569.763079,100.02649 559.575993,100.02649 C549.38394,100.02649 541.014735,103.533113 534.468377,110.536424 M509.355795,185.178808 C495.885596,171.897351 489.16043,155.615894 489.16043,136.324503 C489.16043,117.043046 495.885596,100.706954 509.355795,87.3360927 C522.821026,73.9652318 539.55447,67.2748344 559.575993,67.2748344 C579.587583,67.2748344 596.325993,73.9652318 609.796192,87.3360927 C623.256457,100.706954 629.991556,117.043046 629.991556,136.324503 C629.991556,155.615894 623.256457,171.897351 609.796192,185.178808 C596.325993,198.465232 579.587583,205.10596 559.575993,205.10596 C539.55447,205.10596 522.821026,198.465232 509.355795,185.178808" id="Fill-14"></path>
            </g>
        </g>
    </g>
</svg>