<?xml version="1.0" encoding="UTF-8"?>
<svg width="215px" height="107px" viewBox="0 0 215 107" version="1.1" xmlns="http://www.w3.org/2000/svg" xmlns:xlink="http://www.w3.org/1999/xlink">
    <title>Group 2</title>
    <g id="Page-1" stroke="none" stroke-width="1" fill="none" fill-rule="evenodd">
        <g id="Artboard" transform="translate(-301.000000, -469.000000)">
            <g id="Group-2" transform="translate(301.000000, 469.000000)">
                <g id="Asset-1" transform="translate(40.000000, 5.000000)" fill="#000000" fill-rule="nonzero">
                    <path d="M4.74,52.84 C4.5447966,52.8935956 4.34195098,52.9138802 4.14,52.9 C3.203237,52.7326899 2.4220212,52.0879972 2.08,51.2 C0.77,48.8 0,44.36 0,39.44 L0.05,37.44 C0.19,34.24 0.44,31.44 0.77,29.03 C1.06,27.13 1.4,25.03 1.52,24.61 C1.62234922,24.2580453 1.70580174,23.9008685 1.77,23.54 C1.97342842,22.4284728 2.25410902,21.3324819 2.61,20.26 C2.82531686,19.7758763 3.24195039,19.4104083 3.75,19.26 L3.87,19.26 C4.16967995,19.237821 4.46653182,19.3308107 4.7,19.52 C5.16,19.88 5.32,20.75 5.32,22.52 L5.32,24.17 C5.32,25.22 5.2,26.17 5.2,26.17 C5.2,26.17 5.03,28.17 4.86,31.44 C4.74,33.51 4.64,36.24 4.64,37.86 L4.64,38.75 C4.6777771,40.1724328 4.79797872,41.5914797 5,43 C4.99588492,43.0231519 4.99588492,43.0468481 5,43.07 C5.2925585,41.7509857 5.50296304,40.4150839 5.63,39.07 C5.96492727,35.95103 6.48922841,32.8553157 7.2,29.8 C7.75669924,27.4417369 8.52653091,25.138936 9.5,22.92 C10.69,20.15 12.12,18.56 13.76,18.21 L14.15,18.15 C15.87,17.98 17.27,18.84 18.29,20.63 C19.298606,22.7703137 19.8794795,25.0870138 20,27.45 C20.14,29.34 20.22,30.45 20.22,31.6 C20.22,32.3 20.22,32.96 20.14,33.79 C19.9688056,36.7353447 19.3308574,39.6348023 18.25,42.38 C17.696067,43.7667829 17.0270665,45.1047839 16.25,46.38 C14.9923658,48.4287233 13.0118606,49.9310525 10.7,50.59 C9.8564802,50.878308 8.92642222,50.7523241 8.19,50.25 L7.84,50 C7.7375225,50.1579565 7.65045594,50.3253922 7.58,50.5 C7.21474687,51.1919187 6.71095649,51.8012327 6.1,52.29 C5.78361282,52.5485411 5.40381435,52.717724 5,52.78 L4.74,52.84 Z M9.37,46.12 C9.8222247,46.0330985 10.2452531,45.8336217 10.6,45.54 C12.011145,44.490877 13.0738968,43.0413532 13.65,41.38 C14.5760537,39.3611843 15.1735859,37.2073677 15.42,35 C15.5522725,33.7813412 15.6090476,32.5556682 15.59,31.33 C15.5972426,29.2279843 15.477022,27.1274632 15.23,25.04 C15.092548,24.1274703 14.8370748,23.2366756 14.47,22.39 C14.2627434,22.0834933 13.9709224,21.8437832 13.63,21.7 L13.55,21.7 C13.34,21.7 13.02,22.1 12.73,22.6 C11.59,24.49 10.6,28.23 10.07,32.6 C9.83,34.6 9.85,34.51 9.61,36.89 C9.17,41.71 9.05,42.8 8.88,44.31 L8.71,46.11 C8.71,46.11 8.71,46.21 8.93,46.11 L9.37,46.12 Z" id="Shape"></path>
                    <path d="M27.7,47.2 C25.858375,47.3283869 24.0810616,46.496453 23,45 C22.1710458,43.7248006 21.7426695,42.2307076 21.77,40.71 C21.8900045,37.4645756 23.2585057,34.3908218 25.59,32.13 C26.4561553,31.2279937 27.569362,30.6018149 28.79,30.33 L28.91,30.33 C30.0435227,30.0251351 31.2537444,30.2335419 32.22,30.9 C33.0324833,31.4227116 33.4961243,32.3461618 33.43,33.31 C33.3459656,34.649605 32.8656236,35.9339975 32.05,37 C31.1176187,38.3459596 29.9026731,39.4721733 28.49,40.3 C27.8415998,40.7196936 27.1427207,41.0556932 26.41,41.3 C26.2350688,41.3350197 26.0549312,41.3350197 25.88,41.3 L25.78,41.3 C25.78,41.3 25.78,41.3 25.78,41.3 L25.78,41.41 C25.9298557,41.8220063 26.2109378,42.1733589 26.58,42.41 C27.1097972,42.781304 27.7135776,43.033732 28.35,43.15 C28.8959116,43.2448388 29.4540884,43.2448388 30,43.15 C30.3865923,43.0741335 30.7539144,42.9210827 31.08,42.7 C31.8353936,42.1926702 32.5477937,41.624088 33.21,41 C34.59,39.67 34.76,39.53 35.05,39.47 C35.49,39.38 35.64,39.52 35.64,40.12 L35.64,40.44 C35.5696706,41.2665799 35.3132722,42.0665428 34.89,42.78 C34.3295975,43.6270161 33.6567855,44.3940217 32.89,45.06 C31.7715971,46.0446552 30.4236315,46.7323928 28.97,47.06 C28.5528563,47.1517363 28.1271096,47.198669 27.7,47.2 L27.7,47.2 Z M26.87,37.35 C27.7428116,36.8390721 28.4401637,36.0754716 28.87,35.16 C28.9967676,34.8932525 29.0714379,34.6047537 29.09,34.31 C29.0974385,34.1728222 29.0625286,34.0366734 28.99,33.92 C28.7791528,33.712194 28.4827307,33.6158568 28.19,33.66 L28.04,33.66 C27.2193336,34.1424429 26.5745644,34.8748166 26.2,35.75 C25.919002,36.3338969 25.7172194,36.952697 25.6,37.59 C25.6,37.71 25.6,37.73 26.06,37.64 C26.3444762,37.5899077 26.6183737,37.4918456 26.87,37.35 L26.87,37.35 Z" id="Shape"></path>
                    <path d="M40.7,45 C39.4929626,45.1282959 38.3215857,44.5426075 37.7,43.5 C37.3824883,42.9278313 37.1787403,42.2996081 37.1,41.65 L37.1,41.38 C37.1731348,40.3557082 37.5847178,39.3847945 38.27,38.62 C38.75,38.03 38.75,38.01 39.09,37.93 C39.2343692,37.8764158 39.3944333,37.8846465 39.5325448,37.9527563 C39.6706564,38.0208661 39.7746261,38.1428438 39.82,38.29 C39.8332153,38.3895634 39.8332153,38.4904366 39.82,38.59 C39.7979417,38.9418182 39.7578893,39.2922767 39.7,39.64 L39.7,40.03 C39.7,40.81 39.99,41.57 40.41,41.72 C40.6771145,41.8024578 40.9628855,41.8024578 41.23,41.72 L41.62,41.59 C42.2448149,41.3310321 42.7704217,40.8790103 43.12,40.3 C43.2385633,40.1144694 43.3042558,39.9001042 43.31,39.68 C43.31,38.95 42.56,38.09 40.96,36.86 C39.6191359,35.9993052 38.6052024,34.7142854 38.08,33.21 C37.9420392,32.7602677 37.8844908,32.2897251 37.91,31.82 C37.9143664,30.9378353 38.1413813,30.071051 38.57,29.3 C39.1018655,28.2929414 39.8334236,27.4048638 40.72,26.69 C41.3598602,26.2054646 42.0965588,25.8644004 42.88,25.69 L43,25.69 C43.6613604,25.5495669 44.346483,25.5666949 45,25.74 C45.3958994,25.8292918 45.7677591,26.0032812 46.09,26.25 C46.8381506,26.7046717 47.2731312,27.5361392 47.22,28.41 C47.2314134,28.7918646 47.1561989,29.1713558 47,29.52 C46.7541438,30.34735 46.1638594,31.0287276 45.38,31.39 L45.21,31.39 C44.82,31.48 44.67,31.31 44.48,30.65 C44.4075773,30.3156839 44.228613,30.0139009 43.97,29.79 C43.6292703,29.4493379 43.1456384,29.2930876 42.67,29.37 C42.4240541,29.4242613 42.2027224,29.557763 42.04,29.75 C41.8937985,29.8502748 41.8164607,30.0242848 41.84,30.2 C41.84,30.51 41.84,30.58 42.35,31.13 C42.717411,31.5454271 43.1624035,31.885116 43.66,32.13 C44.5417999,32.6140303 45.3334236,33.2466526 46,34 C47.0454386,35.1349571 47.6332757,36.6170192 47.65,38.16 L47.65,38.49 C47.5423581,39.8933507 47.0006428,41.2284167 46.1,42.31 C45.3232544,43.2895687 44.3168574,44.0623991 43.17,44.56 C42.7868131,44.7305057 42.3883767,44.8644339 41.98,44.96 C41.5562823,45.022412 41.1267879,45.0358337 40.7,45 Z" id="Path"></path>
                    <path d="M52.22,42.53 C51.22,42.26 50.77,41.19 50.53,38.61 C50.29,36.03 50.21,33.61 50.21,31.61 C50.1888928,30.4707875 50.2456919,29.3314646 50.38,28.2 C50.5160495,27.2256205 50.8098966,26.2799056 51.25,25.4 C51.594559,24.7531592 52.2046175,24.2892225 52.92,24.13 L53.24,24.08 C53.8376673,23.9704164 54.4361066,24.2676005 54.71,24.81 C55.1454969,25.6821136 55.3224567,26.6605969 55.22,27.63 C55.22,28.53 55.22,29.73 55.08,31.35 C54.94,32.97 54.93,34.67 54.93,36.22 C54.93,37.07 54.93,37.89 54.93,38.68 L54.93,39 C54.9333052,39.4177321 54.9099243,39.8352488 54.86,40.25 C54.8591354,41.0091793 54.4852982,41.71947 53.86,42.15 C53.6011122,42.3384748 53.3041999,42.4681606 52.99,42.53 C52.7365924,42.5878448 52.4734076,42.5878448 52.22,42.53 L52.22,42.53 Z M51.79,22.06 C51.3277541,21.9207311 50.957568,21.5727561 50.79,21.12 C50.667716,20.9297305 50.6082534,20.7058713 50.62,20.48 L50.62,19.7 C50.6048006,18.8617123 50.8608509,18.0409482 51.35,17.36 C51.7071055,16.8276372 52.2677693,16.4659187 52.9,16.36 L53.34,16.27 C53.5617437,16.2426846 53.7867207,16.2772965 53.99,16.37 C54.76,16.67 55.1,17.42 55.13,18.8 L55.13,19 C55.1705811,19.6213659 55.0168058,20.2399619 54.69,20.77 C54.2881283,21.4369288 53.6365305,21.9157272 52.88,22.1 C52.5189939,22.1775198 52.1443532,22.1637715 51.79,22.06 L51.79,22.06 Z" id="Shape"></path>
                    <path d="M62.87,49.49 C61.47,49.49 60.43,48.7 60.43,47.68 C60.4341646,47.4530867 60.4816848,47.2290632 60.57,47.02 C60.7748617,46.5754897 61.1800247,46.2558198 61.66,46.16 C61.8788758,46.128547 62.1011242,46.128547 62.32,46.16 C62.4953734,46.1902304 62.6746266,46.1902304 62.85,46.16 C63.14,46.1 63.31,45.87 63.7,45.26 C64.86,43.41 65.37,40.76 65.37,36.33 L65.37,34.81 C65.37,33.56 65.3,32.5 65.28,32.46 C65.1036675,32.5980147 64.9544755,32.7675511 64.84,32.96 C64.042594,34.1335713 62.8502174,34.9817201 61.48,35.35 C60.2196256,35.6952764 58.8903359,35.1058743 58.3,33.94 C57.9853764,33.3425263 57.8271272,32.6751275 57.84,32 C57.8500959,31.5128696 57.9036415,31.0276118 58,30.55 C58.2239617,29.5168064 58.5592532,28.5109319 59,27.55 C59.9439677,25.2735623 61.4721097,23.2866327 63.43,21.79 C64.0012109,21.3929987 64.6425484,21.1079598 65.32,20.95 C65.8373458,20.8274128 66.3803011,20.872951 66.87,21.08 C67.2059134,21.2840468 67.4304809,21.6301016 67.48,22.02 C67.4916124,22.2286908 67.5985536,22.4204474 67.77,22.54 C68.49,23.18 69.29,25.97 69.66,29.16 C69.7894285,30.4358008 69.8495168,31.7176861 69.84,33 C69.8599431,35.3033121 69.7229594,37.6053076 69.43,39.89 C69.1827302,42.0818334 68.5029326,44.2028021 67.43,46.13 C66.5692921,47.6937841 65.1352816,48.8625026 63.43,49.39 L62.87,49.49 Z M63.09,29.15 C63.7743263,28.0303 64.2645587,26.8030287 64.54,25.52 C64.5969071,25.3417449 64.6305192,25.156878 64.64,24.97 C64.64,24.97 64.64,24.89 64.64,24.9 L64.64,24.9 C64.5472079,24.9945226 64.4603742,25.0947153 64.38,25.2 C63.3292888,26.5730124 62.6228983,28.1778221 62.32,29.88 L62.27,30.3 C62.5846066,29.9478397 62.8595881,29.5621948 63.09,29.15 L63.09,29.15 Z" id="Shape"></path>
                    <path d="M83.57,36 C82.99,35.74 82.68,35.08 82.34,33.36 C82.1663194,32.4741694 82.0858807,31.572586 82.1,30.67 C82.1486582,28.7390229 82.3089256,26.8124745 82.58,24.9 L82.58,24.6 C81.2962463,26.7712256 80.23423,29.0661189 79.41,31.45 C78.03,35.28 77.69,36.06 77.18,36.75 C76.7524659,37.3458995 76.1411923,37.7850328 75.44,38 C75.2541785,38.0251212 75.0658215,38.0251212 74.88,38 C74.1557053,37.9282145 73.5275887,37.468617 73.24,36.8 C72.8543063,35.867891 72.6083215,34.883952 72.51,33.88 C72.51,33.52 72.46,32.8 72.46,31.98 C72.46,30.45 72.51,28.53 72.61,27.52 C72.7389608,25.62187 73.0469967,23.7401728 73.53,21.9 C73.6977937,21.3194812 74.0231647,20.7968108 74.47,20.39 C74.6125423,20.2410021 74.7976595,20.1397116 75,20.1 L75.22,20.05 C75.7858673,19.9443705 76.3485741,20.2486489 76.57,20.78 C76.84,21.23 76.84,21.23 76.86,22.41 L76.86,22.85 C76.86,23.92 76.79,25.17 76.6,27.34 C76.52,28.34 76.48,29.34 76.48,29.86 C76.48,30.1 76.48,30.25 76.48,30.24 C76.7195038,29.8539822 76.9204707,29.4453496 77.08,29.02 C78.2336672,26.5276997 79.5706709,24.1244356 81.08,21.83 C82.26,20 83.18,19.18 84.34,18.93 C84.8354072,18.7884465 85.3673362,18.8587294 85.8089781,19.1240936 C86.2506199,19.3894578 86.5624031,19.8261264 86.67,20.33 C86.84,20.77 86.84,20.89 86.84,22.66 C86.8524749,23.7491712 86.7956937,24.8380339 86.67,25.92 L86.3,29.1 C86.1433781,31.1534407 85.8527591,33.1944545 85.43,35.21 C85.2171075,35.6320284 84.8295108,35.9391804 84.37,36.05 C84.105313,36.1239116 83.8234242,36.1062936 83.57,36 Z" id="Path"></path>
                    <path d="M95.27,33.43 C94.0138793,33.5729253 92.7521905,33.2134698 91.76,32.43 C90.7853244,31.699868 90.0647176,30.6819236 89.7,29.52 C89.5175196,28.9616131 89.4263476,28.3774366 89.43,27.79 C89.4222714,27.3782973 89.4727708,26.9675685 89.58,26.57 C89.9207242,25.429548 90.584046,24.4119916 91.49,23.64 C91.7029927,23.430842 91.9588988,23.2704742 92.24,23.17 C92.3519545,23.1449986 92.4680455,23.1449986 92.58,23.17 C92.8359436,23.2367007 93.0081665,23.4761325 92.99,23.74 C92.9752159,24.0194115 92.9001665,24.2923187 92.77,24.54 C92.5943477,24.8451728 92.4948697,25.1882003 92.48,25.54 C92.4881499,25.7933329 92.5388575,26.04349 92.63,26.28 C92.7886049,27.102562 93.2223774,27.8466758 93.86,28.39 C94.42,28.85 94.64,28.88 95.63,28.74 L95.94,28.68 C96.2304385,28.6337245 96.5051141,28.5169874 96.74,28.34 C98.05,27.48 99.02,25.21 99.5,21.94 C99.72,20.44 99.84,17.07 99.99,9.12 C99.96675,6.67889625 100.080261,4.23840659 100.33,1.81 C100.451555,1.3011111 100.679939,0.823889622 101,0.41 C101.156517,0.218248796 101.370265,0.0815899379 101.61,0.02 C102,-0.07 102.38,0.17 102.7,0.66 C103.537905,2.72366496 104.11568,4.88360291 104.42,7.09 C104.42,7.33 104.51,7.85 104.59,8.25 C104.932608,11.1204656 105.099586,14.0091764 105.09,16.9 C105.09,18.21 105.09,19.41 104.97,20.32 C104.818884,23.486019 103.917446,26.5707865 102.34,29.32 C101.419243,30.7382706 100.139141,31.8872566 98.63,32.65 C98.0083908,32.9165731 97.3619,33.1209044 96.7,33.26 C96.2286394,33.3547721 95.7504423,33.4116207 95.27,33.43 Z" id="Path"></path>
                    <path d="M112.29,29.1 C111.88074,29.0762085 111.475148,29.0091685 111.08,28.9 C110.587622,28.7803207 110.131383,28.5436251 109.75,28.21 C109.097893,27.6923788 108.608434,26.9981111 108.34,26.21 C107.898146,25.0553542 107.684204,23.8260325 107.71,22.59 C107.707775,20.7372634 108.046762,18.8999574 108.71,17.17 C109.384107,15.3507294 110.468914,13.7115416 111.88,12.38 C112.310859,11.9685385 112.847424,11.6846786 113.43,11.56 L114.43,11.22 C114.679024,11.1245046 114.936974,11.0541545 115.2,11.01 C116.007163,10.8521035 116.840404,10.8898222 117.63,11.12 C118.853628,11.6228464 119.828104,12.5901304 120.34,13.81 C120.893611,14.9908394 121.157581,16.2866957 121.11,17.59 C121.110329,18.6991036 120.913955,19.7994763 120.53,20.84 C119.893125,23.1467682 118.61746,25.2266571 116.85,26.84 C116.194921,27.4761448 115.454483,28.0180106 114.65,28.45 C114.159294,28.6683742 113.646271,28.8326755 113.12,28.94 C112.848613,29.0177903 112.570856,29.0713338 112.29,29.1 Z M113.93,24.1 C114.731519,23.3918129 115.407693,22.553358 115.93,21.62 C116.378438,20.8406507 116.683276,19.9871044 116.83,19.1 C116.922901,18.6424943 116.969801,18.1768426 116.97,17.71 C117.050097,16.877669 116.748539,16.0539019 116.15,15.47 C115.649598,15.1020973 115.006671,14.987553 114.41,15.16 L114,15.25 C113.782139,15.2681524 113.580546,15.3725488 113.44,15.54 C113.212109,15.8485125 113.023963,16.1844873 112.88,16.54 C112.231384,17.9874305 111.890843,19.5539232 111.88,21.14 C111.88,22.81 112.15,23.72 112.7,24.21 C112.94,24.42 113.11,24.51 113.33,24.46 C113.55196,24.3907571 113.756539,24.2748295 113.93,24.12 L113.93,24.1 Z" id="Shape"></path>
                    <path d="M129,37.06 C128.321815,37.0589132 127.667418,36.8099578 127.16,36.36 C126.575176,35.6689695 126.293943,34.7711861 126.38,33.87 C126.320876,33.3708183 126.502808,32.8732901 126.87,32.53 C126.989459,32.4132099 127.137886,32.3303671 127.3,32.29 C127.59,32.23 127.86,32.41 128.22,32.84 C128.76,33.5 129.07,33.84 129.41,33.73 C129.75,33.62 129.94,33.4 130.3,32.91 C131.523265,31.0487418 132.259137,28.909898 132.44,26.69 C132.6,25.15 132.73,20.84 132.73,18.23 C132.778039,17.5318148 132.744479,16.8304092 132.63,16.14 C132.490194,16.3131042 132.381882,16.5094205 132.31,16.72 C131.78126,17.9571743 131.028645,19.0860958 130.09,20.05 C129.436306,20.6278525 128.654946,21.0425217 127.81,21.26 C127.617694,21.2881823 127.422306,21.2881823 127.23,21.26 C125.73,21.26 124.5,20.12 123.99,18.26 C123.778426,17.5848922 123.703634,16.8743647 123.77,16.17 C123.73292,14.7347897 123.911579,13.3021479 124.3,11.92 C124.74,10.32 125.1,9.64 125.8,9.15 C125.977152,9.02388661 126.172818,8.92605384 126.38,8.86 L126.5,8.86 C127.027112,8.74052219 127.575918,8.93513419 127.91,9.36 C128.22,9.83 128.34,10.46 128.39,12.12 C128.396352,13.1245312 128.476569,14.1272352 128.63,15.12 C128.63,15.18 128.71,15.22 128.73,15.22 C129.572536,14.1183344 130.331328,12.955077 131,11.74 C131.43,10.94 132.28,9.6 132.57,9.2 C132.93216,8.70483276 133.455463,8.35124984 134.05,8.2 C134.376153,8.10215111 134.723847,8.10215111 135.05,8.2 C135.85,8.42 136.22,8.94 136.58,10.32 C136.860188,11.4766343 137.014419,12.6601875 137.04,13.85 C137.09,14.47 137.11,16.31 137.11,18.22 C137.11,20.13 137.11,22.08 137.04,22.91 C136.927209,25.9616325 136.24906,28.9658324 135.04,31.77 C134.488124,33.0857859 133.67115,34.2738008 132.64,35.26 C131.846837,36.0895361 130.845197,36.69052 129.74,37 C129.49924,37.0660091 129.24825,37.0863596 129,37.06 Z" id="Path"></path>
                </g>
                <g id="Group" transform="translate(42.000000, 75.000000)">
                    <rect id="Rectangle" fill="#80376B" x="0" y="0" width="31.5789474" height="31.5789474" rx="6.31578947"></rect>
                    <polygon id="L" fill="#FFFFFF" fill-rule="nonzero" points="20.7067229 22 20.7067229 19.9831414 14.4711143 19.9831414 14.4711143 8.52960526 12.1211965 8.52960526 12.1211965 22"></polygon>
                </g>
                <g id="Group" transform="translate(78.000000, 67.000000)">
                    <rect id="Rectangle" fill="#80376B" x="0" y="0" width="31.5789474" height="31.5789474" rx="6.31578947"></rect>
                    <path d="M11.7372533,22 L13.0139803,18.7156661 L18.4539474,18.7156661 L19.7584293,22 L22.4136513,22 L16.9551809,8.52960526 L14.5682566,8.52960526 L9.15604441,22 L11.7372533,22 Z M17.501028,16.5230263 L13.8928865,16.5230263 C14.7070313,14.1916118 15.3145559,12.443051 15.7154605,11.2773438 C16.1965461,12.6712582 16.7917352,14.4198191 17.501028,16.5230263 L17.501028,16.5230263 Z" id="A" fill="#FFFFFF" fill-rule="nonzero"></path>
                </g>
                <g id="Group" transform="translate(115.000000, 59.000000)">
                    <rect id="Rectangle" fill="#80376B" x="0" y="0" width="31.5789474" height="31.5789474" rx="6.31578947"></rect>
                    <path d="M16.1364104,22 C16.9505551,22 17.6798931,21.89669 18.3244243,21.6900699 C18.9689556,21.4834498 19.4885896,21.2012747 19.8833265,20.8435444 C20.2780633,20.4858141 20.5771998,20.0833676 20.780736,19.6362048 C20.9842722,19.1890419 21.0860403,18.7094984 21.0860403,18.197574 C21.0860403,17.3772615 20.885588,16.6695107 20.4846834,16.0743215 C20.0837788,15.4791324 19.4824219,15.073602 18.6806127,14.8577303 C19.870991,14.2717928 20.4661801,13.3127056 20.4661801,11.9804688 C20.4661801,11.5363898 20.4029605,11.1370271 20.2765214,10.7823808 C20.1500822,10.4277344 19.9866365,10.1316817 19.7861842,9.89422286 C19.5857319,9.65676398 19.3313117,9.45168586 19.0229235,9.27898849 C18.7145354,9.10629112 18.4092311,8.97214227 18.1070107,8.87654194 C17.8047903,8.78094161 17.4547697,8.70692845 17.056949,8.65450247 C16.6591283,8.60207648 16.3060238,8.56815378 15.9976357,8.55273438 C15.6892475,8.53731497 15.3407689,8.52960526 14.9521998,8.52960526 L14.9521998,8.52960526 L11.223787,8.52960526 L11.223787,22 L16.1364104,22 Z M15.5813117,14.1175987 L13.5737048,14.1175987 L13.5737048,10.5464638 L15.0909745,10.5464638 C16.0839844,10.5464638 16.8117804,10.6682771 17.2743627,10.9119038 C17.7369449,11.1555304 17.968236,11.610403 17.968236,12.2765214 C17.968236,12.6219161 17.9003906,12.9179688 17.7646998,13.1646793 C17.629009,13.4113898 17.4424342,13.6025905 17.2049753,13.7382812 C16.9675164,13.873972 16.7161801,13.9711143 16.4509663,14.0297081 C16.1857525,14.0883018 15.8958676,14.1175987 15.5813117,14.1175987 L15.5813117,14.1175987 Z M15.7200863,19.9923931 L13.6014597,19.9923931 L13.6014597,16.0234375 L15.6645765,16.0234375 C16.7501028,16.0234375 17.5041118,16.1714638 17.9266036,16.4675164 C18.3490954,16.7635691 18.5603413,17.3063322 18.5603413,18.0958059 C18.5603413,19.3601974 17.6135896,19.9923931 15.7200863,19.9923931 L15.7200863,19.9923931 Z" id="B" fill="#FFFFFF" fill-rule="nonzero"></path>
                </g>
                <g id="Group" transform="translate(151.000000, 51.000000)">
                    <rect id="Rectangle" fill="#80376B" x="0" y="0" width="31.5789474" height="31.5789474" rx="6.31578947"></rect>
                    <path d="M15.7432155,22.2127878 C16.3846628,22.2127878 16.9829359,22.1418586 17.5380345,22 C18.0931332,21.8581414 18.5988898,21.6422697 19.0553043,21.3523849 C19.5117188,21.0625 19.8725329,20.6631373 20.1377467,20.1542969 C20.4029605,19.6454564 20.5355674,19.0548931 20.5355674,18.3826069 C20.5355674,17.3710938 20.3196957,16.5816201 19.8879523,16.0141859 C19.4562089,15.4467516 18.6914063,14.9440789 17.5935444,14.5061678 C17.3530016,14.4136513 16.9875617,14.2887541 16.4972245,14.1314762 C16.0068873,13.9741982 15.6846217,13.8678043 15.5304276,13.8122944 C15.0986842,13.6581003 14.7532895,13.5146998 14.4942434,13.3820929 C14.2351974,13.249486 14.036287,13.1045436 13.8975123,12.9472656 C13.7587377,12.7899877 13.6677632,12.6296258 13.6245888,12.4661801 C13.5814145,12.3027344 13.5598273,12.0945724 13.5598273,11.8416941 C13.5598273,11.323602 13.7895765,10.9381168 14.2490748,10.6852385 C14.7085732,10.4323602 15.3053043,10.3059211 16.0392681,10.3059211 C17.3838405,10.3059211 18.4354441,10.6667352 19.1940789,11.3883635 L19.1940789,11.3883635 L20.3967928,9.83408717 C19.8046875,9.26665296 19.1755757,8.86574836 18.5094572,8.63137336 C17.8433388,8.39699836 16.9089227,8.27981086 15.7062089,8.27981086 C14.818051,8.27981086 14.0285773,8.41241776 13.3377878,8.67763158 C12.6469984,8.94284539 12.0934416,9.35608553 11.6771176,9.91735197 C11.2607936,10.4786184 11.0526316,11.1539885 11.0526316,11.9434622 C11.0526316,12.9179688 11.302426,13.6904811 11.8020148,14.2609992 C12.3016036,14.8315173 13.1064967,15.3264803 14.2166941,15.7458882 C14.3039239,15.7776081 14.4129611,15.8155587 14.5438058,15.85974 L14.8345718,15.9564103 C14.941186,15.9914029 15.0574924,16.0291647 15.183491,16.0696957 C15.624486,16.2115543 15.9375,16.3133224 16.1225329,16.375 C16.5542763,16.5291941 16.8981291,16.6756785 17.1540913,16.8144531 C17.4100535,16.9532278 17.6027961,17.104338 17.7323191,17.2677837 C17.8618421,17.4312294 17.9451069,17.5885074 17.9821135,17.7396176 C18.0191201,17.8907278 18.0376234,18.0896382 18.0376234,18.3363487 C18.0376234,18.9654605 17.838713,19.4342105 17.4408923,19.7425987 C17.0430715,20.0509868 16.4278372,20.2051809 15.5951891,20.2051809 C15.0647615,20.2051809 14.4495271,20.0879934 13.749486,19.8536184 C13.0494449,19.6192434 12.4804688,19.3324424 12.0425576,18.9932155 L12.0425576,18.9932155 L11.0433799,20.6770148 C11.536801,21.1581003 12.2121711,21.5343339 13.0694901,21.8057155 C13.9268092,22.077097 14.818051,22.2127878 15.7432155,22.2127878 Z" id="S" fill="#FFFFFF" fill-rule="nonzero"></path>
                </g>
                <g id="26" transform="translate(184.000000, 0.000000)" fill="#000000">
                    <path d="M10.801609,8.49549194 C10.8459065,8.54979588 10.8655071,8.57387281 10.8954308,8.61024991 C10.7013843,8.6533005 10.5113886,8.69543513 10.3190408,8.73822402 C10.3477885,8.7713298 10.3692185,8.79606099 10.3965288,8.82733483 C10.2036583,8.86803007 10.0181054,8.90715508 9.82340561,8.94811203 C9.84810243,8.97820819 9.86796443,9.00228512 9.89004783,9.02910996 C9.77910812,9.06522535 9.66934445,9.110893 9.5550073,9.13483908 C9.47529797,9.15145739 9.38918575,9.13510078 9.30634032,9.13876466 C9.21813737,9.14269025 9.27328054,9.26399086 9.16221016,9.29657323 C9.05636662,9.32745451 8.94581893,9.34289515 8.81188112,9.35624214 C8.84951437,9.40413429 8.86767765,9.42755695 8.89864668,9.46720538 C8.70394684,9.51038682 8.51473518,9.5523906 8.32317144,9.59491778 C8.3508737,9.62579906 8.37347979,9.6506611 8.39569386,9.6753923 C8.15983264,9.73663144 7.92449411,9.79787059 7.67373639,9.86316617 C7.71019361,9.90674018 7.73044762,9.93107881 7.75109364,9.95567915 C7.51627779,10.0200588 7.27976322,10.0848309 7.03253362,10.1527436 C7.07291097,10.2033836 7.0917276,10.227068 7.10662409,10.2456491 C6.86605872,10.3104213 6.63137353,10.3736232 6.3870187,10.4393114 C6.42635068,10.4826237 6.4488261,10.5074857 6.47051749,10.5314318 C6.23439493,10.5931943 5.99918706,10.6549569 5.7490827,10.7205142 C5.78580126,10.7638265 5.80657795,10.7881651 5.8307521,10.8166911 C5.59763497,10.8764908 5.36451784,10.9361597 5.1219924,10.9984457 C5.14668922,11.0485623 5.16276176,11.0811447 5.18954932,11.1357104 C4.98949197,11.1404211 4.78760521,11.1052216 4.62648783,11.2447108 C4.64582714,11.2660398 4.66830256,11.2910327 4.69509012,11.3207363 C4.50640114,11.3514867 4.3198029,11.3822372 4.11909219,11.4150812 C4.14914653,11.4767129 4.16495773,11.5094262 4.19409737,11.5693568 C3.90309297,11.5336339 3.64802311,11.6053413 3.4116392,11.743522 C3.43359194,11.7685149 3.455414,11.793246 3.48664438,11.8284455 C3.44443763,11.8369509 3.40771907,11.8569714 3.38080084,11.8479426 C3.22843841,11.7962557 3.1125332,11.8236039 2.98042478,11.9467365 C2.96605097,11.9600835 2.93403657,11.962308 2.91273719,11.9579898 C2.8811148,11.9513163 2.8404761,11.9149392 2.82309686,11.924884 C2.74377954,11.9710751 2.66446222,12.0375484 2.57456055,11.9735613 C2.48126143,11.9072189 2.43944669,11.7885353 2.34327281,11.7176131 C2.32158142,11.701649 2.34000604,11.6308576 2.34000604,11.598537 C2.23089572,11.5569258 2.13864197,11.5217263 2,11.4688618 C2.2183513,11.3826297 2.38456486,11.3170724 2.56920303,11.2443182 C2.44807098,11.1811163 2.37881533,11.2220733 2.29348715,11.2725825 C2.23468518,11.3072585 2.13916465,11.2791251 2.06520485,11.2791251 C2.02809427,11.0770883 2.18777428,11.0636104 2.27401716,11.0322057 C2.85432723,10.8211401 3.39922546,10.533918 3.95248662,10.266193 C4.54703984,9.97844755 5.11754958,9.63888434 5.72007373,9.3705051 C6.12227918,9.19123667 6.50958813,8.98134866 6.914407,8.8126793 C7.3709716,8.62255008 7.80754353,8.38753832 8.26998833,8.21428911 C8.56870232,8.10227906 8.84546357,7.9447322 9.14731366,7.83533919 C9.43374458,7.73157287 9.72082884,7.6104031 9.9975901,7.48229814 C10.2972188,7.34346324 10.6006369,7.21496572 10.9066685,7.09458108 C11.4786156,6.86951414 12.0467733,6.63489494 12.6215952,6.41597808 C12.9994958,6.27217077 13.373999,6.11096003 13.7498089,5.95773132 C14.2987579,5.7339729 14.8581606,5.53834786 15.4047576,5.30673827 C15.8793548,5.10561741 16.3804782,4.96796018 16.861609,4.78044802 C17.261201,4.62486395 17.6668039,4.48773014 18.0692707,4.34104407 C18.7918815,4.07737553 19.5143617,3.81318358 20.2401086,3.55815133 C20.7062122,3.39445438 21.1796333,3.2472449 21.6397261,3.06758391 C22.3274477,2.79920466 23.0371221,2.59756039 23.7296786,2.3478931 C24.1436445,2.19845912 24.5569569,2.05072623 24.9766723,1.91777971 C25.4900788,1.75539129 25.9896342,1.54759693 26.5060461,1.39646186 C27.2780506,1.1703481 28.0341132,0.898304974 28.7967094,0.645104665 C29.3704859,0.454713734 29.9536707,0.292325319 30.5032731,0.0332366298 C30.5789316,-0.00235535172 30.6765429,0.009290554 30.7561216,0 C30.8431485,0.221664767 30.5510987,0.16395865 30.5642965,0.347152673 C30.6255812,0.324907684 30.6756282,0.298606257 30.7286807,0.289708261 C30.7846079,0.280286854 30.8432792,0.287614615 30.938277,0.287614615 C30.9074386,0.368219985 30.8864006,0.423439898 30.8652319,0.479052369 C30.9168469,0.513335822 31.0111914,0.505615502 30.9989084,0.62757038 C30.9928975,0.688547819 30.8571303,0.752404021 30.9888467,0.819008133 C30.9829665,0.82751357 30.9789157,0.83889777 30.9709448,0.843870179 C30.9141029,0.878415338 30.8589597,0.917147788 30.7987203,0.944234333 C30.4883766,1.0839852 30.1857425,1.24899067 29.8633771,1.35118677 C29.422101,1.49119934 29.0002949,1.67936577 28.5635923,1.82814549 C27.9077543,2.05151135 27.2511324,2.272391 26.5973852,2.50151438 C26.1828966,2.64676107 25.7728509,2.80470048 25.3584931,2.95779835 C25.3856727,2.98789451 25.4081481,3.01301826 25.4306235,3.03814201 C25.4217379,3.04690915 25.4140283,3.06143382 25.4047506,3.06248064 C25.3882861,3.06444344 24.9211371,3.1334029 24.8906908,3.14243175 C24.7137622,3.19464205 24.5365723,3.24659064 24.3502354,3.30128714 C24.3898287,3.34787076 24.4106054,3.37234025 24.4630045,3.4338411 C24.3839485,3.41957814 24.3439632,3.4155217 24.3060686,3.40453005 C24.2643845,3.39249159 24.2162976,3.35101123 24.1854592,3.36226458 C23.9816124,3.43593474 23.7816857,3.52033485 23.5792763,3.60198704 C23.6061945,3.63391514 23.6267098,3.65812292 23.6795009,3.72080145 C23.5992689,3.70536081 23.5594143,3.70051925 23.521389,3.68952761 C23.4798356,3.67762 23.4318793,3.63692476 23.4009103,3.6481781 C23.1973248,3.72184827 22.9976595,3.80598667 22.7953807,3.8872463 C22.8224296,3.91969782 22.8428143,3.94403645 22.8959974,4.00763095 C22.8144587,3.99101263 22.7748654,3.98564766 22.7368401,3.97452517 C22.6954174,3.96248671 22.6473304,3.92296914 22.6162307,3.93422249 C22.4130373,4.00763095 22.2136333,4.09163849 22.0114852,4.17276727 C22.0387954,4.2057422 22.0587881,4.22981913 22.1126245,4.2945913 C22.0296484,4.27692616 21.9814308,4.28006663 21.9541206,4.25769079 C21.9035509,4.21634128 21.8716672,4.21084546 21.8035875,4.2376703 C21.4256869,4.38671172 21.0426901,4.522537 20.6542051,4.66542834 C20.6825607,4.69801071 20.7041214,4.72261105 20.7268582,4.74865077 C20.6353885,4.8823824 20.5179152,4.60144129 20.402402,4.77338196 C20.3561445,4.84221057 20.1986859,4.83592963 20.0772925,4.86772688 C20.1117896,4.90986151 20.131521,4.93380758 20.1504683,4.95696854 C20.1380545,4.96992298 20.1260328,4.98667214 20.1099602,4.99700952 C20.1035574,5.00119681 19.7894242,4.99413076 19.7779251,4.99831805 C19.4994652,5.10025244 19.2211359,5.20205597 18.937449,5.30595315 C18.9709008,5.34324622 18.9933762,5.36836998 19.016505,5.39401714 C18.7419652,5.3966342 18.618873,5.42280477 18.378961,5.52997327 C18.4019591,5.55548958 18.4243039,5.58048248 18.4466486,5.60508282 C18.4292694,5.61646702 18.4084927,5.64159077 18.3929428,5.63871201 C18.0210531,5.56909828 17.7232538,5.80384834 17.3889973,5.88693991 C17.2128527,5.93077562 17.0500366,6.02839187 16.8808176,6.10180033 C16.9064291,6.13202734 16.9269445,6.15636598 16.9486359,6.18201314 C16.9230243,6.19352819 16.9001569,6.21407209 16.8833003,6.2098848 C16.6066698,6.14197216 16.355912,6.26785263 16.1310272,6.37318919 C15.8410682,6.50914532 15.516612,6.55716833 15.2505658,6.7496529 C15.2654622,6.76718719 15.2865003,6.79165668 15.3280537,6.84020309 L14.8325491,6.84020309 C14.8211807,6.89581556 14.8145165,6.92839793 14.8061536,6.96974744 C14.718996,7.07717765 14.5,6.88299198 14.4404053,7.13959447 C14.3729791,7.13959447 14.2935311,7.13436035 14.2151285,7.14168811 C14.1757965,7.14548285 14.1068022,7.17047575 14.1058875,7.18879515 C14.1019673,7.26874625 14.0648568,7.27685913 13.9954704,7.28601883 C13.8994272,7.29844986 13.7475875,7.20318896 13.7264188,7.40247789 C13.7252427,7.41320782 13.6655261,7.41948876 13.632597,7.42459202 C13.5323723,7.44029437 13.3879808,7.36165179 13.3698175,7.54981822 C13.2664567,7.55884707 13.1630959,7.56774507 13.0628713,7.57638136 C13.034777,7.62139475 13.0142616,7.69571918 12.9776737,7.70461717 C12.8888174,7.7264696 12.7923822,7.71835673 12.6990831,7.72215146 C12.6771304,7.91816906 12.5118315,7.83128275 12.4168337,7.85627565 C12.4049426,7.87747382 12.3942276,7.8880729 12.396449,7.89383043 C12.4003691,7.9039061 12.4131749,7.91031789 12.4202311,7.91987015 C12.4319915,7.93570335 12.4419225,7.95271422 12.4696248,7.9952414 L12.0133215,7.9952414 C12.0573576,8.0496762 12.076697,8.07336057 12.0968203,8.09835347 C12.0410238,8.22384137 11.8736342,8.04993791 11.8167923,8.20526027 C11.760081,8.36005922 11.6166042,8.25001195 11.5175556,8.28154749 C11.4123654,8.31517668 11.3074366,8.34972184 11.1869579,8.38884685 C11.1929687,8.3775935 11.1829071,8.38832344 11.1852591,8.39395011 C11.1893099,8.40402578 11.201985,8.41043757 11.2089106,8.41985898 C11.2204097,8.43556132 11.23021,8.45270305 11.2573896,8.49549194 L10.801609,8.49549194 Z" id="Fill-339"></path>
                    <path d="M25.6566352,19.2905752 C26.9234686,19.4716969 26.7164596,19.3361493 26.6826464,19.4254181 C26.773116,19.455605 26.8644891,19.4860269 27,19.5312486 C26.8944306,19.5982002 26.8278366,19.6404854 26.7604683,19.683123 C26.7755681,19.6988625 26.7967336,19.7209447 26.8180282,19.7431445 C26.8024122,19.7534809 26.7846022,19.7756806 26.7687281,19.7746235 C26.3762627,19.7481952 25.9968321,19.8703525 25.6011403,19.8456861 C25.2042869,19.8210198 24.7996901,19.8071596 24.4067084,19.8506194 C24.0866446,19.8858571 23.76942,19.8967808 23.4496143,19.9073521 C23.351014,19.9105235 23.2704818,19.8348799 23.1505869,19.8953713 C23.0608916,19.9407104 22.9215089,19.9044156 22.8040661,19.9044156 L22.4171502,19.9044156 C22.2998365,19.9044156 22.1826518,19.9040632 22.0653381,19.904533 C21.9485406,19.904768 21.8316141,19.9055902 21.7148166,19.9080568 C21.7062987,19.9081743 21.6981681,19.9221519 21.6684848,19.9491674 C21.7785712,19.9620879 21.871493,19.9728941 21.9645438,19.9835829 C21.9640276,19.9972081 21.9635114,20.0107159 21.9631242,20.0242237 C21.8407772,20.0270427 21.7184302,20.0309189 21.5962123,20.0320934 C21.4671543,20.0335029 21.3382253,20.0329157 21.2091673,20.031976 C21.1872275,20.0318585 21.1545758,20.0329157 21.1450255,20.0212872 C21.0151931,19.8626002 20.8688414,19.8822159 20.6959036,19.9634974 C20.6309875,19.9939193 20.5344521,19.9684307 20.4523712,19.9684307 C19.3499577,19.9684307 18.2475442,19.9667863 17.1452598,19.9707799 C17.0252358,19.9712497 16.8866275,19.9174535 16.7864785,20.0318585 C16.7818324,20.0369093 16.7579567,20.0370267 16.7530525,20.0318585 C16.654065,19.9259106 16.5412683,20.0840103 16.4625429,20.0279824 C16.3608452,19.9557451 16.2924445,19.9683132 16.1966835,20.0275125 C16.1675163,20.0457187 16.091114,20.0131826 16.0434916,19.9911003 C15.9768977,19.9600911 15.9811566,19.9172186 16.0428463,19.8796318 C16.0307149,19.8664764 16.0209065,19.8460385 16.0059357,19.8420449 C15.9855446,19.8367592 15.948763,19.8367592 15.9411486,19.8475655 C15.9180472,19.880219 15.9150789,19.9276725 15.8868152,19.953396 C15.8492593,19.987694 15.7954421,20.0272776 15.7482069,20.0278649 C15.6669003,20.0288046 15.5667513,19.9672561 15.5079009,19.9935669 C15.4133014,20.0359696 15.3539347,20.0306839 15.2602386,19.9959161 C15.1963549,19.9723068 15.1017553,20.0292744 15.0204488,20.030449 C14.6930286,20.0353823 14.3654794,20.0324458 14.0456737,20.0324458 C14.0134092,19.9847575 13.9861779,19.9444691 13.9589467,19.9044156 C13.915067,19.9383612 13.8713163,19.9724243 13.7893645,20.0359696 C13.6524339,20.0674486 13.4149672,19.9486976 13.2719709,20.1650569 C13.229898,20.1228892 13.1909225,20.0837754 13.1562059,20.0490075 C12.8779569,20.1198353 12.6087419,20.1300542 12.339914,20.046306 C12.0619231,20.1630601 11.7738656,20.0613407 11.4929063,20.1013942 C11.4989721,20.0424298 11.5136847,19.9755957 11.5049087,19.9730116 C11.3954676,19.9395358 11.4130194,20.030449 11.3823036,20.0914102 L11.0095841,20.0914102 C10.9907416,20.1380414 10.9757709,20.175041 10.9600258,20.2142722 C10.9436355,20.2068723 10.9209213,20.2033486 10.9124034,20.1913677 C10.8455514,20.0985752 10.7313351,20.0605185 10.6411235,20.1019815 C10.4298556,20.1993549 10.2125219,20.1477905 9.99867276,20.1587142 C9.81450699,20.1681109 9.62930875,20.1605935 9.44101312,20.2069898 C9.55380982,20.2173262 9.66660651,20.22778 9.77940321,20.2379989 C9.52154532,20.2585542 9.24742611,20.3909305 9.0544844,20.1783298 C8.91923161,20.1960661 8.811081,20.2209674 8.70241416,20.2227293 C8.36492748,20.2280149 8.02718268,20.2246086 7.69666513,20.2246086 C7.67588679,20.2791096 7.66156135,20.3162266 7.64052489,20.3717846 C7.58361031,20.2937919 7.53727849,20.2302466 7.49094667,20.1667014 C7.46707093,20.2545606 7.41157599,20.3457088 7.31091075,20.2827508 C7.20443789,20.2161516 7.14352252,20.2618431 7.04608372,20.2795794 C6.86798367,20.3118806 6.67762312,20.2887412 6.48700444,20.3302042 C6.57437671,20.3426548 6.66174898,20.3551055 6.75363828,20.3683783 C6.73905473,20.3891686 6.72950444,20.4150095 6.71969603,20.415127 C6.46170907,20.4173587 6.20294777,20.4278126 5.94573517,20.4133651 C5.7560199,20.4026763 5.57288659,20.3253884 5.37671843,20.3531087 C5.3448411,20.3576896 5.31360906,20.3660292 5.28160268,20.4022065 C5.37568596,20.4112508 5.46976925,20.4201777 5.56398159,20.4291046 C5.26972934,20.4567075 4.98154281,20.5297669 4.68496752,20.4296919 C4.55371553,20.3854099 4.38955375,20.422292 4.23119957,20.4563551 C4.29585763,20.4708025 4.36064475,20.48525 4.4274968,20.5001673 C4.41601064,20.5169639 4.40684752,20.5430398 4.39703911,20.5431572 C4.28011256,20.5453889 4.163186,20.5436271 4.04625945,20.5429223 C3.9834082,20.4078445 3.88945398,20.6084644 3.79395105,20.5196654 C3.73174509,20.4619931 3.60229991,20.5976582 3.47659742,20.492415 C3.40806762,20.4353299 3.23474272,20.4823135 3.10374884,20.5237765 C3.1942185,20.5365795 3.28468816,20.5496175 3.38083638,20.5632427 C3.36031616,20.5836805 3.34792659,20.6072898 3.33489173,20.6075247 C3.15911473,20.6098739 2.98282149,20.6021216 2.8073026,20.6105786 C2.46491172,20.6269054 2.11748757,20.6256134 1.78309828,20.6836381 C1.60280424,20.7148822 1.42599478,20.7213424 1.24763661,20.7410755 C1.09457382,20.7578721 0.945382765,20.80697 0.885628908,20.991263 C0.824584472,20.991263 0.688944509,21.0132278 0.676942114,20.9875043 C0.624673622,20.8749787 0.465803218,20.8632328 0.430183208,20.7664466 C0.396628127,20.6749461 0.341391301,20.646756 0.258148888,20.6042359 C0.0902444232,20.5183734 0.0541081817,20.3541658 0.139028349,20.1940693 C0.0928255833,20.1494349 0.0459775274,20.1044481 0.000290993635,20.0602836 C0.00235592172,20.0371442 -0.00487132657,20.0093064 0.00726012591,19.9969732 C0.138770233,19.8611907 0.292865491,19.791655 0.502971923,19.7679283 C0.847169623,19.7290494 1.18362384,19.6330855 1.53633937,19.6481202 C1.73844421,19.5358295 1.96235984,19.6038382 2.17556367,19.5829305 C2.34230661,19.5667212 2.5073718,19.5331279 2.67437286,19.5223217 C2.83763123,19.5116329 3.01960302,19.5602609 3.16272835,19.5103409 C3.36870493,19.438691 3.57055165,19.4477353 3.77033344,19.4615954 C4.02715887,19.4794492 4.26385125,19.3851297 4.51564342,19.3906503 C4.77350131,19.3960534 5.04232914,19.4342275 5.28741029,19.3827805 C5.76040788,19.2834103 6.2363738,19.3823107 6.70201508,19.321232 C7.27929154,19.245471 7.86211749,19.3191178 8.43139235,19.252636 C9.19812596,19.1628974 9.96189123,19.2310236 10.7259146,19.2000144 C10.8194817,19.1962557 10.9134359,19.2004843 11.0072611,19.1993097 C11.0862446,19.19837 11.1729715,19.218338 11.2257563,19.1383485 C11.2675711,19.2394806 11.3582988,19.128247 11.4314747,19.1769925 C11.4762579,19.206827 11.587764,19.1450436 11.6708773,19.1374088 C11.7637991,19.1290692 11.8582696,19.1355295 11.9520947,19.1355295 L12.1983374,19.1355295 L12.4798129,19.1355295 L12.7612884,19.1355295 L13.0075311,19.1355295 C13.1013563,19.1355295 13.1958267,19.1293041 13.2888775,19.1370564 C13.398835,19.1463357 13.5076309,19.112625 13.6215891,19.1835702 C13.6764387,19.2177507 13.803948,19.1405802 13.8991928,19.1381136 C14.1921545,19.1309486 14.4856324,19.1401104 14.7785941,19.1330628 C14.8876481,19.1305962 15.0102532,19.1795766 15.103304,19.0728064 C15.1642194,19.0026834 15.2097769,19.1951986 15.3020534,19.0903078 C15.3310914,19.0571844 15.4773141,19.0516638 15.4929302,19.075508 C15.581593,19.2099984 15.6818711,19.0058548 15.7493684,19.0886634 C15.8451294,19.2058874 15.9046252,19.0679906 15.9818019,19.072454 C16.0254235,19.0749207 16.0685289,19.0872538 16.1118923,19.0948887 C16.1877785,19.1085139 16.3083186,19.1556149 16.3319362,19.1296565 C16.4282135,19.0237086 16.5407521,19.1275423 16.6463215,19.0869015 C16.7556337,19.0446163 16.8982428,19.0717493 17.0262683,19.0717493 C19.3246623,19.0713969 21.6233145,19.0745683 23.9218375,19.0677557 C24.2283503,19.066816 24.5448005,19.1368215 24.8425373,19.0073818 C24.9990847,19.129774 25.1536962,18.993874 25.3123085,19.0002168 C25.8036323,19.0198324 26.2963758,19.0073818 26.8224162,19.0073818 C26.8047352,19.0573018 26.7940234,19.1290692 26.7762134,19.1305962 C26.5279058,19.151269 26.2873417,19.2132873 26.0316778,19.2047128 C25.5163492,19.1875638 24.999859,19.1993097 24.4838851,19.2008366 C24.4653008,19.2009541 24.4467164,19.2208046 24.428003,19.2314934 C24.4514916,19.2421822 24.4736896,19.2572169 24.4984687,19.2628549 C24.5605456,19.2768326 24.6174602,19.3477777 24.690507,19.2668485 C24.7093495,19.2458234 24.7800733,19.2636772 24.8269213,19.2636772 C25.5061536,19.2636772 26.1852568,19.2636772 25.6566352,19.2905752 C24.4311004,19.3063147 24.432391,19.2949212 24.4336816,19.2836452 C24.3247566,19.256982 24.2172513,19.2219792 24.1062614,19.206827 C24.047411,19.1988398 23.6750786,19.2105857 23.6216486,19.2037731 C23.5760911,19.1979002 23.5057545,19.1823956 23.4865249,19.202716 C23.3908929,19.3032608 23.2691912,19.2616804 23.15975,19.2619153 C21.4937402,19.2643819 19.8277304,19.2646168 18.1618497,19.2609756 C18.0640237,19.2608581 17.9525176,19.3080766 17.8637257,19.2195126 C17.8468191,19.2025985 17.7855166,19.1943764 17.773256,19.2062397 C17.6665251,19.3113655 17.5314013,19.2505218 17.4103449,19.2621502 C17.1624245,19.2858769 16.9088255,19.2235062 16.6625829,19.3217019 C16.5930206,19.3494222 16.4869349,19.3094861 16.3999498,19.2917498 C16.2324325,19.2575693 16.0662058,19.2330204 15.9029474,19.3030259 C15.8459038,19.3274574 15.7754381,19.2358394 15.728461,19.3225241 C15.6383785,19.2193951 15.4872516,19.2360743 15.4090424,19.2734262 C15.2785648,19.3359144 15.1842234,19.2175158 15.074266,19.2633248 C15.0546492,19.2714294 15.0250949,19.2688453 15.0129634,19.2815309 C14.9551454,19.3417873 14.9135888,19.3280446 14.8379608,19.2906927 C14.7646558,19.2545154 14.6497942,19.2442964 14.5722303,19.2701374 C14.4716942,19.3037306 14.3499925,19.3295716 14.2726867,19.3152416 C14.1525337,19.2930419 14.050836,19.3231114 13.9411367,19.3268701 C13.0827719,19.35553 12.224149,19.2879912 11.3646227,19.3840726 C10.7230753,19.4557225 10.072623,19.3584665 9.42204159,19.4446814 C8.83031064,19.522909 8.22373802,19.424361 7.62116619,19.5105758 C7.14610368,19.5785845 6.65542514,19.4821508 6.1718448,19.5765877 C5.94754198,19.6203999 5.70310612,19.5705973 5.47002736,19.5878638 C5.25617825,19.6038382 5.0473624,19.5589689 4.82267241,19.6296792 C4.61321127,19.6955736 4.35999946,19.6456536 4.12614636,19.6489424 C4.09001012,19.6495297 4.05400293,19.661628 4.01799575,19.6684406 C4.06574721,19.7121353 4.10936882,19.7133099 4.15286136,19.7119004 C4.56597604,19.6988625 4.97689673,19.7164813 5.3924635,19.6581042 C5.89153081,19.5880987 6.40247145,19.67725 6.91237963,19.5942066 C7.38550628,19.5171535 7.88263771,19.6523487 8.35899081,19.5186805 C8.42597191,19.4998871 8.48301555,19.64166 8.54922231,19.5239661 C8.62549559,19.6294442 8.69686466,19.5173884 8.77055679,19.5159789 C9.34783324,19.5050552 9.92820709,19.5686005 10.501999,19.4583066 C10.5789176,19.4435068 10.6940373,19.4314085 10.7380461,19.4693477 C10.8378079,19.5553277 10.8865918,19.4210721 10.9731898,19.4507892 C11.0450751,19.4754556 11.1352866,19.45584 11.2173675,19.45584 C11.6867515,19.45584 12.1561354,19.4593637 12.6252613,19.4534908 C12.7459305,19.4519638 12.880409,19.5020013 12.9886886,19.39852 C13.0008201,19.387009 13.0641876,19.4244784 13.105228,19.4327005 C13.1596905,19.4436242 13.2483533,19.4711096 13.2648728,19.4513765 C13.3303052,19.3735012 13.3690226,19.44151 13.4249047,19.4494972 C13.4805287,19.4573669 13.5451867,19.3958184 13.605844,19.3958184 C13.703799,19.3958184 13.8182735,19.3513015 13.8964826,19.4492623 C13.9644962,19.3759679 14.0580633,19.3917074 14.1459518,19.3924121 C14.2351308,19.3931169 14.3343764,19.3659839 14.397873,19.4547828 C14.4611114,19.3638696 14.5619057,19.392882 14.6506976,19.3926471 C15.2373953,19.3910026 15.8242221,19.404158 16.4104035,19.3883011 C16.9872928,19.3725616 17.5693444,19.4612431 18.1413295,19.3276923 C18.2117951,19.3892407 18.3032973,19.3561173 18.3822808,19.3618728 C18.4842366,19.3695076 18.5894189,19.3307462 18.6933106,19.3303938 C18.8135926,19.3300414 18.9451027,19.2925721 19.0488654,19.3861868 C19.163727,19.2716644 19.3134343,19.3313335 19.4445572,19.3308637 C20.9931242,19.3260478 22.5418203,19.3279272 24.0905163,19.3272224 C24.2035711,19.3272224 24.316755,19.3209971 25.6566352,19.2905752" id="Fill-341"></path>
                    <path d="M10.4060726,13.6462214 C10.3467711,13.7569186 10.3216964,13.8040181 10.2890994,13.8649548 L10.6159475,13.8649548 C10.6185803,13.8545769 10.6212132,13.844199 10.6237206,13.8339542 C10.5920012,13.825173 10.5605325,13.8147951 10.5285623,13.8078765 C10.4974697,13.801091 10.466001,13.7980309 10.4267592,13.7921767 C10.4318995,13.7486695 10.426007,13.6951836 10.4411771,13.6874667 C10.5165265,13.6482171 10.5951355,13.6072379 10.6766281,13.5924694 C10.8594224,13.5593401 11.0451002,13.5444385 11.2286467,13.5158329 C11.3199184,13.5014635 11.4091842,13.4728579 11.495441,13.451703 C11.5969933,13.6114955 11.4009095,13.5582757 11.3912558,13.6442257 C11.6280859,13.7348324 11.8318175,13.5246142 12.061752,13.5633316 C11.9091728,13.5223523 11.757095,13.465141 11.5825754,13.5614689 C11.6033874,13.5224854 11.6152978,13.4660724 11.6466411,13.4482437 C11.7107069,13.4116551 11.7841756,13.3911655 11.8558891,13.3730708 C11.9731131,13.3436668 12.1024983,13.4241618 12.2138298,13.3261043 C12.3008389,13.2496009 12.4250838,13.3407398 12.5251316,13.2360298 C12.5754063,13.1833422 12.7148214,13.2268494 12.8260275,13.2268494 C12.7346304,13.4289516 12.5835556,13.3489888 12.4613166,13.3742682 C12.3511135,13.3970197 12.2442955,13.4391964 12.1428685,13.5149015 C12.3907315,13.4914848 12.6453646,13.497206 12.8848276,13.4361362 C13.1122547,13.3779936 13.333037,13.2889835 13.5717477,13.2413518 C13.411646,13.2320383 13.2512936,13.2227249 13.091192,13.2134114 L13.091192,13.1695051 C13.4284461,13.112959 13.7659509,13.056413 14.103205,13 C14.1070916,13.018893 14.1107274,13.0379191 14.1144886,13.0568121 C13.956769,13.1004524 13.7990494,13.1442257 13.6415806,13.1878659 C13.7883927,13.206892 13.9370854,13.2927089 14.0754975,13.1637839 C14.3831635,13.177355 14.6797967,13.0074508 15,13.1040447 L15,13.3449973 C14.9438328,13.3718733 14.8822745,13.2836615 14.8220953,13.368281 C14.7935102,13.4083289 14.6886982,13.3241086 14.6624952,13.4390633 C14.6554743,13.4701969 14.5940414,13.5192922 14.5840115,13.5129058 C14.4173904,13.4083289 14.2545305,13.5381852 14.091796,13.5153007 C14.0410199,13.508116 13.9930019,13.4792443 13.9333242,13.4563598 C13.9240466,13.5086482 13.9122615,13.5742416 13.900351,13.6401011 C13.8041897,13.5548164 13.6817001,13.7402874 13.5935627,13.5964609 C13.5762611,13.647818 13.5622193,13.6897286 13.5430372,13.7466738 C13.4201714,13.7005056 13.3049534,13.6077701 13.1647861,13.6913252 C13.1840936,13.7166046 13.2026488,13.7409526 13.2489115,13.8017563 C13.0366546,13.7716871 12.8529827,13.7458755 12.6631676,13.7191325 C12.5801705,13.8072113 12.5028152,13.8890367 12.4423853,13.9531666 C12.334815,13.9518361 12.2899314,13.8181213 12.179979,13.9280202 C12.0940983,14.0139702 11.9561877,14.0532198 11.8348264,14.0830229 C11.7569696,14.102182 11.6646949,14.0759713 11.5835784,14.0522885 C11.526032,14.0353912 11.4795186,14.1016498 11.4047961,14.0340607 C11.3265632,13.9634114 11.3353393,14.1114955 11.2949691,14.150612 C11.2572318,14.1869345 11.2013153,14.2289782 11.1563063,14.2255189 C10.9757688,14.2111495 10.8057626,14.3122672 10.6252251,14.2720862 C10.6159475,14.2699574 10.6089266,14.2558542 10.6010281,14.247339 C10.4077025,14.4582225 10.1221022,14.3658861 9.90997059,14.4795104 C9.73281816,14.5743747 9.52820899,14.4514369 9.37751031,14.6056413 C8.88730083,14.7172698 8.38580775,14.7776743 7.91289977,14.9684673 C7.62203378,14.9318787 7.37254097,15.1117616 7.09070186,15.1460883 C6.83030158,15.1780202 6.5586177,15.2458755 6.31652192,15.3443321 C5.87834234,15.5223523 5.39878958,15.5388505 4.97828763,15.7667642 C4.82558299,15.7315061 4.73192915,15.8250399 4.62699173,15.9234965 C4.5689439,15.9779138 4.46676469,15.9791112 4.39831088,16 C4.25062117,15.8769292 4.16499122,15.71248 4,15.6555349 C4.0290866,15.5356573 4.05829857,15.4145822 4.09302697,15.2707557 C4.47127812,15.1399681 4.86156511,14.9652741 5.28457453,14.8907664 C5.48040758,14.8561735 5.66332718,14.7421501 5.85890948,14.7052954 C6.102259,14.6593933 6.33846224,14.5749069 6.58005653,14.5415114 C6.83832547,14.5055881 7.08167499,14.4161788 7.33204541,14.3565726 C7.48650528,14.3197179 7.64836217,14.279537 7.80031457,14.2557211 C8.0577059,14.2155402 8.2969181,14.1052422 8.55656614,14.0796966 C8.71278124,14.064396 8.86335453,13.9926823 9.0183159,13.9539649 C9.12400556,13.927355 9.24135494,13.9978712 9.34228043,13.9067323 C9.42803574,13.8291644 9.57321799,13.9427887 9.64480613,13.8073443 C9.83587499,13.8431346 10.0135289,13.7618414 10.1970754,13.7329697 C10.2448426,13.7255189 10.2893501,13.6957158 10.4060726,13.6462214" id="Fill-343"></path>
                </g>
                <g id="26" transform="translate(17.500000, 42.500000) scale(-1, 1) rotate(13.000000) translate(-17.500000, -42.500000) translate(2.000000, 32.000000)" fill="#000000">
                    <path d="M10.801609,8.49549194 C10.8459065,8.54979588 10.8655071,8.57387281 10.8954308,8.61024991 C10.7013843,8.6533005 10.5113886,8.69543513 10.3190408,8.73822402 C10.3477885,8.7713298 10.3692185,8.79606099 10.3965288,8.82733483 C10.2036583,8.86803007 10.0181054,8.90715508 9.82340561,8.94811203 C9.84810243,8.97820819 9.86796443,9.00228512 9.89004783,9.02910996 C9.77910812,9.06522535 9.66934445,9.110893 9.5550073,9.13483908 C9.47529797,9.15145739 9.38918575,9.13510078 9.30634032,9.13876466 C9.21813737,9.14269025 9.27328054,9.26399086 9.16221016,9.29657323 C9.05636662,9.32745451 8.94581893,9.34289515 8.81188112,9.35624214 C8.84951437,9.40413429 8.86767765,9.42755695 8.89864668,9.46720538 C8.70394684,9.51038682 8.51473518,9.5523906 8.32317144,9.59491778 C8.3508737,9.62579906 8.37347979,9.6506611 8.39569386,9.6753923 C8.15983264,9.73663144 7.92449411,9.79787059 7.67373639,9.86316617 C7.71019361,9.90674018 7.73044762,9.93107881 7.75109364,9.95567915 C7.51627779,10.0200588 7.27976322,10.0848309 7.03253362,10.1527436 C7.07291097,10.2033836 7.0917276,10.227068 7.10662409,10.2456491 C6.86605872,10.3104213 6.63137353,10.3736232 6.3870187,10.4393114 C6.42635068,10.4826237 6.4488261,10.5074857 6.47051749,10.5314318 C6.23439493,10.5931943 5.99918706,10.6549569 5.7490827,10.7205142 C5.78580126,10.7638265 5.80657795,10.7881651 5.8307521,10.8166911 C5.59763497,10.8764908 5.36451784,10.9361597 5.1219924,10.9984457 C5.14668922,11.0485623 5.16276176,11.0811447 5.18954932,11.1357104 C4.98949197,11.1404211 4.78760521,11.1052216 4.62648783,11.2447108 C4.64582714,11.2660398 4.66830256,11.2910327 4.69509012,11.3207363 C4.50640114,11.3514867 4.3198029,11.3822372 4.11909219,11.4150812 C4.14914653,11.4767129 4.16495773,11.5094262 4.19409737,11.5693568 C3.90309297,11.5336339 3.64802311,11.6053413 3.4116392,11.743522 C3.43359194,11.7685149 3.455414,11.793246 3.48664438,11.8284455 C3.44443763,11.8369509 3.40771907,11.8569714 3.38080084,11.8479426 C3.22843841,11.7962557 3.1125332,11.8236039 2.98042478,11.9467365 C2.96605097,11.9600835 2.93403657,11.962308 2.91273719,11.9579898 C2.8811148,11.9513163 2.8404761,11.9149392 2.82309686,11.924884 C2.74377954,11.9710751 2.66446222,12.0375484 2.57456055,11.9735613 C2.48126143,11.9072189 2.43944669,11.7885353 2.34327281,11.7176131 C2.32158142,11.701649 2.34000604,11.6308576 2.34000604,11.598537 C2.23089572,11.5569258 2.13864197,11.5217263 2,11.4688618 C2.2183513,11.3826297 2.38456486,11.3170724 2.56920303,11.2443182 C2.44807098,11.1811163 2.37881533,11.2220733 2.29348715,11.2725825 C2.23468518,11.3072585 2.13916465,11.2791251 2.06520485,11.2791251 C2.02809427,11.0770883 2.18777428,11.0636104 2.27401716,11.0322057 C2.85432723,10.8211401 3.39922546,10.533918 3.95248662,10.266193 C4.54703984,9.97844755 5.11754958,9.63888434 5.72007373,9.3705051 C6.12227918,9.19123667 6.50958813,8.98134866 6.914407,8.8126793 C7.3709716,8.62255008 7.80754353,8.38753832 8.26998833,8.21428911 C8.56870232,8.10227906 8.84546357,7.9447322 9.14731366,7.83533919 C9.43374458,7.73157287 9.72082884,7.6104031 9.9975901,7.48229814 C10.2972188,7.34346324 10.6006369,7.21496572 10.9066685,7.09458108 C11.4786156,6.86951414 12.0467733,6.63489494 12.6215952,6.41597808 C12.9994958,6.27217077 13.373999,6.11096003 13.7498089,5.95773132 C14.2987579,5.7339729 14.8581606,5.53834786 15.4047576,5.30673827 C15.8793548,5.10561741 16.3804782,4.96796018 16.861609,4.78044802 C17.261201,4.62486395 17.6668039,4.48773014 18.0692707,4.34104407 C18.7918815,4.07737553 19.5143617,3.81318358 20.2401086,3.55815133 C20.7062122,3.39445438 21.1796333,3.2472449 21.6397261,3.06758391 C22.3274477,2.79920466 23.0371221,2.59756039 23.7296786,2.3478931 C24.1436445,2.19845912 24.5569569,2.05072623 24.9766723,1.91777971 C25.4900788,1.75539129 25.9896342,1.54759693 26.5060461,1.39646186 C27.2780506,1.1703481 28.0341132,0.898304974 28.7967094,0.645104665 C29.3704859,0.454713734 29.9536707,0.292325319 30.5032731,0.0332366298 C30.5789316,-0.00235535172 30.6765429,0.009290554 30.7561216,0 C30.8431485,0.221664767 30.5510987,0.16395865 30.5642965,0.347152673 C30.6255812,0.324907684 30.6756282,0.298606257 30.7286807,0.289708261 C30.7846079,0.280286854 30.8432792,0.287614615 30.938277,0.287614615 C30.9074386,0.368219985 30.8864006,0.423439898 30.8652319,0.479052369 C30.9168469,0.513335822 31.0111914,0.505615502 30.9989084,0.62757038 C30.9928975,0.688547819 30.8571303,0.752404021 30.9888467,0.819008133 C30.9829665,0.82751357 30.9789157,0.83889777 30.9709448,0.843870179 C30.9141029,0.878415338 30.8589597,0.917147788 30.7987203,0.944234333 C30.4883766,1.0839852 30.1857425,1.24899067 29.8633771,1.35118677 C29.422101,1.49119934 29.0002949,1.67936577 28.5635923,1.82814549 C27.9077543,2.05151135 27.2511324,2.272391 26.5973852,2.50151438 C26.1828966,2.64676107 25.7728509,2.80470048 25.3584931,2.95779835 C25.3856727,2.98789451 25.4081481,3.01301826 25.4306235,3.03814201 C25.4217379,3.04690915 25.4140283,3.06143382 25.4047506,3.06248064 C25.3882861,3.06444344 24.9211371,3.1334029 24.8906908,3.14243175 C24.7137622,3.19464205 24.5365723,3.24659064 24.3502354,3.30128714 C24.3898287,3.34787076 24.4106054,3.37234025 24.4630045,3.4338411 C24.3839485,3.41957814 24.3439632,3.4155217 24.3060686,3.40453005 C24.2643845,3.39249159 24.2162976,3.35101123 24.1854592,3.36226458 C23.9816124,3.43593474 23.7816857,3.52033485 23.5792763,3.60198704 C23.6061945,3.63391514 23.6267098,3.65812292 23.6795009,3.72080145 C23.5992689,3.70536081 23.5594143,3.70051925 23.521389,3.68952761 C23.4798356,3.67762 23.4318793,3.63692476 23.4009103,3.6481781 C23.1973248,3.72184827 22.9976595,3.80598667 22.7953807,3.8872463 C22.8224296,3.91969782 22.8428143,3.94403645 22.8959974,4.00763095 C22.8144587,3.99101263 22.7748654,3.98564766 22.7368401,3.97452517 C22.6954174,3.96248671 22.6473304,3.92296914 22.6162307,3.93422249 C22.4130373,4.00763095 22.2136333,4.09163849 22.0114852,4.17276727 C22.0387954,4.2057422 22.0587881,4.22981913 22.1126245,4.2945913 C22.0296484,4.27692616 21.9814308,4.28006663 21.9541206,4.25769079 C21.9035509,4.21634128 21.8716672,4.21084546 21.8035875,4.2376703 C21.4256869,4.38671172 21.0426901,4.522537 20.6542051,4.66542834 C20.6825607,4.69801071 20.7041214,4.72261105 20.7268582,4.74865077 C20.6353885,4.8823824 20.5179152,4.60144129 20.402402,4.77338196 C20.3561445,4.84221057 20.1986859,4.83592963 20.0772925,4.86772688 C20.1117896,4.90986151 20.131521,4.93380758 20.1504683,4.95696854 C20.1380545,4.96992298 20.1260328,4.98667214 20.1099602,4.99700952 C20.1035574,5.00119681 19.7894242,4.99413076 19.7779251,4.99831805 C19.4994652,5.10025244 19.2211359,5.20205597 18.937449,5.30595315 C18.9709008,5.34324622 18.9933762,5.36836998 19.016505,5.39401714 C18.7419652,5.3966342 18.618873,5.42280477 18.378961,5.52997327 C18.4019591,5.55548958 18.4243039,5.58048248 18.4466486,5.60508282 C18.4292694,5.61646702 18.4084927,5.64159077 18.3929428,5.63871201 C18.0210531,5.56909828 17.7232538,5.80384834 17.3889973,5.88693991 C17.2128527,5.93077562 17.0500366,6.02839187 16.8808176,6.10180033 C16.9064291,6.13202734 16.9269445,6.15636598 16.9486359,6.18201314 C16.9230243,6.19352819 16.9001569,6.21407209 16.8833003,6.2098848 C16.6066698,6.14197216 16.355912,6.26785263 16.1310272,6.37318919 C15.8410682,6.50914532 15.516612,6.55716833 15.2505658,6.7496529 C15.2654622,6.76718719 15.2865003,6.79165668 15.3280537,6.84020309 L14.8325491,6.84020309 C14.8211807,6.89581556 14.8145165,6.92839793 14.8061536,6.96974744 C14.718996,7.07717765 14.5,6.88299198 14.4404053,7.13959447 C14.3729791,7.13959447 14.2935311,7.13436035 14.2151285,7.14168811 C14.1757965,7.14548285 14.1068022,7.17047575 14.1058875,7.18879515 C14.1019673,7.26874625 14.0648568,7.27685913 13.9954704,7.28601883 C13.8994272,7.29844986 13.7475875,7.20318896 13.7264188,7.40247789 C13.7252427,7.41320782 13.6655261,7.41948876 13.632597,7.42459202 C13.5323723,7.44029437 13.3879808,7.36165179 13.3698175,7.54981822 C13.2664567,7.55884707 13.1630959,7.56774507 13.0628713,7.57638136 C13.034777,7.62139475 13.0142616,7.69571918 12.9776737,7.70461717 C12.8888174,7.7264696 12.7923822,7.71835673 12.6990831,7.72215146 C12.6771304,7.91816906 12.5118315,7.83128275 12.4168337,7.85627565 C12.4049426,7.87747382 12.3942276,7.8880729 12.396449,7.89383043 C12.4003691,7.9039061 12.4131749,7.91031789 12.4202311,7.91987015 C12.4319915,7.93570335 12.4419225,7.95271422 12.4696248,7.9952414 L12.0133215,7.9952414 C12.0573576,8.0496762 12.076697,8.07336057 12.0968203,8.09835347 C12.0410238,8.22384137 11.8736342,8.04993791 11.8167923,8.20526027 C11.760081,8.36005922 11.6166042,8.25001195 11.5175556,8.28154749 C11.4123654,8.31517668 11.3074366,8.34972184 11.1869579,8.38884685 C11.1929687,8.3775935 11.1829071,8.38832344 11.1852591,8.39395011 C11.1893099,8.40402578 11.201985,8.41043757 11.2089106,8.41985898 C11.2204097,8.43556132 11.23021,8.45270305 11.2573896,8.49549194 L10.801609,8.49549194 Z" id="Fill-339"></path>
                    <path d="M25.6566352,19.2905752 C26.9234686,19.4716969 26.7164596,19.3361493 26.6826464,19.4254181 C26.773116,19.455605 26.8644891,19.4860269 27,19.5312486 C26.8944306,19.5982002 26.8278366,19.6404854 26.7604683,19.683123 C26.7755681,19.6988625 26.7967336,19.7209447 26.8180282,19.7431445 C26.8024122,19.7534809 26.7846022,19.7756806 26.7687281,19.7746235 C26.3762627,19.7481952 25.9968321,19.8703525 25.6011403,19.8456861 C25.2042869,19.8210198 24.7996901,19.8071596 24.4067084,19.8506194 C24.0866446,19.8858571 23.76942,19.8967808 23.4496143,19.9073521 C23.351014,19.9105235 23.2704818,19.8348799 23.1505869,19.8953713 C23.0608916,19.9407104 22.9215089,19.9044156 22.8040661,19.9044156 L22.4171502,19.9044156 C22.2998365,19.9044156 22.1826518,19.9040632 22.0653381,19.904533 C21.9485406,19.904768 21.8316141,19.9055902 21.7148166,19.9080568 C21.7062987,19.9081743 21.6981681,19.9221519 21.6684848,19.9491674 C21.7785712,19.9620879 21.871493,19.9728941 21.9645438,19.9835829 C21.9640276,19.9972081 21.9635114,20.0107159 21.9631242,20.0242237 C21.8407772,20.0270427 21.7184302,20.0309189 21.5962123,20.0320934 C21.4671543,20.0335029 21.3382253,20.0329157 21.2091673,20.031976 C21.1872275,20.0318585 21.1545758,20.0329157 21.1450255,20.0212872 C21.0151931,19.8626002 20.8688414,19.8822159 20.6959036,19.9634974 C20.6309875,19.9939193 20.5344521,19.9684307 20.4523712,19.9684307 C19.3499577,19.9684307 18.2475442,19.9667863 17.1452598,19.9707799 C17.0252358,19.9712497 16.8866275,19.9174535 16.7864785,20.0318585 C16.7818324,20.0369093 16.7579567,20.0370267 16.7530525,20.0318585 C16.654065,19.9259106 16.5412683,20.0840103 16.4625429,20.0279824 C16.3608452,19.9557451 16.2924445,19.9683132 16.1966835,20.0275125 C16.1675163,20.0457187 16.091114,20.0131826 16.0434916,19.9911003 C15.9768977,19.9600911 15.9811566,19.9172186 16.0428463,19.8796318 C16.0307149,19.8664764 16.0209065,19.8460385 16.0059357,19.8420449 C15.9855446,19.8367592 15.948763,19.8367592 15.9411486,19.8475655 C15.9180472,19.880219 15.9150789,19.9276725 15.8868152,19.953396 C15.8492593,19.987694 15.7954421,20.0272776 15.7482069,20.0278649 C15.6669003,20.0288046 15.5667513,19.9672561 15.5079009,19.9935669 C15.4133014,20.0359696 15.3539347,20.0306839 15.2602386,19.9959161 C15.1963549,19.9723068 15.1017553,20.0292744 15.0204488,20.030449 C14.6930286,20.0353823 14.3654794,20.0324458 14.0456737,20.0324458 C14.0134092,19.9847575 13.9861779,19.9444691 13.9589467,19.9044156 C13.915067,19.9383612 13.8713163,19.9724243 13.7893645,20.0359696 C13.6524339,20.0674486 13.4149672,19.9486976 13.2719709,20.1650569 C13.229898,20.1228892 13.1909225,20.0837754 13.1562059,20.0490075 C12.8779569,20.1198353 12.6087419,20.1300542 12.339914,20.046306 C12.0619231,20.1630601 11.7738656,20.0613407 11.4929063,20.1013942 C11.4989721,20.0424298 11.5136847,19.9755957 11.5049087,19.9730116 C11.3954676,19.9395358 11.4130194,20.030449 11.3823036,20.0914102 L11.0095841,20.0914102 C10.9907416,20.1380414 10.9757709,20.175041 10.9600258,20.2142722 C10.9436355,20.2068723 10.9209213,20.2033486 10.9124034,20.1913677 C10.8455514,20.0985752 10.7313351,20.0605185 10.6411235,20.1019815 C10.4298556,20.1993549 10.2125219,20.1477905 9.99867276,20.1587142 C9.81450699,20.1681109 9.62930875,20.1605935 9.44101312,20.2069898 C9.55380982,20.2173262 9.66660651,20.22778 9.77940321,20.2379989 C9.52154532,20.2585542 9.24742611,20.3909305 9.0544844,20.1783298 C8.91923161,20.1960661 8.811081,20.2209674 8.70241416,20.2227293 C8.36492748,20.2280149 8.02718268,20.2246086 7.69666513,20.2246086 C7.67588679,20.2791096 7.66156135,20.3162266 7.64052489,20.3717846 C7.58361031,20.2937919 7.53727849,20.2302466 7.49094667,20.1667014 C7.46707093,20.2545606 7.41157599,20.3457088 7.31091075,20.2827508 C7.20443789,20.2161516 7.14352252,20.2618431 7.04608372,20.2795794 C6.86798367,20.3118806 6.67762312,20.2887412 6.48700444,20.3302042 C6.57437671,20.3426548 6.66174898,20.3551055 6.75363828,20.3683783 C6.73905473,20.3891686 6.72950444,20.4150095 6.71969603,20.415127 C6.46170907,20.4173587 6.20294777,20.4278126 5.94573517,20.4133651 C5.7560199,20.4026763 5.57288659,20.3253884 5.37671843,20.3531087 C5.3448411,20.3576896 5.31360906,20.3660292 5.28160268,20.4022065 C5.37568596,20.4112508 5.46976925,20.4201777 5.56398159,20.4291046 C5.26972934,20.4567075 4.98154281,20.5297669 4.68496752,20.4296919 C4.55371553,20.3854099 4.38955375,20.422292 4.23119957,20.4563551 C4.29585763,20.4708025 4.36064475,20.48525 4.4274968,20.5001673 C4.41601064,20.5169639 4.40684752,20.5430398 4.39703911,20.5431572 C4.28011256,20.5453889 4.163186,20.5436271 4.04625945,20.5429223 C3.9834082,20.4078445 3.88945398,20.6084644 3.79395105,20.5196654 C3.73174509,20.4619931 3.60229991,20.5976582 3.47659742,20.492415 C3.40806762,20.4353299 3.23474272,20.4823135 3.10374884,20.5237765 C3.1942185,20.5365795 3.28468816,20.5496175 3.38083638,20.5632427 C3.36031616,20.5836805 3.34792659,20.6072898 3.33489173,20.6075247 C3.15911473,20.6098739 2.98282149,20.6021216 2.8073026,20.6105786 C2.46491172,20.6269054 2.11748757,20.6256134 1.78309828,20.6836381 C1.60280424,20.7148822 1.42599478,20.7213424 1.24763661,20.7410755 C1.09457382,20.7578721 0.945382765,20.80697 0.885628908,20.991263 C0.824584472,20.991263 0.688944509,21.0132278 0.676942114,20.9875043 C0.624673622,20.8749787 0.465803218,20.8632328 0.430183208,20.7664466 C0.396628127,20.6749461 0.341391301,20.646756 0.258148888,20.6042359 C0.0902444232,20.5183734 0.0541081817,20.3541658 0.139028349,20.1940693 C0.0928255833,20.1494349 0.0459775274,20.1044481 0.000290993635,20.0602836 C0.00235592172,20.0371442 -0.00487132657,20.0093064 0.00726012591,19.9969732 C0.138770233,19.8611907 0.292865491,19.791655 0.502971923,19.7679283 C0.847169623,19.7290494 1.18362384,19.6330855 1.53633937,19.6481202 C1.73844421,19.5358295 1.96235984,19.6038382 2.17556367,19.5829305 C2.34230661,19.5667212 2.5073718,19.5331279 2.67437286,19.5223217 C2.83763123,19.5116329 3.01960302,19.5602609 3.16272835,19.5103409 C3.36870493,19.438691 3.57055165,19.4477353 3.77033344,19.4615954 C4.02715887,19.4794492 4.26385125,19.3851297 4.51564342,19.3906503 C4.77350131,19.3960534 5.04232914,19.4342275 5.28741029,19.3827805 C5.76040788,19.2834103 6.2363738,19.3823107 6.70201508,19.321232 C7.27929154,19.245471 7.86211749,19.3191178 8.43139235,19.252636 C9.19812596,19.1628974 9.96189123,19.2310236 10.7259146,19.2000144 C10.8194817,19.1962557 10.9134359,19.2004843 11.0072611,19.1993097 C11.0862446,19.19837 11.1729715,19.218338 11.2257563,19.1383485 C11.2675711,19.2394806 11.3582988,19.128247 11.4314747,19.1769925 C11.4762579,19.206827 11.587764,19.1450436 11.6708773,19.1374088 C11.7637991,19.1290692 11.8582696,19.1355295 11.9520947,19.1355295 L12.1983374,19.1355295 L12.4798129,19.1355295 L12.7612884,19.1355295 L13.0075311,19.1355295 C13.1013563,19.1355295 13.1958267,19.1293041 13.2888775,19.1370564 C13.398835,19.1463357 13.5076309,19.112625 13.6215891,19.1835702 C13.6764387,19.2177507 13.803948,19.1405802 13.8991928,19.1381136 C14.1921545,19.1309486 14.4856324,19.1401104 14.7785941,19.1330628 C14.8876481,19.1305962 15.0102532,19.1795766 15.103304,19.0728064 C15.1642194,19.0026834 15.2097769,19.1951986 15.3020534,19.0903078 C15.3310914,19.0571844 15.4773141,19.0516638 15.4929302,19.075508 C15.581593,19.2099984 15.6818711,19.0058548 15.7493684,19.0886634 C15.8451294,19.2058874 15.9046252,19.0679906 15.9818019,19.072454 C16.0254235,19.0749207 16.0685289,19.0872538 16.1118923,19.0948887 C16.1877785,19.1085139 16.3083186,19.1556149 16.3319362,19.1296565 C16.4282135,19.0237086 16.5407521,19.1275423 16.6463215,19.0869015 C16.7556337,19.0446163 16.8982428,19.0717493 17.0262683,19.0717493 C19.3246623,19.0713969 21.6233145,19.0745683 23.9218375,19.0677557 C24.2283503,19.066816 24.5448005,19.1368215 24.8425373,19.0073818 C24.9990847,19.129774 25.1536962,18.993874 25.3123085,19.0002168 C25.8036323,19.0198324 26.2963758,19.0073818 26.8224162,19.0073818 C26.8047352,19.0573018 26.7940234,19.1290692 26.7762134,19.1305962 C26.5279058,19.151269 26.2873417,19.2132873 26.0316778,19.2047128 C25.5163492,19.1875638 24.999859,19.1993097 24.4838851,19.2008366 C24.4653008,19.2009541 24.4467164,19.2208046 24.428003,19.2314934 C24.4514916,19.2421822 24.4736896,19.2572169 24.4984687,19.2628549 C24.5605456,19.2768326 24.6174602,19.3477777 24.690507,19.2668485 C24.7093495,19.2458234 24.7800733,19.2636772 24.8269213,19.2636772 C25.5061536,19.2636772 26.1852568,19.2636772 25.6566352,19.2905752 C24.4311004,19.3063147 24.432391,19.2949212 24.4336816,19.2836452 C24.3247566,19.256982 24.2172513,19.2219792 24.1062614,19.206827 C24.047411,19.1988398 23.6750786,19.2105857 23.6216486,19.2037731 C23.5760911,19.1979002 23.5057545,19.1823956 23.4865249,19.202716 C23.3908929,19.3032608 23.2691912,19.2616804 23.15975,19.2619153 C21.4937402,19.2643819 19.8277304,19.2646168 18.1618497,19.2609756 C18.0640237,19.2608581 17.9525176,19.3080766 17.8637257,19.2195126 C17.8468191,19.2025985 17.7855166,19.1943764 17.773256,19.2062397 C17.6665251,19.3113655 17.5314013,19.2505218 17.4103449,19.2621502 C17.1624245,19.2858769 16.9088255,19.2235062 16.6625829,19.3217019 C16.5930206,19.3494222 16.4869349,19.3094861 16.3999498,19.2917498 C16.2324325,19.2575693 16.0662058,19.2330204 15.9029474,19.3030259 C15.8459038,19.3274574 15.7754381,19.2358394 15.728461,19.3225241 C15.6383785,19.2193951 15.4872516,19.2360743 15.4090424,19.2734262 C15.2785648,19.3359144 15.1842234,19.2175158 15.074266,19.2633248 C15.0546492,19.2714294 15.0250949,19.2688453 15.0129634,19.2815309 C14.9551454,19.3417873 14.9135888,19.3280446 14.8379608,19.2906927 C14.7646558,19.2545154 14.6497942,19.2442964 14.5722303,19.2701374 C14.4716942,19.3037306 14.3499925,19.3295716 14.2726867,19.3152416 C14.1525337,19.2930419 14.050836,19.3231114 13.9411367,19.3268701 C13.0827719,19.35553 12.224149,19.2879912 11.3646227,19.3840726 C10.7230753,19.4557225 10.072623,19.3584665 9.42204159,19.4446814 C8.83031064,19.522909 8.22373802,19.424361 7.62116619,19.5105758 C7.14610368,19.5785845 6.65542514,19.4821508 6.1718448,19.5765877 C5.94754198,19.6203999 5.70310612,19.5705973 5.47002736,19.5878638 C5.25617825,19.6038382 5.0473624,19.5589689 4.82267241,19.6296792 C4.61321127,19.6955736 4.35999946,19.6456536 4.12614636,19.6489424 C4.09001012,19.6495297 4.05400293,19.661628 4.01799575,19.6684406 C4.06574721,19.7121353 4.10936882,19.7133099 4.15286136,19.7119004 C4.56597604,19.6988625 4.97689673,19.7164813 5.3924635,19.6581042 C5.89153081,19.5880987 6.40247145,19.67725 6.91237963,19.5942066 C7.38550628,19.5171535 7.88263771,19.6523487 8.35899081,19.5186805 C8.42597191,19.4998871 8.48301555,19.64166 8.54922231,19.5239661 C8.62549559,19.6294442 8.69686466,19.5173884 8.77055679,19.5159789 C9.34783324,19.5050552 9.92820709,19.5686005 10.501999,19.4583066 C10.5789176,19.4435068 10.6940373,19.4314085 10.7380461,19.4693477 C10.8378079,19.5553277 10.8865918,19.4210721 10.9731898,19.4507892 C11.0450751,19.4754556 11.1352866,19.45584 11.2173675,19.45584 C11.6867515,19.45584 12.1561354,19.4593637 12.6252613,19.4534908 C12.7459305,19.4519638 12.880409,19.5020013 12.9886886,19.39852 C13.0008201,19.387009 13.0641876,19.4244784 13.105228,19.4327005 C13.1596905,19.4436242 13.2483533,19.4711096 13.2648728,19.4513765 C13.3303052,19.3735012 13.3690226,19.44151 13.4249047,19.4494972 C13.4805287,19.4573669 13.5451867,19.3958184 13.605844,19.3958184 C13.703799,19.3958184 13.8182735,19.3513015 13.8964826,19.4492623 C13.9644962,19.3759679 14.0580633,19.3917074 14.1459518,19.3924121 C14.2351308,19.3931169 14.3343764,19.3659839 14.397873,19.4547828 C14.4611114,19.3638696 14.5619057,19.392882 14.6506976,19.3926471 C15.2373953,19.3910026 15.8242221,19.404158 16.4104035,19.3883011 C16.9872928,19.3725616 17.5693444,19.4612431 18.1413295,19.3276923 C18.2117951,19.3892407 18.3032973,19.3561173 18.3822808,19.3618728 C18.4842366,19.3695076 18.5894189,19.3307462 18.6933106,19.3303938 C18.8135926,19.3300414 18.9451027,19.2925721 19.0488654,19.3861868 C19.163727,19.2716644 19.3134343,19.3313335 19.4445572,19.3308637 C20.9931242,19.3260478 22.5418203,19.3279272 24.0905163,19.3272224 C24.2035711,19.3272224 24.316755,19.3209971 25.6566352,19.2905752" id="Fill-341"></path>
                    <path d="M10.4060726,13.6462214 C10.3467711,13.7569186 10.3216964,13.8040181 10.2890994,13.8649548 L10.6159475,13.8649548 C10.6185803,13.8545769 10.6212132,13.844199 10.6237206,13.8339542 C10.5920012,13.825173 10.5605325,13.8147951 10.5285623,13.8078765 C10.4974697,13.801091 10.466001,13.7980309 10.4267592,13.7921767 C10.4318995,13.7486695 10.426007,13.6951836 10.4411771,13.6874667 C10.5165265,13.6482171 10.5951355,13.6072379 10.6766281,13.5924694 C10.8594224,13.5593401 11.0451002,13.5444385 11.2286467,13.5158329 C11.3199184,13.5014635 11.4091842,13.4728579 11.495441,13.451703 C11.5969933,13.6114955 11.4009095,13.5582757 11.3912558,13.6442257 C11.6280859,13.7348324 11.8318175,13.5246142 12.061752,13.5633316 C11.9091728,13.5223523 11.757095,13.465141 11.5825754,13.5614689 C11.6033874,13.5224854 11.6152978,13.4660724 11.6466411,13.4482437 C11.7107069,13.4116551 11.7841756,13.3911655 11.8558891,13.3730708 C11.9731131,13.3436668 12.1024983,13.4241618 12.2138298,13.3261043 C12.3008389,13.2496009 12.4250838,13.3407398 12.5251316,13.2360298 C12.5754063,13.1833422 12.7148214,13.2268494 12.8260275,13.2268494 C12.7346304,13.4289516 12.5835556,13.3489888 12.4613166,13.3742682 C12.3511135,13.3970197 12.2442955,13.4391964 12.1428685,13.5149015 C12.3907315,13.4914848 12.6453646,13.497206 12.8848276,13.4361362 C13.1122547,13.3779936 13.333037,13.2889835 13.5717477,13.2413518 C13.411646,13.2320383 13.2512936,13.2227249 13.091192,13.2134114 L13.091192,13.1695051 C13.4284461,13.112959 13.7659509,13.056413 14.103205,13 C14.1070916,13.018893 14.1107274,13.0379191 14.1144886,13.0568121 C13.956769,13.1004524 13.7990494,13.1442257 13.6415806,13.1878659 C13.7883927,13.206892 13.9370854,13.2927089 14.0754975,13.1637839 C14.3831635,13.177355 14.6797967,13.0074508 15,13.1040447 L15,13.3449973 C14.9438328,13.3718733 14.8822745,13.2836615 14.8220953,13.368281 C14.7935102,13.4083289 14.6886982,13.3241086 14.6624952,13.4390633 C14.6554743,13.4701969 14.5940414,13.5192922 14.5840115,13.5129058 C14.4173904,13.4083289 14.2545305,13.5381852 14.091796,13.5153007 C14.0410199,13.508116 13.9930019,13.4792443 13.9333242,13.4563598 C13.9240466,13.5086482 13.9122615,13.5742416 13.900351,13.6401011 C13.8041897,13.5548164 13.6817001,13.7402874 13.5935627,13.5964609 C13.5762611,13.647818 13.5622193,13.6897286 13.5430372,13.7466738 C13.4201714,13.7005056 13.3049534,13.6077701 13.1647861,13.6913252 C13.1840936,13.7166046 13.2026488,13.7409526 13.2489115,13.8017563 C13.0366546,13.7716871 12.8529827,13.7458755 12.6631676,13.7191325 C12.5801705,13.8072113 12.5028152,13.8890367 12.4423853,13.9531666 C12.334815,13.9518361 12.2899314,13.8181213 12.179979,13.9280202 C12.0940983,14.0139702 11.9561877,14.0532198 11.8348264,14.0830229 C11.7569696,14.102182 11.6646949,14.0759713 11.5835784,14.0522885 C11.526032,14.0353912 11.4795186,14.1016498 11.4047961,14.0340607 C11.3265632,13.9634114 11.3353393,14.1114955 11.2949691,14.150612 C11.2572318,14.1869345 11.2013153,14.2289782 11.1563063,14.2255189 C10.9757688,14.2111495 10.8057626,14.3122672 10.6252251,14.2720862 C10.6159475,14.2699574 10.6089266,14.2558542 10.6010281,14.247339 C10.4077025,14.4582225 10.1221022,14.3658861 9.90997059,14.4795104 C9.73281816,14.5743747 9.52820899,14.4514369 9.37751031,14.6056413 C8.88730083,14.7172698 8.38580775,14.7776743 7.91289977,14.9684673 C7.62203378,14.9318787 7.37254097,15.1117616 7.09070186,15.1460883 C6.83030158,15.1780202 6.5586177,15.2458755 6.31652192,15.3443321 C5.87834234,15.5223523 5.39878958,15.5388505 4.97828763,15.7667642 C4.82558299,15.7315061 4.73192915,15.8250399 4.62699173,15.9234965 C4.5689439,15.9779138 4.46676469,15.9791112 4.39831088,16 C4.25062117,15.8769292 4.16499122,15.71248 4,15.6555349 C4.0290866,15.5356573 4.05829857,15.4145822 4.09302697,15.2707557 C4.47127812,15.1399681 4.86156511,14.9652741 5.28457453,14.8907664 C5.48040758,14.8561735 5.66332718,14.7421501 5.85890948,14.7052954 C6.102259,14.6593933 6.33846224,14.5749069 6.58005653,14.5415114 C6.83832547,14.5055881 7.08167499,14.4161788 7.33204541,14.3565726 C7.48650528,14.3197179 7.64836217,14.279537 7.80031457,14.2557211 C8.0577059,14.2155402 8.2969181,14.1052422 8.55656614,14.0796966 C8.71278124,14.064396 8.86335453,13.9926823 9.0183159,13.9539649 C9.12400556,13.927355 9.24135494,13.9978712 9.34228043,13.9067323 C9.42803574,13.8291644 9.57321799,13.9427887 9.64480613,13.8073443 C9.83587499,13.8431346 10.0135289,13.7618414 10.1970754,13.7329697 C10.2448426,13.7255189 10.2893501,13.6957158 10.4060726,13.6462214" id="Fill-343"></path>
                </g>
            </g>
        </g>
    </g>
</svg>