<svg width="139" height="27" viewBox="0 0 139 27" fill="none" xmlns="http://www.w3.org/2000/svg">
<path d="M10.4562 1.56242L1.56242 10.4562C0.699519 11.3191 0.699519 12.7181 1.56242 13.581C2.42532 14.4439 3.82436 14.4439 4.68726 13.581L13.581 4.68726C14.4439 3.82436 14.4439 2.42532 13.581 1.56242C12.7181 0.699517 11.3191 0.699518 10.4562 1.56242Z" fill="black"/>
<path opacity="0.6" d="M11.1773 11.8984L7.09098 15.9848C6.22808 16.8477 6.22808 18.2467 7.09098 19.1096C7.95389 19.9725 9.35292 19.9725 10.2158 19.1096L14.3022 15.0233C15.1651 14.1604 15.1651 12.7613 14.3022 11.8984C13.4393 11.0355 12.0402 11.0355 11.1773 11.8984Z" fill="black"/>
<path opacity="0.4" d="M15.7444 21.5133C14.8815 20.6504 13.4825 20.6504 12.6195 21.5133C11.7566 22.3762 11.7566 23.7753 12.6195 24.6382C13.4825 25.5011 14.8815 25.5011 15.7444 24.6382C16.6073 23.7753 16.6073 22.3762 15.7444 21.5133Z" fill="black"/>
<path d="M34.445 20.4109V10.3617H38.2897V7.52453H34.445V6.64953C34.445 5.05862 35.2935 4.31619 36.4071 4.31619C37.07 4.31619 37.7064 4.55483 38.3958 5.00559L39.5889 2.59271C38.5283 1.90332 37.3351 1.5321 36.195 1.5321C33.57 1.5321 31.2101 3.14953 31.2101 6.64953V7.52453H28.7708V10.3617H31.2101V20.4109H34.445Z" fill="black"/>
<path d="M40.8436 1.8768V20.4109H44.052V1.8768H40.8436Z" fill="black"/>
<path d="M50.1117 7.28589V20.4109H46.8769V7.28589H50.1117ZM46.5852 3.65332C46.5852 6.17226 50.4034 6.17226 50.4034 3.65332C50.4034 1.13438 46.5852 1.13438 46.5852 3.65332Z" fill="black"/>
<path d="M60.2782 17.6003C58.0775 17.6003 56.5661 15.9298 56.5661 13.8882C56.5661 11.8465 57.9449 10.176 60.2782 10.176C62.6115 10.176 63.9903 11.8465 63.9903 13.8882C63.9903 15.9298 62.479 17.6003 60.2782 17.6003ZM56.2744 25.873V18.873C57.2025 20.3048 59.2441 20.7291 60.6229 20.7291C64.8123 20.7291 67.2252 17.7063 67.2252 13.8882C67.2252 10.0435 64.5472 7.04726 60.5168 7.04726C59.032 7.04726 57.282 7.68362 56.2744 9.14195L56.0623 7.33892H53.0396V25.873H56.2744Z" fill="black"/>
<path d="M69.6115 7.33892V20.4109H72.8464V13.517C72.8464 11.1041 74.4108 10.2026 76.1078 10.2026C77.1684 10.2026 77.7782 10.4942 78.4411 11.051L79.8994 8.24044C79.1835 7.52453 77.8843 6.99423 76.532 6.99423C75.2062 6.99423 73.854 7.23286 72.8464 8.85029L72.6078 7.33892H69.6115Z" fill="black"/>
<path d="M94.0743 15.0283C94.5781 9.64574 91.847 6.9412 87.472 6.9412C83.2296 6.9412 80.525 9.80483 80.525 13.7821C80.525 17.9715 83.203 20.7556 87.7106 20.7556C89.6993 20.7556 91.9531 20.0662 93.3318 18.6344L91.2636 16.5927C90.5212 17.3617 88.9568 17.8124 87.7636 17.8124C85.4833 17.8124 84.078 16.6457 83.8659 15.0283H94.0743ZM83.919 12.3503C84.3962 10.6533 85.828 9.80483 87.578 9.80483C89.4341 9.80483 90.7599 10.6533 90.972 12.3503H83.919Z" fill="black"/>
<path d="M106.828 9.14195C106.086 7.84271 104.415 7.02074 102.665 7.02074C98.8472 6.99423 95.851 9.35407 95.851 13.8617C95.851 18.4488 98.7146 20.8351 102.586 20.8086C104.044 20.7821 106.086 20.0397 106.828 18.5018L106.987 20.4109H110.037V7.33892H106.934L106.828 9.14195ZM102.957 9.91089C108.048 9.91089 108.048 17.8389 102.957 17.8389C100.809 17.8389 99.0858 16.3541 99.0858 13.8617C99.0858 11.3692 100.809 9.91089 102.957 9.91089Z" fill="black"/>
<path d="M122.103 16.6192C121.307 17.4147 120.273 17.7063 119.239 17.7063C117.224 17.7063 115.527 16.3806 115.527 13.8882C115.527 11.6079 117.118 10.017 119.292 10.017C120.194 10.017 121.148 10.3617 121.917 11.051L123.959 8.90332C122.527 7.49801 121.095 6.96771 119.239 6.96771C115.448 6.96771 112.292 9.24801 112.292 13.8882C112.292 18.5283 115.448 20.8086 119.239 20.8086C121.175 20.8086 122.766 20.2253 124.277 18.7404L122.103 16.6192Z" fill="black"/>
<path d="M125.697 1.85029V20.4109H128.932V13.7291C128.932 11.767 130.258 10.1495 132.167 10.1495C133.89 10.1495 135.137 11.1571 135.137 13.5435V20.4109H138.372V13.517C138.372 9.67226 136.728 7.15332 133.015 7.15332C131.531 7.15332 130.099 7.60407 128.932 9.11544V1.85029H125.697Z" fill="black"/>
</svg>
