<?xml version="1.0" encoding="UTF-8"?>
<svg width="422px" height="129px" viewBox="0 0 422 129" version="1.1" xmlns="http://www.w3.org/2000/svg" xmlns:xlink="http://www.w3.org/1999/xlink">
    <!-- Generator: Sketch 61.2 (89653) - https://sketch.com -->
    <title>download (6)</title>
    <desc>Created with Sketch.</desc>
    <defs>
        <path d="M42.1107858,0.0177677454 C25.67618,0.0177677454 10.7984311,6.68111926 0.0314008582,17.4532898 L0.0314008582,17.4532898 C4.40707134,16.3447613 9.67202306,15.5853299 16.4818747,15.5853299 L16.4818747,15.5853299 C30.790944,15.5853299 38.3245798,18.9184025 44.9711693,21.8596907 L44.9711693,21.8596907 C51.1098695,24.576256 56.4129269,26.9218219 67.7258403,26.9218219 L67.7258403,26.9218219 C77.9739183,26.9218219 83.2906088,24.9958654 88.7644153,22.6149875 L88.7644153,22.6149875 C77.8666413,8.85526551 61.0259476,0.0177677454 42.1107858,0.0177677454 Z" id="path-1"></path>
        <path d="M0.0358707313,4.33063651 C10.9337565,18.0919229 27.7752324,26.9309852 46.6924057,26.9309852 L46.6924057,26.9309852 C63.1283524,26.9309852 78.0074423,20.2659574 88.7752548,9.49199893 L88.7752548,9.49199893 C84.3960084,10.6026506 79.1262516,11.3636465 72.3074602,11.3636465 L72.3074602,11.3636465 C57.9983908,11.3636465 50.4647551,8.03068568 43.8180538,5.08928571 L43.8180538,5.08928571 C37.6793537,2.37283211 32.3765198,0.0271544788 21.0634945,0.0271544788 L21.0634945,0.0271544788 C10.8223449,0.0271544788 5.50565439,1.95109959 0.0358707313,4.33063651" id="path-3"></path>
    </defs>
    <g id="Page-1" stroke="none" stroke-width="1" fill="none" fill-rule="evenodd">
        <g id="download-(6)">
            <path d="M214.131737,97 L214.131737,81.9101796 L177.035928,81.9101796 L177.035928,8.97604787 L160.05988,8.97604787 L160.05988,97 L214.131737,97 Z M245.155689,98.257485 C251.610779,98.257485 257.269461,96.2035928 262.131737,92.0958084 L262.131737,92.0958084 L262.131737,97 L277.8503,97 L277.8503,36.011976 L262.131737,36.011976 L262.131737,40.9161676 C257.101797,36.8083832 251.149701,34.754491 244.275449,34.754491 C235.976048,34.754491 228.913174,37.8143712 223.086827,43.9341317 C217.260479,50.0538922 214.347306,57.5988024 214.347306,66.5688622 C214.347306,74.7844311 216.946108,81.9101796 222.143713,87.9461078 C228.095809,94.8203593 235.766467,98.257485 245.155689,98.257485 Z M246.790419,83.1676646 C242.179641,83.1676646 238.344312,81.5958084 235.284431,78.4520958 C232.224551,75.3083832 230.694611,71.3473054 230.694611,66.5688622 C230.694611,62.0419161 232.161677,58.1227545 235.095809,54.8113772 C238.02994,51.5 241.802395,49.8443113 246.413174,49.8443113 C252.700599,49.8443113 257.730539,52.3592814 261.502994,57.3892215 L261.502994,57.3892215 L261.502994,75.6227545 C257.982036,80.6526946 253.077845,83.1676646 246.790419,83.1676646 Z M306.988025,97 L306.988025,57.3892215 C308.329342,55.4610778 310.362276,53.7215569 313.086827,52.1706587 C315.811378,50.6197604 318.724551,49.8443113 321.826348,49.8443113 C325.682635,49.8443113 328.742516,50.9760479 331.005989,53.2395209 C333.437126,55.6706587 334.652695,59.4850299 334.652695,64.6826347 L334.652695,64.6826347 L334.652695,97 L351.000001,97 L351.000001,65.9401197 C351.000001,56.6347305 348.904192,49.508982 344.712575,44.5628742 C339.263474,38.0239521 332.221557,34.754491 323.586827,34.754491 C317.131737,34.754491 311.389222,36.8083832 306.359282,40.9161676 L306.359282,40.9161676 L306.359282,36.011976 L290.640719,36.011976 L290.640719,97 L306.988025,97 Z M388.437127,128.437126 C394.221558,128.437126 399.482037,127.368263 404.218564,125.230539 C408.955091,123.092814 412.706588,120.095808 415.473055,116.239521 C419.161678,111.041916 421.005989,103.497006 421.005989,93.6047904 L421.005989,93.6047904 L421.005989,36.011976 L405.287426,36.011976 L405.287426,40.9161676 C400.257486,36.8083832 394.30539,34.754491 387.431139,34.754491 C379.131737,34.754491 372.068863,37.8143712 366.242516,43.9341317 C360.416169,50.0538922 357.502995,57.5988024 357.502995,66.5688622 C357.502995,74.8682634 360.059881,81.9940119 365.173654,87.9461078 C367.940121,91.1317365 371.377246,93.6467066 375.485031,95.4910179 C379.592815,97.3353293 383.868264,98.257485 388.311378,98.257485 C394.431139,98.257485 399.88024,96.4131736 404.658683,92.7245509 L404.658683,92.7245509 L404.658683,94.7365269 C404.658683,101.526946 403.401198,106.305389 400.886228,109.071856 C398.119761,112.341317 393.970061,113.976048 388.437127,113.976048 C381.227546,113.976048 374.898204,111.041916 369.449103,105.173653 L369.449103,105.173653 L359.137725,115.862275 C362.239522,119.550898 366.452097,122.568862 371.77545,124.916168 C377.098803,127.263473 382.652695,128.437126 388.437127,128.437126 Z M389.946109,83.1676646 C385.33533,83.1676646 381.500001,81.5958084 378.440121,78.4520958 C375.38024,75.3083832 373.8503,71.3473054 373.8503,66.5688622 C373.8503,62.0419161 375.317366,58.1227545 378.251498,54.8113772 C381.18563,51.5 384.958085,49.8443113 389.568863,49.8443113 C395.856288,49.8443113 400.886228,52.3592814 404.658683,57.3892215 L404.658683,57.3892215 L404.658683,75.6227545 C401.137725,80.6526946 396.233534,83.1676646 389.946109,83.1676646 Z" id="Lang" fill="#7E7E7E" fill-rule="nonzero"></path>
            <g id="Group-18" transform="translate(0.000000, -0.000000)">
                <g id="Group-11" opacity="0.800000012" transform="translate(0.275344, 29.818523)" fill="#7E7E7E" fill-rule="nonzero">
                    <path d="M11.0480735,5.09342035 C8.89068925,6.04784999 6.63496782,7.04206151 4.09015734,7.95168067 L4.09015734,7.95168067 C1.91947524,13.4467191 0.545994994,19.339241 0.106718219,25.4936975 L0.106718219,25.4936975 C1.87868765,24.8253397 3.56349455,24.0838995 5.31344985,23.3097175 L5.31344985,23.3097175 C11.9613803,20.368988 19.4951278,17.0360272 33.8026328,17.0360272 L33.8026328,17.0360272 C48.1117021,17.0360272 55.6453379,20.368988 62.2919274,23.310388 L62.2919274,23.310388 C68.4306276,26.0268416 73.733685,28.3725192 85.0465984,28.3725192 L85.0465984,28.3725192 C96.3623056,28.3725192 101.665251,26.0261711 107.806633,23.3097175 L107.806633,23.3097175 C110.833855,21.9704318 114.054063,20.553035 118.005654,19.4027132 L118.005654,19.4027132 C117.121513,14.3850572 115.611702,9.586425 113.553773,5.08649204 L113.553773,5.08649204 C113.549079,5.08883873 113.544162,5.09096192 113.538687,5.09342035 L113.538687,5.09342035 C106.891986,8.03482031 99.356897,11.3677812 85.0465984,11.3677812 L85.0465984,11.3677812 C70.7375291,11.3677812 63.2038933,8.03482031 56.557192,5.09342035 L56.557192,5.09342035 C50.4184919,2.376855 45.115658,0.0312891114 33.8026328,0.0312891114 L33.8026328,0.0312891114 C22.4897193,0.0312891114 17.1868854,2.376855 11.0480735,5.09342035" id="Fill-9"></path>
                </g>
                <g id="Group-14" transform="translate(17.596102, 0.093867)">
                    <g id="Fill-12-Clipped">
                        <mask id="mask-2" fill="white">
                            <use xlink:href="#path-1"></use>
                        </mask>
                        <g id="path-1"></g>
                        <path d="M42.1107858,0.0177677454 C25.67618,0.0177677454 10.7984311,6.68111926 0.0314008582,17.4532898 L0.0314008582,17.4532898 C4.40707134,16.3447613 9.67202306,15.5853299 16.4818747,15.5853299 L16.4818747,15.5853299 C30.790944,15.5853299 38.3245798,18.9184025 44.9711693,21.8596907 L44.9711693,21.8596907 C51.1098695,24.576256 56.4129269,26.9218219 67.7258403,26.9218219 L67.7258403,26.9218219 C77.9739183,26.9218219 83.2906088,24.9958654 88.7644153,22.6149875 L88.7644153,22.6149875 C77.8666413,8.85526551 61.0259476,0.0177677454 42.1107858,0.0177677454 Z" id="Fill-12" fill="#7E7E7E" fill-rule="nonzero" mask="url(#mask-2)"></path>
                    </g>
                </g>
                <g id="Group-17" transform="translate(13.014482, 92.173252)">
                    <g id="Fill-15-Clipped">
                        <mask id="mask-4" fill="white">
                            <use xlink:href="#path-3"></use>
                        </mask>
                        <g id="path-3"></g>
                        <path d="M0.0358707313,4.33063651 C10.9337565,18.0919229 27.7752324,26.9309852 46.6924057,26.9309852 L46.6924057,26.9309852 C63.1283524,26.9309852 78.0074423,20.2659574 88.7752548,9.49199893 L88.7752548,9.49199893 C84.3960084,10.6026506 79.1262516,11.3636465 72.3074602,11.3636465 L72.3074602,11.3636465 C57.9983908,11.3636465 50.4647551,8.03068568 43.8180538,5.08928571 L43.8180538,5.08928571 C37.6793537,2.37283211 32.3765198,0.0271544788 21.0634945,0.0271544788 L21.0634945,0.0271544788 C10.8223449,0.0271544788 5.50565439,1.95109959 0.0358707313,4.33063651" id="Fill-15" fill="#7E7E7E" fill-rule="nonzero" opacity="0.400000006" mask="url(#mask-4)"></path>
                    </g>
                </g>
                <path d="M11.3234177,66.0871849 C8.29764885,67.4259119 5.08012247,68.8425264 1.13277758,69.9924012 L1.13277758,69.9924012 C2.01635974,75.009275 3.52538888,79.807125 5.58253621,84.3062757 L5.58253621,84.3062757 L5.58879403,84.303482 C12.2367245,81.3628643 19.770472,78.0299035 34.0779769,78.0299035 L34.0779769,78.0299035 C48.3870463,78.0299035 55.9206821,81.3628643 62.5672716,84.3042643 L62.5672716,84.3042643 C68.7059718,87.0207179 74.0090291,89.3663955 85.3219426,89.3663955 L85.3219426,89.3663955 C96.6376497,89.3663955 101.940595,87.0200474 108.081977,84.303482 L108.081977,84.303482 C110.241597,83.3479349 112.50067,82.3526059 115.049727,81.4420928 L115.049727,81.4420928 C117.219627,75.9471661 118.593107,70.0546442 119.032496,63.900076 L119.032496,63.900076 C117.255498,64.569216 115.567339,65.3118854 113.814031,66.0871849 L113.814031,66.0871849 C107.16733,69.0285848 99.6322412,72.3616574 85.3219426,72.3616574 L85.3219426,72.3616574 C71.0128732,72.3616574 63.4792374,69.0285848 56.8325362,66.0871849 L56.8325362,66.0871849 C50.693836,63.3707313 45.3910021,61.0251654 34.0779769,61.0251654 L34.0779769,61.0251654 C22.7650635,61.0251654 17.4622296,63.3707313 11.3234177,66.0871849" id="Fill-6" fill="#7E7E7E" fill-rule="nonzero" opacity="0.600000024"></path>
            </g>
        </g>
    </g>
</svg>