<?xml version="1.0" encoding="UTF-8"?>
<svg width="137px" height="23px" viewBox="0 0 137 23" version="1.1" xmlns="http://www.w3.org/2000/svg" xmlns:xlink="http://www.w3.org/1999/xlink">
    <!-- Generator: Sketch 61.2 (89653) - https://sketch.com -->
    <title>download (8)</title>
    <desc>Created with Sketch.</desc>
    <defs>
        <polygon id="path-1" points="8.973 0.0349121 0.188 0.0349121 0.188 9.16363 8.973 9.16363"></polygon>
    </defs>
    <g id="Page-1" stroke="none" stroke-width="1" fill="none" fill-rule="evenodd">
        <g id="download-(8)">
            <path d="M123.905,8.46807 L123.905,4.21816 L120.105,4.21816 L120.105,8.46807 L117.803,8.46807 L117.803,11.0729 L120.105,11.0729 L120.105,19.4356 C120.105,20.1485 120.221,20.7242 120.453,21.163 C120.685,21.6017 121.001,21.9398 121.403,22.1775 C121.804,22.415 122.268,22.575 122.794,22.6573 C123.321,22.7396 123.878,22.7807 124.467,22.7807 C124.842,22.7807 125.225,22.7715 125.618,22.7532 C126.01,22.7349 126.367,22.6984 126.688,22.6436 L126.688,19.6275 C126.51,19.664 126.322,19.6915 126.126,19.7098 C125.93,19.728 125.725,19.7373 125.511,19.7373 C124.868,19.7373 124.44,19.6275 124.226,19.4082 C124.012,19.1889 123.905,18.7501 123.905,18.0921 L123.905,11.0729 L126.688,11.0729 L126.688,8.46807 L123.905,8.46807 Z M112.762,15.7067 C112.602,15.8529 112.401,15.9671 112.16,16.0494 C111.919,16.1317 111.661,16.2002 111.384,16.255 C111.108,16.3099 110.818,16.3555 110.514,16.3921 C110.211,16.4286 109.908,16.4744 109.604,16.5293 C109.319,16.5841 109.038,16.6571 108.761,16.7486 C108.485,16.8399 108.244,16.9633 108.039,17.1188 C107.834,17.2741 107.669,17.4705 107.544,17.7083 C107.419,17.9458 107.356,18.2474 107.356,18.613 C107.356,18.9603 107.419,19.2528 107.544,19.4905 C107.669,19.728 107.838,19.9154 108.052,20.0525 C108.266,20.1897 108.516,20.2856 108.802,20.3404 C109.087,20.3952 109.381,20.4227 109.685,20.4227 C110.434,20.4227 111.014,20.2946 111.424,20.0388 C111.834,19.7829 112.138,19.4768 112.334,19.1203 C112.53,18.7639 112.651,18.4028 112.695,18.0372 C112.74,17.6716 112.762,17.3792 112.762,17.1599 L112.762,15.7067 Z M103.985,12.8277 C104.038,11.9137 104.261,11.1552 104.653,10.552 C105.046,9.94867 105.546,9.4643 106.152,9.09876 C106.759,8.73313 107.441,8.47272 108.199,8.31727 C108.958,8.1619 109.72,8.08426 110.488,8.08426 C111.183,8.08426 111.888,8.1345 112.602,8.23506 C113.315,8.33562 113.966,8.53209 114.555,8.82447 C115.144,9.11703 115.626,9.52376 116,10.0447 C116.375,10.5657 116.562,11.2556 116.562,12.1148 L116.562,19.4905 C116.562,20.1302 116.598,20.7425 116.669,21.3275 C116.741,21.9124 116.866,22.3511 117.044,22.6436 L113.19,22.6436 C113.119,22.4243 113.061,22.2003 113.016,21.9718 C112.972,21.7433 112.941,21.5103 112.923,21.2726 C112.316,21.9124 111.603,22.3602 110.782,22.6161 C109.961,22.8721 109.123,23 108.266,23 C107.606,23 106.991,22.9178 106.42,22.7532 C105.849,22.5888 105.349,22.3328 104.921,21.9855 C104.493,21.6382 104.159,21.1995 103.918,20.6695 C103.677,20.1393 103.556,19.5087 103.556,18.7776 C103.556,17.9732 103.695,17.3107 103.971,16.7897 C104.248,16.2687 104.605,15.8529 105.042,15.5421 C105.479,15.2313 105.978,14.9983 106.54,14.8429 C107.102,14.6876 107.669,14.5642 108.24,14.4729 C108.81,14.3814 109.373,14.3084 109.926,14.2534 C110.479,14.1986 110.969,14.1164 111.397,14.0067 C111.826,13.897 112.165,13.7371 112.414,13.5269 C112.664,13.3167 112.78,13.0105 112.762,12.6083 C112.762,12.1879 112.695,11.8543 112.562,11.6076 C112.428,11.3608 112.249,11.1689 112.026,11.0318 C111.803,10.8947 111.545,10.8032 111.25,10.7575 C110.956,10.7119 110.639,10.6891 110.3,10.6891 C109.551,10.6891 108.962,10.8536 108.534,11.1825 C108.106,11.5116 107.856,12.06 107.785,12.8277 L103.985,12.8277 Z M88.6938,3.06665 L88.6938,22.6436 L92.4939,22.6436 L92.4939,15.2131 C92.4939,13.769 92.7258,12.7317 93.1897,12.1011 C93.6535,11.4704 94.4028,11.1552 95.4376,11.1552 C96.3475,11.1552 96.9808,11.4431 97.3376,12.0188 C97.6945,12.5947 97.8729,13.4674 97.8729,14.6374 L97.8729,22.6436 L101.673,22.6436 L101.673,13.9245 C101.673,13.0471 101.597,12.2473 101.446,11.5254 C101.294,10.8032 101.031,10.1909 100.656,9.68826 C100.281,9.18553 99.7685,8.7925 99.1173,8.50926 C98.4661,8.22592 97.632,8.08426 96.6151,8.08426 C95.9015,8.08426 95.17,8.27168 94.4207,8.64627 C93.6714,9.02112 93.0559,9.61967 92.5742,10.4423 L92.4939,10.4423 L92.4939,3.06665 L88.6938,3.06665 Z M83.1709,13.4584 L86.8908,13.4584 C86.8372,12.5443 86.6231,11.7537 86.2484,11.0866 C85.8738,10.4194 85.3876,9.86181 84.79,9.41406 C84.1922,8.96614 83.5143,8.63266 82.756,8.41326 C81.9978,8.19387 81.2084,8.08426 80.3877,8.08426 C79.2638,8.08426 78.2647,8.27616 77.3905,8.66006 C76.5163,9.04395 75.7758,9.57847 75.1693,10.2641 C74.5627,10.9496 74.1033,11.7629 73.791,12.7044 C73.4788,13.6456 73.3227,14.6647 73.3227,15.7615 C73.3227,16.8216 73.4922,17.7949 73.8312,18.6816 C74.1702,19.5681 74.6429,20.3312 75.2495,20.971 C75.8561,21.6108 76.5921,22.1089 77.4574,22.4654 C78.3227,22.8218 79.2727,23 80.3075,23 C82.145,23 83.6526,22.5065 84.8301,21.5194 C86.0076,20.5324 86.7213,19.0974 86.971,17.2147 L83.3047,17.2147 C83.1798,18.0921 82.8721,18.7912 82.3814,19.3123 C81.8908,19.8332 81.1906,20.0936 80.2807,20.0936 C79.6919,20.0936 79.1924,19.9566 78.7821,19.6823 C78.3717,19.4082 78.0461,19.0562 77.8052,18.6267 C77.5643,18.1972 77.3905,17.7173 77.2834,17.1872 C77.1764,16.6571 77.1228,16.1362 77.1228,15.6244 C77.1228,15.0943 77.1764,14.5596 77.2834,14.0204 C77.3905,13.4811 77.5733,12.9877 77.832,12.5398 C78.0908,12.0919 78.4252,11.7264 78.8355,11.4431 C79.2459,11.1597 79.7544,11.0181 80.361,11.0181 C81.9845,11.0181 82.9211,11.8315 83.1709,13.4584 Z M69.1647,8.46807 L69.1647,4.21816 L66.89,4.21816 L66.89,8.46807 L64.535,8.46807 L64.535,10.5246 L66.89,10.5246 L66.89,19.5453 C66.89,20.2034 66.9525,20.7334 67.0773,21.1356 C67.2022,21.5376 67.394,21.8485 67.6526,22.0678 C67.9114,22.2871 68.2504,22.4379 68.6696,22.5202 C69.0888,22.6025 69.5928,22.6436 70.1817,22.6436 L71.9211,22.6436 L71.9211,20.5872 L70.8774,20.5872 C70.5206,20.5872 70.2306,20.5735 70.0077,20.5461 C69.7846,20.5186 69.6107,20.4592 69.4859,20.3679 C69.3609,20.2764 69.2762,20.1485 69.2316,19.984 C69.187,19.8195 69.1647,19.6002 69.1647,19.3259 L69.1647,10.5246 L71.9211,10.5246 L71.9211,8.46807 L69.1647,8.46807 Z M63.8559,18.1469 L61.608,18.1469 C61.4117,19.0791 61.0058,19.7738 60.3903,20.2307 C59.7748,20.6877 58.9853,20.9163 58.0219,20.9163 C57.2726,20.9163 56.6214,20.7882 56.0684,20.5324 C55.5153,20.2764 55.0603,19.9336 54.7035,19.5041 C54.3467,19.0745 54.088,18.5811 53.9274,18.0236 C53.7669,17.4659 53.6955,16.8764 53.7134,16.255 L64.07,16.255 C64.1057,15.3958 64.0298,14.4911 63.8425,13.5406 C63.6551,12.59 63.3163,11.7126 62.8255,10.9084 C62.335,10.1041 61.6837,9.44146 60.872,8.92056 C60.0603,8.39947 59.0389,8.13906 57.8078,8.13906 C56.8623,8.13906 55.9925,8.32183 55.1986,8.68746 C54.4047,9.053 53.7178,9.56486 53.1379,10.223 C52.5581,10.881 52.1076,11.6578 51.7865,12.5535 C51.4655,13.4491 51.3048,14.4361 51.3048,15.5147 C51.3405,16.5932 51.4966,17.5893 51.7732,18.5033 C52.0497,19.4173 52.4645,20.2034 53.0176,20.8613 C53.5706,21.5194 54.2531,22.0312 55.0648,22.3968 C55.8766,22.7624 56.8355,22.9452 57.9416,22.9452 C59.5117,22.9452 60.8141,22.543 61.8488,21.7388 C62.8836,20.9344 63.5526,19.7373 63.8559,18.1469 Z M61.6615,14.1986 L53.7134,14.1986 C53.749,13.6502 53.8649,13.1339 54.0612,12.6494 C54.2575,12.1651 54.5252,11.7401 54.8641,11.3745 C55.2031,11.0089 55.6089,10.7209 56.0817,10.5109 C56.5545,10.3006 57.0852,10.1955 57.674,10.1955 C58.2449,10.1955 58.7668,10.3006 59.2396,10.5109 C59.7124,10.7209 60.1227,11.0043 60.4706,11.3608 C60.8185,11.7172 61.095,12.1422 61.3002,12.6358 C61.5054,13.1294 61.6258,13.6502 61.6615,14.1986 Z M29.6449,8.46807 L29.6449,22.6436 L31.9196,22.6436 L31.9196,13.8148 C31.9196,13.5406 31.9865,13.1978 32.1203,12.7866 C32.2541,12.3753 32.4682,11.9777 32.7626,11.5939 C33.0569,11.21 33.4405,10.881 33.9133,10.6068 C34.3861,10.3326 34.9525,10.1955 35.6127,10.1955 C36.1301,10.1955 36.5537,10.2732 36.8838,10.4286 C37.2139,10.5839 37.477,10.8032 37.6733,11.0866 C37.8695,11.3699 38.0078,11.7036 38.0881,12.0874 C38.1683,12.4712 38.2085,12.8916 38.2085,13.3487 L38.2085,22.6436 L40.4832,22.6436 L40.4832,13.8148 C40.4832,12.718 40.8044,11.8406 41.4466,11.1825 C42.0889,10.5246 42.972,10.1955 44.0961,10.1955 C44.6491,10.1955 45.0996,10.2778 45.4475,10.4423 C45.7954,10.6068 46.0674,10.8307 46.2637,11.114 C46.4599,11.3973 46.5937,11.731 46.665,12.1148 C46.7364,12.4987 46.7721,12.91 46.7721,13.3487 L46.7721,22.6436 L49.0468,22.6436 L49.0468,12.2519 C49.0468,11.5207 48.9353,10.8947 48.7123,10.3737 C48.4893,9.85276 48.1771,9.42776 47.7757,9.09876 C47.3743,8.76967 46.8926,8.52753 46.3306,8.37216 C45.7685,8.2167 45.1397,8.13906 44.4439,8.13906 C43.534,8.13906 42.7,8.34932 41.9417,8.76967 C41.1835,9.1901 40.5724,9.78417 40.1086,10.552 C39.8231,9.67456 39.3325,9.053 38.6367,8.68746 C37.9408,8.32183 37.1648,8.13906 36.3085,8.13906 C34.3637,8.13906 32.8741,8.94339 31.8393,10.552 L31.7857,10.552 L31.7857,8.46807 L29.6449,8.46807 Z M13.9527,15.5696 C13.9527,16.6115 14.0954,17.5802 14.3809,18.476 C14.6663,19.3716 15.0945,20.153 15.6654,20.8202 C16.2363,21.4875 16.941,22.0083 17.7796,22.3832 C18.6181,22.7578 19.5815,22.9452 20.6698,22.9452 C21.7759,22.9452 22.7438,22.7578 23.5734,22.3832 C24.403,22.0083 25.1032,21.4875 25.6742,20.8202 C26.245,20.153 26.6732,19.3716 26.9587,18.476 C27.2442,17.5802 27.3869,16.6115 27.3869,15.5696 C27.3869,14.5277 27.2442,13.5543 26.9587,12.6494 C26.6732,11.7447 26.245,10.9586 25.6742,10.2914 C25.1032,9.62423 24.403,9.09876 23.5734,8.71486 C22.7438,8.33106 21.7759,8.13906 20.6698,8.13906 C19.5815,8.13906 18.6181,8.33106 17.7796,8.71486 C16.941,9.09876 16.2363,9.62423 15.6654,10.2914 C15.0945,10.9586 14.6663,11.7447 14.3809,12.6494 C14.0954,13.5543 13.9527,14.5277 13.9527,15.5696 Z M16.3612,15.5696 C16.3612,14.7104 16.4727,13.9473 16.6957,13.2801 C16.9188,12.6128 17.2265,12.0508 17.6189,11.5939 C18.0115,11.1369 18.4709,10.7895 18.9972,10.552 C19.5235,10.3143 20.081,10.1955 20.6698,10.1955 C21.2585,10.1955 21.8161,10.3143 22.3424,10.552 C22.8687,10.7895 23.3281,11.1369 23.7206,11.5939 C24.113,12.0508 24.4208,12.6128 24.6439,13.2801 C24.8668,13.9473 24.9784,14.7104 24.9784,15.5696 C24.9784,16.4286 24.8668,17.1918 24.6439,17.859 C24.4208,18.5262 24.113,19.0837 23.7206,19.5316 C23.3281,19.9794 22.8687,20.3221 22.3424,20.5598 C21.8161,20.7974 21.2585,20.9163 20.6698,20.9163 C20.081,20.9163 19.5235,20.7974 18.9972,20.5598 C18.4709,20.3221 18.0115,19.9794 17.6189,19.5316 C17.2265,19.0837 16.9188,18.5262 16.6957,17.859 C16.4727,17.1918 16.3612,16.4286 16.3612,15.5696 Z M10.1425,13.0196 L12.4976,13.0196 C12.4083,12.1788 12.1943,11.4522 11.8553,10.8398 C11.5163,10.2274 11.0837,9.72014 10.5573,9.31806 C10.031,8.91599 9.42444,8.61896 8.73754,8.42696 C8.05064,8.23497 7.31479,8.13906 6.5298,8.13906 C5.44144,8.13906 4.48696,8.33562 3.66628,8.72856 C2.84559,9.12159 2.1632,9.66077 1.61902,10.3464 C1.07493,11.0318 0.669046,11.836 0.401374,12.7592 C0.133792,13.6822 0,14.6739 0,15.7341 C0,16.7942 0.13821,17.7676 0.414807,18.6542 C0.691315,19.5406 1.1017,20.3038 1.64579,20.9436 C2.18997,21.5834 2.86795,22.0769 3.67971,22.4243 C4.49147,22.7715 5.42359,22.9452 6.47625,22.9452 C8.24249,22.9452 9.63855,22.4699 10.6644,21.5194 C11.6902,20.5689 12.3281,19.2162 12.5778,17.4615 L10.2495,17.4615 C10.1069,18.5583 9.71879,19.4082 9.08545,20.0114 C8.45211,20.6146 7.57345,20.9163 6.44947,20.9163 C5.7358,20.9163 5.12031,20.7699 4.6029,20.4775 C4.08559,20.185 3.66628,19.7966 3.34514,19.3123 C3.02401,18.8278 2.78762,18.2749 2.63598,17.6534 C2.48433,17.0319 2.40851,16.3921 2.40851,15.7341 C2.40851,15.0212 2.47983,14.3312 2.62263,13.6639 C2.76535,12.9967 3.00174,12.4072 3.3318,11.8954 C3.66186,11.3837 4.10344,10.9724 4.65646,10.6616 C5.20956,10.3508 5.89646,10.1955 6.71706,10.1955 C7.68055,10.1955 8.44769,10.4423 9.01855,10.9358 C9.58951,11.4293 9.96411,12.1239 10.1425,13.0196 Z" id="Shape" fill="#7E7E7E"></path>
            <g id="Clipped" transform="translate(128.000000, 0.000000)">
                <mask id="mask-2" fill="white">
                    <use xlink:href="#path-1"></use>
                </mask>
                <g id="Path"></g>
                <path d="M4.617,4.34302 C4.768,4.34302 4.914,4.33691 5.053,4.32471 C5.193,4.31251 5.315,4.27796 5.418,4.22088 C5.522,4.16418 5.606,4.08476 5.67,3.983 C5.734,3.88133 5.766,3.73694 5.766,3.54975 C5.766,3.39523 5.732,3.27319 5.664,3.18353 C5.596,3.09416 5.51,3.02498 5.407,2.97607 C5.303,2.92734 5.187,2.89683 5.06,2.88463 C4.932,2.87242 4.808,2.86632 4.688,2.86632 L3.707,2.86632 L3.707,4.34302 L4.617,4.34302 Z M3.707,7.21098 L2.893,7.21098 L2.893,2.15839 L4.772,2.15839 C5.371,2.15839 5.821,2.27245 6.125,2.5002 C6.428,2.72804 6.579,3.09811 6.579,3.61068 C6.579,4.06655 6.456,4.4 6.208,4.61141 C5.961,4.82311 5.654,4.94918 5.287,4.98983 L6.675,7.21098 L5.754,7.21098 L4.473,5.05085 L3.707,5.05085 L3.707,7.21098 Z M8.016,4.59921 C8.016,4.04608 7.928,3.53755 7.753,3.0737 C7.577,2.61004 7.334,2.21143 7.022,1.8777 C6.711,1.54424 6.348,1.28589 5.933,1.10274 C5.518,0.919678 5.071,0.828241 4.593,0.828241 C4.106,0.828241 3.653,0.919678 3.234,1.10274 C2.815,1.28589 2.45,1.54424 2.139,1.8777 C1.828,2.21143 1.584,2.61004 1.409,3.0737 C1.233,3.53755 1.146,4.04608 1.146,4.59921 C1.146,5.12004 1.225,5.6082 1.385,6.06379 C1.544,6.51957 1.774,6.91808 2.073,7.2597 C2.372,7.60151 2.733,7.87206 3.156,8.07136 C3.579,8.27076 4.058,8.37027 4.593,8.37027 C5.071,8.37027 5.518,8.27883 5.933,8.09577 C6.348,7.91262 6.711,7.65445 7.022,7.32081 C7.334,6.98727 7.577,6.59063 7.753,6.13091 C7.928,5.67129 8.016,5.16069 8.016,4.59921 Z M8.973,4.59921 C8.973,5.28273 8.855,5.90514 8.62,6.46653 C8.385,7.02791 8.066,7.508 7.663,7.90661 C7.26,8.30531 6.793,8.61445 6.262,8.83412 C5.732,9.05379 5.175,9.16363 4.593,9.16363 C3.946,9.16363 3.354,9.0476 2.815,8.81581 C2.277,8.58394 1.814,8.26466 1.427,7.8577 C1.04,7.45102 0.737,6.96896 0.517,6.41152 C0.298,5.85445 0.188,5.25025 0.188,4.59921 C0.188,3.91578 0.306,3.29337 0.541,2.73208 C0.776,2.1706 1.096,1.69069 1.499,1.292 C1.902,0.893392 2.37,0.584159 2.905,0.364486 C3.44,0.144718 4.002,0.0348816 4.593,0.0348816 C5.175,0.0348816 5.732,0.144718 6.262,0.364486 C6.793,0.584159 7.26,0.893392 7.663,1.292 C8.066,1.69069 8.385,2.1706 8.62,2.73208 C8.855,3.29337 8.973,3.91578 8.973,4.59921 Z" id="Shape" fill="#7E7E7E" mask="url(#mask-2)"></path>
            </g>
        </g>
    </g>
</svg>