<?xml version="1.0" encoding="UTF-8"?>
<svg width="350px" height="57px" viewBox="0 0 350 57" version="1.1" xmlns="http://www.w3.org/2000/svg" xmlns:xlink="http://www.w3.org/1999/xlink">
    <!-- Generator: Sketch 61.2 (89653) - https://sketch.com -->
    <title>download (9)</title>
    <desc>Created with Sketch.</desc>
    <defs>
        <polygon id="path-1" points="55.0086582 29.1094093 55.0086582 0.185434413 0.129201707 0.185434413 0.129201707 29.1094093"></polygon>
    </defs>
    <g id="Page-1" stroke="none" stroke-width="1" fill="none" fill-rule="evenodd">
        <g id="download-(9)">
            <g id="Page-1" transform="translate(0.000000, 2.000000)">
                <path d="M13.6813621,28.3919304 C6.55463772,29.3882348 2.80087825,33.8696081 1.3818468,37.9287 L9.94241684e-05,41.9927834 C7.45318364,41.9927834 14.3818054,40.7746066 17.0063549,33.2319433 L18.8640954,27.9284692 C18.8640954,27.9284692 16.377497,28.0150718 13.6813621,28.3919304" id="Fill-1" fill="#7E7E7E" fill-rule="nonzero"></path>
                <g id="Group-5" transform="translate(4.225527, 0.064141)">
                    <g id="Fill-3-Clipped">
                        <mask id="mask-2" fill="white">
                            <use xlink:href="#path-1"></use>
                        </mask>
                        <g id="path-1"></g>
                        <path d="M39.9212395,8.76852704 C37.9948962,12.982106 34.215535,17.0134951 24.897502,17.0134951 L18.49036,17.0367056 C19.2526948,14.8369493 20.6456274,11.8867203 24.6501843,9.93653922 C26.7865612,8.89605999 29.5925598,8.24841221 33.2889018,8.2384292 L40.1794938,8.2384292 L39.9212395,8.76852704 Z M53.6194043,2.55634941 C52.0728613,0.857490656 49.5770662,0.185384498 45.7552011,0.185384498 L26.9697502,0.185384498 C20.4554787,0.185384498 15.3455736,1.96410733 11.3482249,5.62313012 C8.46616678,8.26114055 6.16052032,11.9221599 4.33111562,16.7756499 C4.32390737,16.7951168 1.06105472,26.3748133 0.129201707,29.1094093 C0.129201707,29.1094093 3.26280293,25.3270964 13.9511496,25.1147078 C14.3326898,25.1012308 14.7196984,25.0919965 15.1186379,25.0909982 L31.9210738,25.0982359 C38.4619413,25.0982359 43.5927255,23.3120258 47.6067277,19.6380285 C50.4656697,17.0209824 52.754414,13.388165 54.5800903,8.60156119 C55.4388666,6.06213299 54.9506939,4.01861081 53.6194043,2.55634941 L53.6194043,2.55634941 Z" id="Fill-3" fill="#7E7E7E" fill-rule="nonzero" mask="url(#mask-2)"></path>
                    </g>
                </g>
            </g>
            <path d="M89.704,44.384 C92.264,44.384 94.312,42.336 94.312,39.904 L94.312,28.832 L105.192,28.832 C114.408,28.832 119.528,22.496 119.528,15.072 C119.528,7.584 114.472,1.312 105.192,1.312 L90.344,1.312 C87.528,1.312 85.224,3.616 85.224,6.432 L85.224,39.904 C85.224,42.336 87.272,44.384 89.704,44.384 Z M103.976,20.832 L94.312,20.832 L94.312,9.312 L103.976,9.312 C107.56,9.312 110.248,11.488 110.248,15.072 C110.248,18.592 107.56,20.832 103.976,20.832 Z M133.736,44.768 C137.768,44.768 141.416,43.296 143.528,40.8 C143.528,43.872 146.408,44.384 147.048,44.384 L147.688,44.384 C149.864,44.384 151.656,42.592 151.656,40.352 L151.656,24.032 C151.656,15.136 145.192,12.32 138.152,12.32 C134.568,12.32 127.656,13.6 125.736,16.672 C125.48,17.12 125.288,17.696 125.288,18.272 C125.288,20.192 126.888,21.408 128.36,21.408 C128.872,21.408 129.384,21.216 129.832,20.96 C131.944,19.552 134.312,18.976 136.744,18.976 C140.84,18.976 143.528,21.024 143.528,24.16 L143.528,28.32 C141.48,25.888 137.832,24.544 133.736,24.544 C128.808,24.544 122.984,27.296 122.984,34.528 C122.984,41.44 128.808,44.768 133.736,44.768 Z M137,39.264 C133.8,39.264 131.176,37.6 131.176,34.72 C131.176,31.712 133.8,30.048 137,30.048 C139.624,30.048 142.184,30.944 143.528,32.736 L143.528,36.576 C142.184,38.368 139.624,39.264 137,39.264 Z M163.752,56.544 C168.296,56.544 172.2,54.432 174.376,49.056 L186.856,18.144 C187.048,17.696 187.112,17.184 187.112,16.672 C187.112,14.688 185.576,12.704 183.144,12.704 C181.416,12.704 179.816,13.792 179.24,15.392 L172.072,34.592 L164.904,15.392 C164.264,13.728 162.728,12.704 161.128,12.704 C158.632,12.704 157.032,14.752 157.032,16.736 C157.032,17.184 157.096,17.632 157.288,18.08 L167.848,44.448 L166.696,47.072 C166.12,48.352 164.968,48.992 163.624,49.248 C163.304,49.312 162.92,49.312 162.6,49.312 C160.296,49.312 158.76,50.976 158.76,52.896 C158.76,55.136 160.936,56.544 163.752,56.544 Z M196.712,44.384 C198.888,44.384 200.68,42.592 200.68,40.352 L200.68,23.584 C202.152,21.664 204.52,20.64 207.016,20.32 C209.256,20 210.92,18.592 210.92,16.16 C210.92,14.304 209.704,12.832 207.336,12.832 C204.264,12.832 202.216,15.264 200.68,17.312 L200.68,16.672 C200.68,14.496 198.888,12.704 196.712,12.704 C194.344,12.704 192.552,14.496 192.552,16.672 L192.552,40.352 C192.552,42.592 194.344,44.384 196.584,44.384 L196.712,44.384 Z M229.928,44.768 C240.168,44.768 246.312,37.344 246.312,28.512 C246.312,19.744 240.168,12.32 229.928,12.32 C219.752,12.32 213.608,19.744 213.608,28.512 C213.608,37.344 219.752,44.768 229.928,44.768 Z M229.928,37.536 C224.872,37.536 222.056,33.376 222.056,28.512 C222.056,23.712 224.872,19.552 229.928,19.552 C234.984,19.552 237.864,23.712 237.864,28.512 C237.864,33.376 234.984,37.536 229.928,37.536 Z M256.36,44.384 C258.664,44.384 260.456,42.592 260.456,40.352 L260.456,4.896 C260.456,2.72 258.664,0.928 256.488,0.928 C254.12,0.928 252.328,2.72 252.328,4.896 L252.328,40.352 C252.328,42.592 254.12,44.384 256.36,44.384 Z M272.552,44.384 C274.856,44.384 276.648,42.592 276.648,40.352 L276.648,4.896 C276.648,2.72 274.856,0.928 272.68,0.928 C270.312,0.928 268.52,2.72 268.52,4.896 L268.52,40.352 C268.52,42.592 270.312,44.384 272.552,44.384 Z M299.24,44.768 C303.336,44.768 311.208,43.296 311.208,39.648 C311.208,37.728 309.48,36.384 307.752,36.384 C307.24,36.384 306.664,36.512 306.152,36.768 C304.232,37.792 301.864,38.304 300.136,38.304 C294.888,38.304 291.752,35.04 291.24,31.136 L310.312,31.136 C312.424,31.136 314.088,29.408 314.088,27.424 C314.088,25.888 313.64,24.16 313.192,22.752 C311.016,16.352 305.704,12.32 298.728,12.32 C289.32,12.32 282.728,19.552 282.728,28.512 C282.728,38.432 289.832,44.768 299.24,44.768 Z M306.344,25.632 L291.112,25.632 C291.496,22.56 293.672,18.784 298.728,18.784 C304.104,18.784 306.152,22.688 306.344,25.632 Z M331.816,44.768 C335.528,44.768 338.92,43.104 341.352,40.032 L341.352,40.352 C341.352,42.592 343.144,44.384 345.384,44.384 C347.752,44.384 349.544,42.592 349.544,40.352 L349.544,4.96 C349.544,2.72 347.752,0.928 345.512,0.928 C343.144,0.928 341.352,2.72 341.352,4.96 L341.352,17.056 C338.92,13.92 335.464,12.32 331.816,12.32 C323.944,12.32 318.12,18.464 318.12,28.576 C318.12,38.88 324.008,44.768 331.816,44.768 Z M334.312,37.536 C329.704,37.536 326.504,33.888 326.504,28.576 C326.504,23.2 329.704,19.552 334.312,19.552 C337.064,19.552 340.008,21.024 341.352,23.072 L341.352,34.016 C340.008,36.064 337.064,37.536 334.312,37.536 Z" id="Payrolled" fill="#7E7E7E" fill-rule="nonzero"></path>
        </g>
    </g>
</svg>