<?xml version="1.0" encoding="UTF-8"?>
<svg width="134px" height="55px" viewBox="0 0 134 55" version="1.1" xmlns="http://www.w3.org/2000/svg" xmlns:xlink="http://www.w3.org/1999/xlink">
    <!-- Generator: Sketch 61.2 (89653) - https://sketch.com -->
    <title>download (10)</title>
    <desc>Created with Sketch.</desc>
    <g id="Page-1" stroke="none" stroke-width="1" fill="none" fill-rule="evenodd">
        <g id="download-(10)" transform="translate(1.000000, 3.000000)" fill="#7E7E7E">
            <path d="M55.9504,37.0704 L55.9504,31.223 L63.6853,31.223 L63.6853,27.4572 L55.9504,27.4572 L55.9504,24.6739 L64.5032,24.6739 L64.5032,20.6976 L51.417,20.6976 L51.417,37.0704 L55.9504,37.0704 Z M69.9246,37.3511 C70.7659,37.3511 71.4864,37.2068 72.0862,36.9184 C72.686,36.6299 73.204,36.244 73.6402,35.7606 L73.6402,37.0704 L78.0334,37.0704 L78.0334,29.7962 C78.0334,28.9074 77.9282,28.1316 77.7179,27.4689 C77.5076,26.8062 77.161,26.241 76.678,25.7732 C76.1795,25.2742 75.5369,24.8922 74.7502,24.6271 C73.9634,24.362 73.0014,24.2295 71.8642,24.2295 C70.7737,24.2295 69.8273,24.3191 69.025,24.4985 C68.2226,24.6778 67.4632,24.9156 66.7465,25.2118 L67.6579,28.3461 C68.2187,28.1277 68.7718,27.9562 69.3171,27.8315 C69.8623,27.7067 70.4699,27.6444 71.1398,27.6444 C71.9966,27.6444 72.6314,27.8237 73.0443,28.1823 C73.4571,28.541 73.6635,29.0477 73.6635,29.7027 L73.6635,29.9132 C73.3052,29.7884 72.8573,29.6754 72.3199,29.574 C71.7824,29.4727 71.2177,29.422 70.6257,29.422 C69.8779,29.422 69.2002,29.5077 68.5926,29.6793 C67.9851,29.8508 67.4671,30.1003 67.0386,30.4277 C66.6102,30.7552 66.2753,31.1684 66.0338,31.6674 C65.7923,32.1664 65.6716,32.7433 65.6716,33.3982 L65.6716,33.445 C65.6716,34.0843 65.7807,34.6457 65.9988,35.1291 C66.2169,35.6124 66.5168,36.0179 66.8984,36.3453 C67.2801,36.6728 67.728,36.9223 68.2421,37.0938 C68.7562,37.2653 69.3171,37.3511 69.9246,37.3511 Z M71.5137,34.5677 C71.0619,34.5677 70.688,34.4469 70.392,34.2052 C70.096,33.9635 69.948,33.6243 69.948,33.1877 L69.948,33.1409 C69.948,32.6731 70.1233,32.295 70.4738,32.0065 C70.8243,31.7181 71.3267,31.5738 71.981,31.5738 C72.3082,31.5738 72.6237,31.605 72.9274,31.6674 C73.2312,31.7298 73.4922,31.8077 73.7103,31.9013 L73.7103,32.486 C73.7103,33.1253 73.5078,33.6321 73.1027,34.0064 C72.6977,34.3806 72.168,34.5677 71.5137,34.5677 Z M84.927,23.2705 L84.927,19.9959 L80.3001,19.9959 L80.3001,23.2705 L84.927,23.2705 Z M84.8335,37.0704 L84.8335,24.4166 L80.3936,24.4166 L80.3936,37.0704 L84.8335,37.0704 Z M91.844,37.0704 L91.844,19.9959 L87.4041,19.9959 L87.4041,37.0704 L91.844,37.0704 Z M100.771,37.3745 C101.783,37.3745 102.718,37.199 103.575,36.8482 C104.432,36.4973 105.172,36.0218 105.795,35.4214 C106.418,34.8211 106.905,34.1194 107.255,33.3164 C107.606,32.5133 107.781,31.6596 107.781,30.7552 L107.781,30.7084 C107.781,29.804 107.61,28.9542 107.267,28.1589 C106.924,27.3637 106.441,26.6698 105.818,26.0773 C105.195,25.4847 104.459,25.013 103.61,24.6622 C102.761,24.3113 101.83,24.1359 100.817,24.1359 C99.805,24.1359 98.8701,24.3113 98.0132,24.6622 C97.1564,25.013 96.4164,25.4886 95.7933,26.0889 C95.1701,26.6893 94.6833,27.391 94.3327,28.194 C93.9822,28.9971 93.8069,29.8508 93.8069,30.7552 L93.8069,30.802 C93.8069,31.7064 93.9783,32.5562 94.321,33.3514 C94.6638,34.1467 95.1467,34.8445 95.7699,35.4448 C96.393,36.0451 97.1291,36.5168 97.9782,36.8599 C98.8272,37.2029 99.758,37.3745 100.771,37.3745 Z M100.817,33.6087 C100.428,33.6087 100.07,33.5308 99.742,33.3748 C99.415,33.2189 99.131,33.0123 98.8895,32.755 C98.6481,32.4977 98.4611,32.1975 98.3287,31.8545 C98.1963,31.5115 98.1301,31.145 98.1301,30.7552 L98.1301,30.7084 C98.1301,30.3342 98.1924,29.9755 98.317,29.6325 C98.4416,29.2894 98.6169,28.9893 98.8428,28.732 C99.069,28.4747 99.345,28.272 99.672,28.1238 C100,27.9757 100.366,27.9016 100.771,27.9016 C101.16,27.9016 101.518,27.9796 101.846,28.1355 C102.173,28.2915 102.457,28.4981 102.699,28.7554 C102.94,29.0127 103.127,29.3128 103.259,29.6559 C103.392,29.9989 103.458,30.3654 103.458,30.7552 L103.458,30.802 C103.458,31.1762 103.396,31.5348 103.271,31.8779 C103.146,32.2209 102.971,32.5211 102.745,32.7784 C102.519,33.0357 102.243,33.2384 101.916,33.3865 C101.589,33.5347 101.222,33.6087 100.817,33.6087 Z M114.091,37.0704 L114.091,33.1409 C114.091,31.6752 114.402,30.5993 115.025,29.9132 C115.648,29.2271 116.544,28.884 117.713,28.884 L118.087,28.884 L118.087,24.2061 C117.027,24.1593 116.186,24.3932 115.563,24.9078 C114.94,25.4223 114.449,26.1084 114.091,26.9661 L114.091,24.4166 L109.651,24.4166 L109.651,37.0704 L114.091,37.0704 Z M123.391,40.8829 C124.014,40.8829 124.567,40.8049 125.05,40.649 C125.533,40.4931 125.962,40.2514 126.336,39.9239 C126.709,39.5965 127.044,39.1716 127.34,38.6492 C127.636,38.1268 127.925,37.4992 128.205,36.7663 L132.832,24.4166 L128.275,24.4166 L125.892,32.0416 L123.368,24.4166 L118.717,24.4166 L123.672,36.8365 C123.531,37.0392 123.379,37.1756 123.216,37.2458 C123.052,37.316 122.861,37.3511 122.643,37.3511 C122.394,37.3511 122.098,37.2926 121.755,37.1756 C121.413,37.0587 121.062,36.8911 120.704,36.6728 L119.325,39.7836 C119.917,40.1111 120.544,40.3761 121.206,40.5788 C121.868,40.7816 122.597,40.8829 123.391,40.8829 Z" id="Shape" fill-rule="nonzero"></path>
            <polygon id="Path" fill-rule="nonzero" points="38.7813 15.9202 0 15.9202 0 45.5305 38.7813 45.5305"></polygon>
            <polygon id="Path" stroke="#000000" stroke-width="2" points="0.62158 16.3534 0.62158 44.6991 28.9618 36.3561 28.9618 5.86505"></polygon>
            <polygon id="Path" stroke="#000000" stroke-width="2" points="0.49731 16.1465 0.49731 44.5807 18.8936 31.8331 18.8936 0.09406"></polygon>
            <polyline id="Path" points="26.1028 45.0328 32.9404 51.8767 32.9404 45.1414"></polyline>
        </g>
    </g>
</svg>