<?xml version="1.0" encoding="UTF-8"?>
<svg width="139px" height="26px" viewBox="0 0 139 26" version="1.1" xmlns="http://www.w3.org/2000/svg" xmlns:xlink="http://www.w3.org/1999/xlink">
    <!-- Generator: Sketch 61.2 (89653) - https://sketch.com -->
    <title>download (7)</title>
    <desc>Created with Sketch.</desc>
    <g id="Page-1" stroke="none" stroke-width="1" fill="none" fill-rule="evenodd">
        <g id="download-(7)" fill="#7E7E7E" fill-rule="nonzero">
            <path d="M10.4562,1.56242 L1.56242,10.4562 C0.699519,11.3191 0.699519,12.7181 1.56242,13.581 C2.42532,14.4439 3.82436,14.4439 4.68726,13.581 L13.581,4.68726 C14.4439,3.82436 14.4439,2.42532 13.581,1.56242 C12.7181,0.699517 11.3191,0.699518 10.4562,1.56242 Z" id="Path"></path>
            <path d="M11.1773,11.8984 L7.09098,15.9848 C6.22808,16.8477 6.22808,18.2467 7.09098,19.1096 C7.95389,19.9725 9.35292,19.9725 10.2158,19.1096 L14.3022,15.0233 C15.1651,14.1604 15.1651,12.7613 14.3022,11.8984 C13.4393,11.0355 12.0402,11.0355 11.1773,11.8984 Z" id="Path" opacity="0.6"></path>
            <path d="M15.7444,21.5133 C14.8815,20.6504 13.4825,20.6504 12.6195,21.5133 C11.7566,22.3762 11.7566,23.7753 12.6195,24.6382 C13.4825,25.5011 14.8815,25.5011 15.7444,24.6382 C16.6073,23.7753 16.6073,22.3762 15.7444,21.5133 Z" id="Path" opacity="0.4"></path>
            <path d="M34.445,20.4109 L34.445,10.3617 L38.2897,10.3617 L38.2897,7.52453 L34.445,7.52453 L34.445,6.64953 C34.445,5.05862 35.2935,4.31619 36.4071,4.31619 C37.07,4.31619 37.7064,4.55483 38.3958,5.00559 L39.5889,2.59271 C38.5283,1.90332 37.3351,1.5321 36.195,1.5321 C33.57,1.5321 31.2101,3.14953 31.2101,6.64953 L31.2101,7.52453 L28.7708,7.52453 L28.7708,10.3617 L31.2101,10.3617 L31.2101,20.4109 L34.445,20.4109 Z" id="Path"></path>
            <polygon id="Path" points="40.8436 1.8768 40.8436 20.4109 44.052 20.4109 44.052 1.8768"></polygon>
            <path d="M50.1117,7.28589 L50.1117,20.4109 L46.8769,20.4109 L46.8769,7.28589 L50.1117,7.28589 Z M46.5852,3.65332 C46.5852,6.17226 50.4034,6.17226 50.4034,3.65332 C50.4034,1.13438 46.5852,1.13438 46.5852,3.65332 Z" id="Shape"></path>
            <path d="M60.2782,17.6003 C58.0775,17.6003 56.5661,15.9298 56.5661,13.8882 C56.5661,11.8465 57.9449,10.176 60.2782,10.176 C62.6115,10.176 63.9903,11.8465 63.9903,13.8882 C63.9903,15.9298 62.479,17.6003 60.2782,17.6003 Z M56.2744,25.873 L56.2744,18.873 C57.2025,20.3048 59.2441,20.7291 60.6229,20.7291 C64.8123,20.7291 67.2252,17.7063 67.2252,13.8882 C67.2252,10.0435 64.5472,7.04726 60.5168,7.04726 C59.032,7.04726 57.282,7.68362 56.2744,9.14195 L56.0623,7.33892 L53.0396,7.33892 L53.0396,25.873 L56.2744,25.873 Z" id="Shape"></path>
            <path d="M69.6115,7.33892 L69.6115,20.4109 L72.8464,20.4109 L72.8464,13.517 C72.8464,11.1041 74.4108,10.2026 76.1078,10.2026 C77.1684,10.2026 77.7782,10.4942 78.4411,11.051 L79.8994,8.24044 C79.1835,7.52453 77.8843,6.99423 76.532,6.99423 C75.2062,6.99423 73.854,7.23286 72.8464,8.85029 L72.6078,7.33892 L69.6115,7.33892 Z" id="Path"></path>
            <path d="M94.0743,15.0283 C94.5781,9.64574 91.847,6.9412 87.472,6.9412 C83.2296,6.9412 80.525,9.80483 80.525,13.7821 C80.525,17.9715 83.203,20.7556 87.7106,20.7556 C89.6993,20.7556 91.9531,20.0662 93.3318,18.6344 L91.2636,16.5927 C90.5212,17.3617 88.9568,17.8124 87.7636,17.8124 C85.4833,17.8124 84.078,16.6457 83.8659,15.0283 L94.0743,15.0283 Z M83.919,12.3503 C84.3962,10.6533 85.828,9.80483 87.578,9.80483 C89.4341,9.80483 90.7599,10.6533 90.972,12.3503 L83.919,12.3503 Z" id="Shape"></path>
            <path d="M106.828,9.14195 C106.086,7.84271 104.415,7.02074 102.665,7.02074 C98.8472,6.99423 95.851,9.35407 95.851,13.8617 C95.851,18.4488 98.7146,20.8351 102.586,20.8086 C104.044,20.7821 106.086,20.0397 106.828,18.5018 L106.987,20.4109 L110.037,20.4109 L110.037,7.33892 L106.934,7.33892 L106.828,9.14195 Z M102.957,9.91089 C108.048,9.91089 108.048,17.8389 102.957,17.8389 C100.809,17.8389 99.0858,16.3541 99.0858,13.8617 C99.0858,11.3692 100.809,9.91089 102.957,9.91089 Z" id="Shape"></path>
            <path d="M122.103,16.6192 C121.307,17.4147 120.273,17.7063 119.239,17.7063 C117.224,17.7063 115.527,16.3806 115.527,13.8882 C115.527,11.6079 117.118,10.017 119.292,10.017 C120.194,10.017 121.148,10.3617 121.917,11.051 L123.959,8.90332 C122.527,7.49801 121.095,6.96771 119.239,6.96771 C115.448,6.96771 112.292,9.24801 112.292,13.8882 C112.292,18.5283 115.448,20.8086 119.239,20.8086 C121.175,20.8086 122.766,20.2253 124.277,18.7404 L122.103,16.6192 Z" id="Path"></path>
            <path d="M125.697,1.85029 L125.697,20.4109 L128.932,20.4109 L128.932,13.7291 C128.932,11.767 130.258,10.1495 132.167,10.1495 C133.89,10.1495 135.137,11.1571 135.137,13.5435 L135.137,20.4109 L138.372,20.4109 L138.372,13.517 C138.372,9.67226 136.728,7.15332 133.015,7.15332 C131.531,7.15332 130.099,7.60407 128.932,9.11544 L128.932,1.85029 L125.697,1.85029 Z" id="Path"></path>
        </g>
    </g>
</svg>