<?xml version="1.0" encoding="UTF-8"?>
<svg width="422px" height="129px" viewBox="0 0 422 129" version="1.1" xmlns="http://www.w3.org/2000/svg" xmlns:xlink="http://www.w3.org/1999/xlink">
    <!-- Generator: Sketch 61.2 (89653) - https://sketch.com -->
    <title>Group</title>
    <desc>Created with Sketch.</desc>
    <defs>
        <path d="M42.1107858,0.0177677454 C25.67618,0.0177677454 10.7984311,6.68111926 0.0314008582,17.4532898 L0.0314008582,17.4532898 C4.40707134,16.3447613 9.67202306,15.5853299 16.4818747,15.5853299 L16.4818747,15.5853299 C30.790944,15.5853299 38.3245798,18.9184025 44.9711693,21.8596907 L44.9711693,21.8596907 C51.1098695,24.576256 56.4129269,26.9218219 67.7258403,26.9218219 L67.7258403,26.9218219 C77.9739183,26.9218219 83.2906088,24.9958654 88.7644153,22.6149875 L88.7644153,22.6149875 C77.8666413,8.85526551 61.0259476,0.0177677454 42.1107858,0.0177677454 Z" id="path-1"></path>
        <path d="M0.0358707313,4.33063651 C10.9337565,18.0919229 27.7752324,26.9309852 46.6924057,26.9309852 L46.6924057,26.9309852 C63.1283524,26.9309852 78.0074423,20.2659574 88.7752548,9.49199893 L88.7752548,9.49199893 C84.3960084,10.6026506 79.1262516,11.3636465 72.3074602,11.3636465 L72.3074602,11.3636465 C57.9983908,11.3636465 50.4647551,8.03068568 43.8180538,5.08928571 L43.8180538,5.08928571 C37.6793537,2.37283211 32.3765198,0.0271544788 21.0634945,0.0271544788 L21.0634945,0.0271544788 C10.8223449,0.0271544788 5.50565439,1.95109959 0.0358707313,4.33063651" id="path-3"></path>
    </defs>
    <g id="Page-1" stroke="none" stroke-width="1" fill="none" fill-rule="evenodd">
        <g id="Pink-1" transform="translate(-496.000000, -344.000000)">
            <g id="Group" transform="translate(496.000000, 343.104360)">
                <path d="M214.131737,97.89564 L214.131737,82.8058196 L177.035928,82.8058196 L177.035928,9.87168787 L160.05988,9.87168787 L160.05988,97.89564 L214.131737,97.89564 Z M245.155689,99.153125 C251.610779,99.153125 257.269461,97.0992328 262.131737,92.9914484 L262.131737,92.9914484 L262.131737,97.89564 L277.8503,97.89564 L277.8503,36.907616 L262.131737,36.907616 L262.131737,41.8118076 C257.101797,37.7040232 251.149701,35.650131 244.275449,35.650131 C235.976048,35.650131 228.913174,38.7100112 223.086827,44.8297717 C217.260479,50.9495322 214.347306,58.4944424 214.347306,67.4645022 C214.347306,75.6800711 216.946108,82.8058196 222.143713,88.8417478 C228.095809,95.7159993 235.766467,99.153125 245.155689,99.153125 Z M246.790419,84.0633046 C242.179641,84.0633046 238.344312,82.4914484 235.284431,79.3477358 C232.224551,76.2040232 230.694611,72.2429454 230.694611,67.4645022 C230.694611,62.9375561 232.161677,59.0183945 235.095809,55.7070172 C238.02994,52.39564 241.802395,50.7399513 246.413174,50.7399513 C252.700599,50.7399513 257.730539,53.2549214 261.502994,58.2848615 L261.502994,58.2848615 L261.502994,76.5183945 C257.982036,81.5483346 253.077845,84.0633046 246.790419,84.0633046 Z M306.988025,97.89564 L306.988025,58.2848615 C308.329342,56.3567178 310.362276,54.6171969 313.086827,53.0662987 C315.811378,51.5154004 318.724551,50.7399513 321.826348,50.7399513 C325.682635,50.7399513 328.742516,51.8716879 331.005989,54.1351609 C333.437126,56.5662987 334.652695,60.3806699 334.652695,65.5782747 L334.652695,65.5782747 L334.652695,97.89564 L351.000001,97.89564 L351.000001,66.8357597 C351.000001,57.5303705 348.904192,50.404622 344.712575,45.4585142 C339.263474,38.9195921 332.221557,35.650131 323.586827,35.650131 C317.131737,35.650131 311.389222,37.7040232 306.359282,41.8118076 L306.359282,41.8118076 L306.359282,36.907616 L290.640719,36.907616 L290.640719,97.89564 L306.988025,97.89564 Z M388.437127,129.332766 C394.221558,129.332766 399.482037,128.263903 404.218564,126.126179 C408.955091,123.988454 412.706588,120.991448 415.473055,117.135161 C419.161678,111.937556 421.005989,104.392646 421.005989,94.5004304 L421.005989,94.5004304 L421.005989,36.907616 L405.287426,36.907616 L405.287426,41.8118076 C400.257486,37.7040232 394.30539,35.650131 387.431139,35.650131 C379.131737,35.650131 372.068863,38.7100112 366.242516,44.8297717 C360.416169,50.9495322 357.502995,58.4944424 357.502995,67.4645022 C357.502995,75.7639034 360.059881,82.8896519 365.173654,88.8417478 C367.940121,92.0273765 371.377246,94.5423466 375.485031,96.3866579 C379.592815,98.2309693 383.868264,99.153125 388.311378,99.153125 C394.431139,99.153125 399.88024,97.3088136 404.658683,93.6201909 L404.658683,93.6201909 L404.658683,95.6321669 C404.658683,102.422586 403.401198,107.201029 400.886228,109.967496 C398.119761,113.236957 393.970061,114.871688 388.437127,114.871688 C381.227546,114.871688 374.898204,111.937556 369.449103,106.069293 L369.449103,106.069293 L359.137725,116.757915 C362.239522,120.446538 366.452097,123.464502 371.77545,125.811808 C377.098803,128.159113 382.652695,129.332766 388.437127,129.332766 Z M389.946109,84.0633046 C385.33533,84.0633046 381.500001,82.4914484 378.440121,79.3477358 C375.38024,76.2040232 373.8503,72.2429454 373.8503,67.4645022 C373.8503,62.9375561 375.317366,59.0183945 378.251498,55.7070172 C381.18563,52.39564 384.958085,50.7399513 389.568863,50.7399513 C395.856288,50.7399513 400.886228,53.2549214 404.658683,58.2848615 L404.658683,58.2848615 L404.658683,76.5183945 C401.137725,81.5483346 396.233534,84.0633046 389.946109,84.0633046 Z" id="Lang" fill="#000000" fill-rule="nonzero"></path>
                <g id="Group-18" transform="translate(0.000000, 0.895640)">
                    <g id="Group-8" transform="translate(1.057572, 60.995888)"></g>
                    <g id="Group-11" transform="translate(0.275344, 29.818523)" fill="#000000" opacity="0.800000012">
                        <path d="M11.0480735,5.09342035 C8.89068925,6.04784999 6.63496782,7.04206151 4.09015734,7.95168067 L4.09015734,7.95168067 C1.91947524,13.4467191 0.545994994,19.339241 0.106718219,25.4936975 L0.106718219,25.4936975 C1.87868765,24.8253397 3.56349455,24.0838995 5.31344985,23.3097175 L5.31344985,23.3097175 C11.9613803,20.368988 19.4951278,17.0360272 33.8026328,17.0360272 L33.8026328,17.0360272 C48.1117021,17.0360272 55.6453379,20.368988 62.2919274,23.310388 L62.2919274,23.310388 C68.4306276,26.0268416 73.733685,28.3725192 85.0465984,28.3725192 L85.0465984,28.3725192 C96.3623056,28.3725192 101.665251,26.0261711 107.806633,23.3097175 L107.806633,23.3097175 C110.833855,21.9704318 114.054063,20.553035 118.005654,19.4027132 L118.005654,19.4027132 C117.121513,14.3850572 115.611702,9.586425 113.553773,5.08649204 L113.553773,5.08649204 C113.549079,5.08883873 113.544162,5.09096192 113.538687,5.09342035 L113.538687,5.09342035 C106.891986,8.03482031 99.356897,11.3677812 85.0465984,11.3677812 L85.0465984,11.3677812 C70.7375291,11.3677812 63.2038933,8.03482031 56.557192,5.09342035 L56.557192,5.09342035 C50.4184919,2.376855 45.115658,0.0312891114 33.8026328,0.0312891114 L33.8026328,0.0312891114 C22.4897193,0.0312891114 17.1868854,2.376855 11.0480735,5.09342035" id="Fill-9"></path>
                    </g>
                    <g id="Group-14" transform="translate(17.596102, 0.093867)">
                        <mask id="mask-2" fill="white">
                            <use xlink:href="#path-1"></use>
                        </mask>
                        <g id="Clip-13"></g>
                        <path d="M42.1107858,0.0177677454 C25.67618,0.0177677454 10.7984311,6.68111926 0.0314008582,17.4532898 L0.0314008582,17.4532898 C4.40707134,16.3447613 9.67202306,15.5853299 16.4818747,15.5853299 L16.4818747,15.5853299 C30.790944,15.5853299 38.3245798,18.9184025 44.9711693,21.8596907 L44.9711693,21.8596907 C51.1098695,24.576256 56.4129269,26.9218219 67.7258403,26.9218219 L67.7258403,26.9218219 C77.9739183,26.9218219 83.2906088,24.9958654 88.7644153,22.6149875 L88.7644153,22.6149875 C77.8666413,8.85526551 61.0259476,0.0177677454 42.1107858,0.0177677454 Z" id="Fill-12" fill="#000000" mask="url(#mask-2)"></path>
                    </g>
                    <g id="Group-17" transform="translate(13.014482, 92.173252)">
                        <mask id="mask-4" fill="white">
                            <use xlink:href="#path-3"></use>
                        </mask>
                        <g id="Clip-16"></g>
                        <path d="M0.0358707313,4.33063651 C10.9337565,18.0919229 27.7752324,26.9309852 46.6924057,26.9309852 L46.6924057,26.9309852 C63.1283524,26.9309852 78.0074423,20.2659574 88.7752548,9.49199893 L88.7752548,9.49199893 C84.3960084,10.6026506 79.1262516,11.3636465 72.3074602,11.3636465 L72.3074602,11.3636465 C57.9983908,11.3636465 50.4647551,8.03068568 43.8180538,5.08928571 L43.8180538,5.08928571 C37.6793537,2.37283211 32.3765198,0.0271544788 21.0634945,0.0271544788 L21.0634945,0.0271544788 C10.8223449,0.0271544788 5.50565439,1.95109959 0.0358707313,4.33063651" id="Fill-15" fill="#000000" opacity="0.400000006" mask="url(#mask-4)"></path>
                    </g>
                    <path d="M11.3234177,66.0871849 C8.29764885,67.4259119 5.08012247,68.8425264 1.13277758,69.9924012 L1.13277758,69.9924012 C2.01635974,75.009275 3.52538888,79.807125 5.58253621,84.3062757 L5.58253621,84.3062757 L5.58879403,84.303482 C12.2367245,81.3628643 19.770472,78.0299035 34.0779769,78.0299035 L34.0779769,78.0299035 C48.3870463,78.0299035 55.9206821,81.3628643 62.5672716,84.3042643 L62.5672716,84.3042643 C68.7059718,87.0207179 74.0090291,89.3663955 85.3219426,89.3663955 L85.3219426,89.3663955 C96.6376497,89.3663955 101.940595,87.0200474 108.081977,84.303482 L108.081977,84.303482 C110.241597,83.3479349 112.50067,82.3526059 115.049727,81.4420928 L115.049727,81.4420928 C117.219627,75.9471661 118.593107,70.0546442 119.032496,63.900076 L119.032496,63.900076 C117.255498,64.569216 115.567339,65.3118854 113.814031,66.0871849 L113.814031,66.0871849 C107.16733,69.0285848 99.6322412,72.3616574 85.3219426,72.3616574 L85.3219426,72.3616574 C71.0128732,72.3616574 63.4792374,69.0285848 56.8325362,66.0871849 L56.8325362,66.0871849 C50.693836,63.3707313 45.3910021,61.0251654 34.0779769,61.0251654 L34.0779769,61.0251654 C22.7650635,61.0251654 17.4622296,63.3707313 11.3234177,66.0871849" id="Fill-6" fill="#000000" opacity="0.600000024"></path>
                </g>
            </g>
        </g>
    </g>
</svg>