<?xml version="1.0" encoding="UTF-8"?>
<svg width="170px" height="270px" viewBox="0 0 170 270" version="1.1" xmlns="http://www.w3.org/2000/svg" xmlns:xlink="http://www.w3.org/1999/xlink">
    <!-- Generator: Sketch 61.2 (89653) - https://sketch.com -->
    <title>79</title>
    <desc>Created with Sketch.</desc>
    <g id="Page-1" stroke="none" stroke-width="1" fill="none" fill-rule="evenodd">
        <g id="Artboard" transform="translate(-3771.000000, -1938.000000)" fill="#000000">
            <g id="Group" transform="translate(1.000000, -376.000000)">
                <g id="79" transform="translate(3770.538244, 2314.447592)">
                    <path d="M139.107906,252.487973 C137.88411,260.115066 137.204224,261.226062 130.062323,263.111203 C126.356941,264.087767 122.455318,264.313366 118.654133,264.945352 C118.022148,265.04888 116.903425,265.554159 116.928148,265.773577 C117.447335,270.596137 113.975277,268.327788 112.338913,268.091373 C106.953902,267.311048 101.556528,266.385475 96.3183106,264.954623 C93.7795519,264.262374 91.4972959,263.135926 90.1127994,259.785939 C88.5923255,256.10837 84.7494206,253.422817 82.0808653,250.171723 C81.2016482,249.100901 80.1849086,247.48308 80.4166881,246.359722 C80.6129281,245.410971 82.5011589,244.780531 83.6801442,244.075921 C84.4202936,243.632449 85.2346124,243.311048 86.0149369,242.935565 C85.2222508,242.550811 84.4202936,242.186145 83.6399691,241.779758 C82.6170487,241.24821 81.6111254,240.685758 80.5974762,240.137213 C81.286634,238.975225 81.8521762,237.706619 82.7128509,236.689879 C83.2057687,236.111975 84.1900592,235.623693 84.9394798,235.642235 C90.6288952,235.781303 92.6870976,231.732887 94.1055885,227.410971 C97.3319598,217.591244 100.151944,207.637085 103.376771,197.815813 C104.245171,195.173526 105.41025,192.092403 107.445274,190.486943 C111.087304,187.617512 115.780067,189.295596 118.921452,193.711769 C125.969096,203.621118 130.359001,214.825341 133.729075,226.326243 C136.224569,234.840278 137.364924,243.752975 139.107906,252.487973" id="Fill-1"></path>
                    <path d="M24.4660314,182.061447 C33.7032192,180.794386 42.9388617,179.527324 52.1745042,178.260263 C52.2718517,178.487407 52.3676539,178.714551 52.4634561,178.941695 C49.7207314,179.879629 47.0413598,181.138965 44.2229204,181.701416 C33.6985836,183.795158 23.0738089,184.801082 12.470667,182.487922 C10.7199588,182.104713 9.32773629,180.003245 7.819624,178.641926 C7.44105073,178.298893 7.35142931,177.45676 6.96667525,177.330054 C1.70064383,175.579346 1.4070564,170.446201 0.404223539,166.447232 C-0.501261911,162.842287 0.302240536,158.674891 0.989853206,154.870616 C1.26180788,153.360958 2.99860932,151.614885 4.50672161,150.916456 C10.2579449,148.244811 11.9391192,142.929333 13.9107906,137.678754 C16.5716199,130.594025 19.2262683,123.504661 22.1049704,116.506464 C24.6282771,110.370487 32.3650785,109.573165 36.1554468,115.06634 C46.3599279,129.850785 52.4248262,146.291682 55.223178,163.974916 C55.5044038,165.761164 55.4874066,167.613855 55.427144,169.429462 C55.3282514,172.478135 54.2728818,174.880917 50.8765388,175.580891 C43.4858614,177.107546 36.1090909,178.706825 28.7153232,180.224208 C27.2566572,180.522431 25.7469997,180.585784 24.2605202,180.757301 C24.3300541,181.193047 24.3980428,181.627247 24.4660314,182.061447" id="Fill-3"></path>
                    <path d="M108.689158,67.2619624 C108.647438,66.8123101 108.607262,66.3642029 108.565542,65.9160958 C105.771826,66.1525109 102.971929,66.3379346 100.192119,66.6856039 C99.8058202,66.7350502 99.521504,67.5833634 99.1892866,68.0608293 C99.6018542,68.2740664 100.048416,68.7206284 100.419263,68.6665465 C103.183621,68.2539789 105.934072,67.7425187 108.689158,67.2619624 M73.3211434,63.0126706 C72.8606747,64.2982745 72.5732681,65.1033222 72.2472315,66.0149884 C71.8578419,65.6441411 71.5024466,65.4648983 71.4947206,65.2717486 C71.380376,62.6526397 71.4020088,60.0242596 71.1825908,57.415967 C71.1238733,56.7376255 70.3821787,56.0963688 69.8985321,55.4813804 C69.2789081,54.6917847 68.603657,53.9469997 67.9515838,53.1821272 C68.7612671,52.5671388 69.5400464,51.9057945 70.3945403,51.3618851 C70.7159413,51.1579191 71.3077517,51.3618851 71.6106104,51.1471028 C72.5763585,50.4641257 73.4648468,49.6714396 74.3826938,48.9204739 C73.4972959,48.3672933 72.6597991,47.7044038 71.7125934,47.2918362 C70.8364666,46.9101725 69.8444502,46.7942828 68.5387587,46.4713366 C70.2647438,44.5274788 70.4177183,40.8962658 74.5681174,42.3549318 C74.9992274,42.5063611 76.2724697,41.3984548 76.5521504,40.6490343 C78.4326552,35.6101468 80.3873294,30.5743497 81.819727,25.4010301 C82.4826165,23.0090652 81.8398146,20.286428 82.1210404,17.7492145 C82.5506052,13.8738604 83.2382179,10.0247747 83.8702035,6.17259851 C84.3028586,3.54885398 91.6363636,-0.978573268 93.9031677,0.189595673 C95.3046613,0.912747875 96.4681947,2.29260881 97.4540304,3.5921195 C107.09915,16.3245429 111.44888,31.2310585 114.635076,46.5285089 C115.654906,51.4283286 115.942313,56.5166624 116.177183,61.5370075 C116.357971,65.4 114.574813,68.199897 110.501674,69.2537213 C107.820757,69.9459696 105.232552,70.9874324 102.58872,71.8249292 C101.324749,72.2251352 98.6237445,71.525161 100.841102,74.3250579 C100.138038,74.5120268 99.3082668,75.038939 98.7519959,74.8303374 C94.3729075,73.1970641 90.0278135,71.4695339 85.7167139,69.6631986 C84.3801185,69.1038372 83.3216585,67.7378831 82.0654133,69.9938707 C81.6822045,70.6799382 79.8202421,70.7309297 78.6597991,70.6583054 C78.3909348,70.6428535 78.4882823,68.7360804 77.9582797,68.0561937 C76.6232295,66.3425702 75.0270409,64.8329127 73.3211434,63.0126706" id="Fill-5"></path>
                    <path d="M134.936338,266.115529 C129.705846,267.048828 124.475354,267.980582 119.244862,268.912336 C119.14906,268.243266 119.054803,267.57574 118.960546,266.908215 C121.508576,266.622354 124.061241,266.384394 126.601545,266.036724 C129.345815,265.661241 132.074633,265.18223 134.809632,264.746485 C134.852897,265.203863 134.894618,265.659696 134.936338,266.115529" id="Fill-10"></path>
                    <path d="M125.746742,119.927685 C125.02359,119.292609 124.856709,119.091733 124.645017,118.969663 C123.092094,118.068813 121.5299,117.183415 119.970796,116.291836 C121.418645,114.564306 122.657893,111.61607 124.349884,111.328663 C130.325161,110.310379 132.026423,106.05027 133.542261,101.297244 C135.753438,94.3654906 137.749833,87.3456606 140.367396,80.5684265 C141.195622,78.4252382 143.553593,75.7319598 145.514448,75.4569148 C147.975946,75.113881 152.081535,76.2264229 153.146176,78.0621169 C157.019985,84.7435488 160.492042,91.7911924 163.030801,99.0767963 C165.639093,106.563276 167.267731,114.436055 168.754211,122.247025 C169.506722,126.210456 169.242493,130.431934 168.919547,134.495802 C168.820654,135.745867 167.221375,137.464126 165.935771,137.927685 C161.229101,139.625856 156.363276,140.883647 151.57471,142.302138 C152.055267,142.847592 152.741334,143.626371 153.427401,144.406696 C152.854133,144.706464 152.143343,145.387896 151.735411,145.238012 C150.386454,144.742004 149.175019,143.882874 147.853876,143.291064 C146.888128,142.858408 145.832758,142.363945 144.819109,142.367036 C143.463971,142.371671 141.713263,143.505846 140.824775,142.982024 C136.668195,140.532887 131.193562,140.78939 128.341128,135.327118 C126.610507,132.014216 125.584497,127.265825 120.744939,125.977131 C120.156219,125.819521 119.700386,123.782951 119.853361,122.71213 C119.953799,122.00752 121.17914,121.304455 122.04136,120.90734 C123.051919,120.442235 124.216997,120.312439 125.746742,119.927685" id="Fill-7"></path>
                    <path d="M166.210044,140.999073 C162.982127,143.355498 159.51007,145.336441 155.11862,143.387947 C158.814731,142.592171 162.512387,141.794849 166.210044,140.999073" id="Fill-13"></path>
                </g>
            </g>
        </g>
    </g>
</svg>