<?xml version="1.0" encoding="UTF-8"?>
<svg width="288px" height="359px" viewBox="0 0 288 359" version="1.1" xmlns="http://www.w3.org/2000/svg" xmlns:xlink="http://www.w3.org/1999/xlink">
    <!-- Generator: Sketch 61.2 (89653) - https://sketch.com -->
    <title>46</title>
    <desc>Created with Sketch.</desc>
    <g id="Page-1" stroke="none" stroke-width="1" fill="none" fill-rule="evenodd">
        <g id="Artboard" transform="translate(-618.000000, -714.000000)" fill="#000000">
            <g id="Group" transform="translate(1.000000, -376.000000)">
                <g id="46" transform="translate(617.563739, 1090.651558)">
                    <path d="M43.2282718,67.8190906 C55.1004746,44.0582579 69.653838,22.0316726 85.0344303,0.594121234 C86.7921453,1.0458704 85.2479845,2.14062877 85.8745665,2.83174632 C86.8707614,3.29170911 87.9796002,0.890984971 89.2609251,3.02652648 C90.4389931,4.98840858 89.7408353,6.46334027 88.9112596,7.98520694 C84.5451332,15.9958344 78.2394189,22.7615115 74.4341655,31.2098076 C73.1317199,34.0986555 72.5626332,37.6363795 69.3511074,39.8869117 C67.3739714,41.2714935 67.8398011,44.7728429 66.0926465,47.0785237 C64.9990615,48.5229477 64.3912535,50.5434985 63.1744642,52.1733156 C58.326081,58.6620764 55.5322764,66.0015336 54.7355551,74.068483 C54.5924034,75.5211206 53.9869422,76.8364733 52.6399083,76.8810616 C48.9672463,77.0042659 45.3192251,78.5261326 41.7193123,75.3122599 C39.1062073,72.9784181 38.8633188,70.8651707 39.6025447,68.0514188 C41.3849005,61.2728345 44.9202778,55.2909716 48.389946,49.3138021 C52.4486483,42.3228371 57.0576632,35.6615903 61.3569072,28.8255107 C67.1392965,19.6309484 73.6128034,10.9479774 79.7530719,2.02211795 C80.3374124,1.17376822 80.897112,-0.580426598 82.1784369,0.191653795 C83.1429507,0.772474151 82.1268084,2.16174951 81.5764958,3.00657912 C78.1056542,8.33369915 74.3895773,13.4801195 70.5831505,18.5819517 C66.9351293,23.471403 63.8773155,28.8278574 60.8312354,34.1338567 C55.9089296,42.711224 50.4855928,51.0011145 46.0314634,59.8460112 C44.7618722,62.3675929 43.5051882,64.9220291 43.2282718,67.8190906" id="Fill-167"></path>
                    <path d="M24.4634328,170.360988 C22.232848,172.153905 20.6194581,169.36362 19.91426,168.79688 C18.0063532,167.264453 15.0154217,168.844989 14.2703289,167.030952 C13.142716,164.284082 10.7103108,161.959627 11.7194128,158.279925 C13.6695612,151.162236 16.6252914,144.462267 19.3733344,137.667256 C21.3657242,132.74143 23.2642441,127.767496 26.1742128,123.264085 C27.4719649,121.256441 28.9633239,119.485819 31.1657477,118.476717 C33.4244935,117.440627 35.4074964,117.366705 37.5829326,119.22885 C39.1928024,120.606391 41.2685018,121.511063 42.7586874,123.13032 C44.1772971,124.669787 45.3037365,126.28083 43.6305046,128.378824 C42.4559567,129.850235 42.6683375,131.779263 42.0769568,133.457188 C39.6997001,140.199398 38.7950284,147.460239 34.9815614,153.694378 C32.153729,158.318646 30.0639491,163.294928 27.8838194,168.232487 C27.2595841,169.646403 26.6552963,171.354837 24.4634328,170.360988" id="Fill-169"></path>
                    <path d="M165.094826,119.866931 C164.570327,121.049692 164.232395,121.810039 163.906197,122.544571 C164.293411,123.050296 164.65129,122.748738 165.036157,122.640788 C165.825838,122.417847 166.096887,120.905367 167.053188,121.509655 C168.210135,122.240667 166.722296,123.116005 166.811472,123.981955 C168.077543,124.276472 168.414302,122.712364 169.446871,122.668949 C171.047354,125.130689 170.207218,127.112518 168.717033,129.320809 C164.667717,135.321446 161.158154,141.628333 158.794978,148.530122 C157.903214,151.136187 154.564963,152.409298 154.500428,155.434257 C154.418291,159.271192 152.627722,162.602402 150.615385,165.345751 C147.13985,170.083837 146.397104,175.658539 144.328444,180.80848 C143.746451,182.257597 144.544345,184.0423 143.112829,185.229755 C142.650519,185.613448 141.9242,186.487612 141.622643,185.750733 C140.587727,183.232672 138.570696,184.445941 136.900984,184.028219 C133.802102,183.252619 133.191947,180.213579 132.889217,177.540632 C132.412827,173.328218 133.628443,169.254262 135.338049,165.499463 C141.880785,151.122106 149.490119,137.329089 158.904102,124.60619 C160.337966,122.667776 161.623984,120.23537 165.094826,119.866931" id="Fill-171"></path>
                    <path d="M121.741808,62.7783913 C121.023702,65.0160164 120.330238,67.3580718 119.522956,69.6614059 C114.410564,84.2628776 107.778651,98.1802721 100.595253,111.857125 C97.8413432,117.099762 94.6673653,122.131191 92.5834523,127.725841 C91.987378,129.32867 90.9160872,130.593568 89.0046602,128.888655 C88.5540844,128.486188 87.8852609,128.304315 87.2891867,128.093107 C83.3243544,126.689751 81.7755001,123.650711 83.0192771,119.5263 C84.2935617,115.295112 86.650871,111.589595 88.9354311,107.874692 C98.6016898,92.1620345 107.694169,76.1536867 114.634678,59.0083392 C115.514709,56.8352497 115.769332,56.8375964 117.312319,58.4920544 C117.480111,58.6715807 117.82039,58.8018253 118.064452,58.7795312 C120.94274,58.5225622 121.204402,60.6322894 121.741808,62.7783913" id="Fill-173"></path>
                    <path d="M24.8163839,226.771787 C22.1809848,233.257028 17.8723538,238.220401 15.3613325,244.093141 C12.8233235,250.029242 9.75025582,255.751789 8.15681331,262.088011 C10.4671876,257.008473 12.7646548,251.921895 15.090283,246.848224 C17.7608832,241.027113 21.1472419,235.61903 24.4761053,230.160492 C26.1469905,227.421836 28.0232162,227.561468 29.9041355,229.069254 C31.7404665,230.543012 32.1218132,233.024699 30.3922593,234.754253 C26.8686158,238.277897 24.8867863,242.780135 23.5995945,247.202583 C21.3584493,254.904613 17.4182579,262.043423 16.2308029,270.086905 C15.9574067,271.940837 14.6162397,273.521372 14.3404967,275.586511 C14.0307258,277.909792 13.9098683,279.899836 15.062122,282.064711 C15.7297721,283.322569 17.3771898,284.977027 15.9139918,286.380383 C14.7171499,287.529116 12.9641285,288.371599 10.9693919,287.324949 C10.2078719,286.926002 9.09785962,287.187664 8.14625294,287.15481 C2.58211126,286.96707 -0.702163847,283.341343 0.127411894,277.729093 C1.23977088,270.203069 4.06642995,263.163996 7.05149457,256.212925 C10.9623516,247.104019 15.2146607,238.17112 21.0029169,230.058409 C21.8571335,228.861567 22.5728919,227.539174 24.8163839,226.771787" id="Fill-175"></path>
                    <path d="M176.526074,297.747213 C168.990663,297.731959 166.720184,294.43243 169.269927,288.184211 C171.26349,283.29828 174.654542,279.271259 177.928257,275.237197 C185.570445,265.822041 193.52475,256.67676 201.992993,247.976189 C204.063999,245.847687 206.578541,245.086167 209.159965,244.296486 C210.061116,244.021917 212.069933,243.479818 211.993664,244.264805 C211.834085,245.869982 213.445128,247.328486 211.994837,249.046306 C205.51781,256.716655 199.737768,264.92793 193.748865,272.977278 C191.108772,276.526736 188.18707,279.8732 185.644367,283.488367 C183.925374,285.933679 182.167659,288.576118 183.911293,291.868607 C184.120154,292.261687 184.012203,293.293084 183.82681,293.354099 C180.851132,294.346774 179.052349,297.516058 176.526074,297.747213" id="Fill-177"></path>
                    <path d="M253.55447,127.117446 C257.424259,122.770094 259.832023,117.482869 263.647837,113.162504 C264.77193,111.890566 266.118964,110.786421 267.079957,109.406532 C268.66636,107.126666 270.298523,108.864433 271.34752,109.582538 C272.366009,110.278349 272.843573,111.895259 271.751161,113.42534 C267.289991,119.673559 263.701812,126.513158 260.688587,133.473616 C258.541311,138.435816 254.9766,142.781995 254.23268,148.556171 C253.949897,150.742168 252.456191,153.264923 251.627789,155.712582 C250.520124,158.985123 248.24495,156.275802 246.489582,156.156117 C246.212666,156.137343 245.967431,155.323021 245.713982,155.327715 C244.633304,155.342969 243.997335,158.094532 242.731264,156.185452 C241.013444,153.594641 239.179459,151.150502 240.380995,147.320608 C242.290075,141.241355 245.222338,135.757002 248.431517,130.374734 C252.78239,123.077518 256.79533,115.523333 262.987227,109.501576 C263.44367,109.05804 263.862565,108.57109 264.350688,108.165102 C264.854066,107.746207 265.531103,107.388328 266.070855,107.90344 C266.757279,108.559356 266.393533,109.352557 265.792765,109.845374 C260.541915,114.144618 257.926463,120.345902 254.246761,125.776279 C253.967498,126.189307 253.783278,126.669217 253.55447,127.117446" id="Fill-179"></path>
                    <path d="M124.030709,235.115418 C125.649966,233.587684 127.478083,232.224223 128.833331,230.491149 C130.415039,228.469425 132.176275,228.02589 134.404513,228.907094 C135.729252,229.432765 135.447643,230.822041 135.319745,231.707939 C134.990027,233.987805 133.640646,235.744347 131.437049,236.556322 C130.910204,236.749929 130.117002,236.350981 130.118176,237.303761 C130.12991,241.958538 126.04774,244.436705 124.293545,248.165689 C123.754966,249.308555 122.751731,250.393927 122.045359,251.566128 C119.982567,254.988861 118.295255,258.707285 113.923262,260.017944 C112.904772,260.323021 111.290209,261.234733 111.840522,262.782414 C113.519621,267.5029 110.213051,270.655757 108.336826,274.155933 C105.253198,279.906641 101.341167,285.189173 98.4816536,291.080686 C98.1589757,291.744816 97.959502,292.689382 97.0325362,292.459401 C95.8744156,292.170751 97.4091894,291.142875 96.6054279,290.537414 C95.1621773,291.305974 93.8949329,293.381673 91.8825957,290.932841 C91.1644905,290.058677 90.1096269,291.535955 89.5933421,292.464095 C89.2002617,293.169293 88.7684599,293.833423 87.8825622,293.314791 C86.8112713,292.687036 87.734717,292.031119 88.0175002,291.454993 C93.1709608,280.952118 99.5365173,271.184949 106.142615,261.563278 C111.960206,253.089168 117.776623,244.613884 123.59304,236.142121 C123.737365,235.801842 123.884037,235.459217 124.030709,235.115418" id="Fill-181"></path>
                    <path d="M180.359606,197.835551 C183.926664,192.315998 187.52071,186.803485 191.490236,181.542074 C186.962184,184.937819 181.503646,192.818202 180.359606,197.835551 M187.340011,206.214618 C186.229998,206.53847 189.060178,202.680415 186.035218,205.049458 C185.954255,205.11282 185.794676,205.21021 185.758302,205.182049 C183.764739,203.634368 182.00937,203.721198 180.184773,205.612677 C179.706036,206.109015 175.991133,201.945882 175.911343,200.716186 C175.791659,198.859907 176.261009,197.102192 177.077678,195.477069 C181.686692,186.298934 188.17076,178.673173 196.36326,172.502397 C200.376201,169.478611 204.586268,169.808329 208.788122,172.060035 C211.044521,173.269784 211.033961,174.723595 209.157735,176.534112 C207.182946,178.438498 205.304374,180.457876 203.536098,182.555869 C201.4956,184.976541 199.787167,187.634234 197.541328,189.937568 C194.591465,192.961354 193.575322,197.250038 191.430394,200.840563 C190.244112,202.822393 189.199809,204.833557 187.340011,206.214618" id="Fill-183"></path>
                    <path d="M280.83085,211.730417 C280.3615,213.332073 280.078717,214.295414 279.648088,215.764478 C280.363847,215.210646 280.800342,215.042853 280.93176,214.741296 C281.999531,212.300677 283.961413,212.931953 285.506747,213.721634 C287.161205,214.566463 287.59066,216.47437 286.928877,218.119441 C285.849372,220.804122 284.600902,223.462988 283.077862,225.918861 C280.976348,229.307566 278.599092,232.582455 277.167575,236.283278 C275.671522,240.148373 273.490219,243.909038 274.423052,248.453517 C274.864241,250.598446 273.072498,251.85865 271.112963,250.980966 C270.048712,250.502229 269.091238,250.556204 268.038722,250.609006 C261.369261,250.942245 257.925407,246.212372 260.516218,239.844469 C264.168933,230.869328 270.063966,223.282289 276.203061,215.902937 C277.376435,214.492541 278.18489,212.616315 280.83085,211.730417" id="Fill-185"></path>
                    <path d="M37.7046116,351.898914 C37.6647168,354.294944 39.686441,355.458932 39.9657041,357.371532 C37.0111472,357.775173 35.149002,356.172343 34.5024727,352.873988 C33.8007947,349.290502 34.9213673,345.9898 36.6650018,343.132633 C40.3752118,337.054553 43.471747,330.625635 48.654542,325.375957 C50.682133,323.322552 52.0843155,319.999556 54.056758,317.515522 C59.678395,310.430687 65.5464407,303.540632 71.3429105,296.595429 C72.506898,295.200286 73.8879597,294.028085 75.4814022,293.11872 C76.2968975,292.652891 77.100659,292.547287 77.8598322,293.157442 C78.6753275,293.813358 78.5849776,294.651147 78.1297084,295.459602 C77.4526713,296.662311 76.8448633,297.931902 75.9988603,299.007887 C68.1665858,308.959275 60.1219306,318.749912 52.5102505,328.865573 C49.5451332,332.806938 47.2300654,337.336163 45.6342761,342.067209 C44.897397,344.253206 45.687078,346.651583 45.9370067,348.950224 C46.0038891,349.576806 46.8780531,350.428675 45.7703876,350.898025 C43.6430597,351.801524 41.8607039,352.694462 43.7322361,355.465972 C44.1581711,356.096074 43.1901371,356.429312 42.5166202,356.444566 C41.312738,356.472727 39.9269828,356.453953 39.7850045,354.957901 C39.6559333,353.585053 38.877986,352.886895 37.7046116,351.898914" id="Fill-187"></path>
                    <path d="M88.706271,188.47261 C88.0163269,187.983313 87.6291133,187.889443 87.3275561,188.622802 C86.2292776,191.294575 85.3140455,194.078993 83.8801819,196.56068 C83.0130582,198.060253 83.1996247,201.153268 79.878975,200.250943 C79.3509565,200.107791 79.4589069,200.773094 79.6982753,201.149748 C80.2579749,202.029778 79.9106561,202.675134 79.3040215,203.415534 C78.2691052,204.676911 77.9839752,206.076747 78.252678,207.806301 C78.7513621,211.000226 76.5289909,212.557294 73.6072885,211.246635 C73.2564496,211.088229 72.6333877,210.555517 72.6017066,210.776112 C71.8554405,215.981201 69.0346483,209.079412 67.8835679,211.600994 C67.0199643,210.882889 66.6139768,209.96883 66.5154133,208.840044 C66.2901254,206.252753 67.3485092,204.06441 68.5488712,201.915961 C73.0968706,193.776262 79.6114456,187.279288 86.2926398,180.955973 C87.9013362,179.43176 90.3255278,179.349624 92.4106142,178.735949 C93.6344438,178.375723 94.3560691,179.389518 94.819552,180.358726 C95.4543475,181.686985 94.7550164,181.825444 93.6684716,181.471085 C93.5241466,183.854208 91.9659053,185.503973 90.6869271,187.313316 C90.1237074,188.110037 89.7587879,189.073378 88.706271,188.47261" id="Fill-189"></path>
                    <path d="M183.817775,57.6316189 C183.554939,57.4368388 183.293277,57.2420586 183.031614,57.0472784 C181.522655,59.4374422 179.999615,61.818219 178.52703,64.2306769 C178.355717,64.5122867 178.020132,65.0203579 178.529376,65.327782 C178.883736,65.5413361 179.491544,65.6023516 179.612401,65.1541226 C180.378615,62.2969558 183.059775,60.4793987 183.817775,57.6316189 M172.697705,86.6444758 C171.764873,87.992683 172.430176,90.2971904 169.490873,90.4825836 C167.365892,90.6175217 167.749585,89.590819 167.748412,88.497234 C165.921468,88.6615065 166.65248,90.8322492 165.034397,91.2628776 C164.36792,88.3259214 165.450945,85.5145162 165.319527,82.6925506 C165.339474,82.609241 165.352381,82.5177178 165.360595,82.4191543 C167.629901,80.4713527 168.153226,77.5566906 169.411084,75.0527095 C169.929715,74.0177932 170.111588,72.7834033 170.74873,71.8458771 C175.876377,64.3022527 180.048896,56.1566872 185.57197,48.8477377 C189.900548,43.1193236 193.733963,37.0201232 198.357058,31.5017431 C199.420135,30.2333254 200.360008,28.8428766 202.641048,27.5134434 C200.880986,30.7003284 199.540993,33.12452 198.202173,35.5487116 C198.235027,35.4524949 198.264361,35.3539315 198.290176,35.2518479 C194.761839,38.0456525 193.324455,42.358977 190.303016,45.5787165 C191.335585,46.4528805 191.645356,45.5411685 192.141694,45.4379116 C192.991217,45.2630788 193.515715,45.7957908 193.84426,46.5268031 C194.006186,46.8846823 194.328864,47.4127008 193.75743,47.5593726 C191.222941,48.2105954 191.830749,50.3132824 191.756827,51.9806475 C191.674691,53.8240188 190.672629,54.836641 189.231725,55.6603498 C187.0117,56.9287676 185.691654,58.7275507 185.929849,61.4134048 C185.540289,61.9895317 185.151902,62.5668319 184.762342,63.1429588 C182.335803,64.3327605 178.864962,70.1280569 179.11137,72.5768894 C177.726788,72.6484652 177.179996,75.2721305 175.295556,73.8335734 C174.73703,72.2823724 174.420219,71.54784 172.969928,73.4792143 C171.137117,75.9174865 171.431634,79.2381362 169.220997,81.4170926 C168.892452,81.7397705 168.914746,82.2161606 169.365322,82.4919036 C169.950836,82.8509561 170.494108,82.5881203 170.583285,82.0131668 C170.972845,79.5279597 172.957021,77.7808051 173.557789,75.4164556 C173.812411,74.4190873 174.081114,73.5460967 175.384733,73.7432236 C176.176761,78.3487183 172.630823,81.4945353 171.415207,85.4265131 C171.254455,85.9474913 169.300786,84.5441355 170.009505,86.2971569 C170.354477,87.1525469 171.655749,87.5773085 172.697705,86.6444758" id="Fill-191"></path>
                    <path d="M245.273849,299.368582 C244.6238,301.159151 245.127177,302.776061 245.699784,304.328436 C246.001341,305.145104 246.228976,305.764646 245.250382,306.103751 C244.357444,306.413522 243.808304,305.785767 243.491493,305.104036 C242.683038,303.367442 242.883685,301.431374 243.363595,299.775743 C245.192886,293.455948 248.62266,287.970422 252.852675,282.968327 C254.108185,281.485182 255.596024,280.141668 256.579312,278.495424 C258.366361,275.503319 261.407748,274.650276 264.307156,273.704536 C265.66123,273.262174 265.920546,275.078557 266.198636,276.055978 C266.357041,276.615678 265.945187,277.701049 265.446503,278.027247 C260.627454,281.178931 259.851853,287.05167 256.582832,291.274645 C255.505674,292.666267 255.999665,295.488233 254.608043,297.335124 C253.508591,298.794802 252.916037,300.619399 250.872019,301.31521 C249.692777,301.715331 250.585715,303.233677 250.053003,304.136002 C249.779607,304.599485 249.611814,305.156838 249.029821,305.231934 C248.450174,305.30703 247.719161,304.811866 247.823592,304.44108 C248.526443,301.950006 245.584793,301.31521 245.273849,299.368582" id="Fill-193"></path>
                    <path d="M124.030709,235.115418 C123.884037,235.459217 123.737365,235.801842 123.59304,236.142121 C119.360679,239.872278 115.946159,244.369822 112.63255,248.846246 C108.07399,255.004115 103.951925,261.50813 99.9823996,268.06964 C96.6230285,273.623221 92.337865,278.613582 89.9817291,284.799613 C89.0254289,287.310634 87.4390266,289.602234 84.6698629,291.316534 C84.0174667,287.535922 86.4252311,285.114077 87.8133331,282.449344 C91.4695679,275.426697 96.0879697,268.991912 100.630102,262.533659 C108.824949,250.883224 116.523459,238.837362 126.736511,228.740475 C127.320851,228.163174 127.787854,227.3688 129.193557,227.798255 C128.275978,230.856069 125.342542,232.461245 124.030709,235.115418" id="Fill-195"></path>
                    <path d="M248.05944,190.507124 C246.802756,191.428223 248.283555,193.915777 246.35922,193.510963 C244.718843,193.164817 245.311397,191.164214 245.723251,189.894622 C248.280034,182.033014 253.319678,176.215423 260.616893,172.405476 C261.722212,171.828176 263.326215,170.946972 264.348224,172.581482 C265.256416,174.0306 263.851887,174.911804 263.050472,175.818822 C259.691101,179.625249 256.504216,183.511465 255.665253,188.757623 C255.455219,190.075322 254.386275,190.550539 253.297384,190.996421 C252.91721,191.15248 252.53469,191.407102 252.264814,191.713353 C250.132793,194.137544 248.524096,194.39334 248.05944,190.507124" id="Fill-197"></path>
                    <path d="M182.266809,49.4398225 C181.914796,53.3553731 178.567159,55.5167288 176.747255,58.5651556 C175.399048,60.8227281 174.299596,63.3842045 172.145281,65.1771207 C171.609049,65.623003 171.394321,66.6062908 170.509597,66.10878 C169.805572,65.7121795 169.66242,64.9095913 170.137637,64.1551116 C172.999497,59.6176725 175.782742,55.0250849 179.201955,50.870166 C180.009236,49.8892249 181.282348,49.9162125 182.358332,49.5172652 L182.266809,49.4398225 Z" id="Fill-199"></path>
                    <path d="M182.35798,49.5177346 C181.957859,48.6506108 181.493203,47.8445026 182.220695,46.8553479 C186.34276,41.2454446 190.379168,35.5698324 195.157149,30.4785606 C195.526762,30.0843068 195.730929,29.1503007 196.566371,29.7346412 C197.095563,30.1054275 196.964145,30.6792076 196.601573,31.1379971 C191.930369,37.0435907 187.397623,43.0500945 183.154701,49.2736727 C183.035017,49.4485055 182.570361,49.3898367 182.266457,49.4402918 L182.35798,49.5177346 Z" id="Fill-201"></path>
                    <path d="M165.360126,82.418685 C165.353085,82.5172484 165.339005,82.609945 165.320231,82.6932546 C164.755838,84.1212513 163.523795,85.2770252 163.629398,86.9831116 C163.666946,87.5909196 163.747909,88.4545232 162.822117,88.3747337 C161.994888,88.3031579 162.106358,87.5345976 162.179107,86.8798547 C162.827983,81.058744 164.806293,75.6154599 167.011063,70.254312 C167.390063,69.3343864 168.498902,68.3464051 169.511524,68.8181017 C170.710713,69.3766279 169.804868,70.5617361 169.380106,71.2563738 C167.266859,74.7119616 166.34576,78.5711901 165.360126,82.418685" id="Fill-203"></path>
                    <path d="M198.290762,35.2521999 C198.264948,35.3531101 198.235614,35.4516736 198.201586,35.5478903 C199.550967,34.1762155 201.898889,33.770228 202.126523,31.2404326 C202.164071,30.8227113 203.227149,29.2949778 204.30196,30.2371975 C205.323969,31.1324822 204.232731,32.078222 203.64135,32.6379216 C200.968403,35.1688903 198.846942,38.0284039 197.632499,41.8676851 C196.605797,40.6684964 195.072196,39.8858556 197.113868,38.4296979 C198.210973,37.6470572 197.772131,36.2659954 198.290762,35.2521999" id="Fill-205"></path>
                    <path d="M184.76199,63.1433108 C185.15155,62.5671839 185.54111,61.9898837 185.929497,61.4137568 C186.397674,61.0453172 186.86585,60.678051 187.332853,60.3096115 C187.498299,60.4234288 187.661398,60.5372461 187.82567,60.6510634 C186.749686,62.5718774 185.672528,64.491518 184.596544,66.412332 C184.366562,66.337236 184.136581,66.2609667 183.9066,66.1846974 C184.19173,65.1720752 184.47686,64.1571063 184.76199,63.1433108" id="Fill-207"></path>
                    <path d="M173.943829,84.9870843 C173.317247,82.7823137 174.923597,81.3191158 175.76608,79.6188962 C176.592135,77.9515311 177.554302,76.3510483 178.457801,74.7200578 C178.776958,75.5496336 178.701863,76.284166 178.239553,77.0961411 C176.757581,79.6986857 175.368306,82.3528587 173.943829,84.9870843" id="Fill-209"></path>
                </g>
            </g>
        </g>
    </g>
</svg>