<?xml version="1.0" encoding="UTF-8"?>
<svg width="169px" height="162px" viewBox="0 0 169 162" version="1.1" xmlns="http://www.w3.org/2000/svg" xmlns:xlink="http://www.w3.org/1999/xlink">
    <!-- Generator: Sketch 61.2 (89653) - https://sketch.com -->
    <title>60</title>
    <desc>Created with Sketch.</desc>
    <g id="Page-1" stroke="none" stroke-width="1" fill="none" fill-rule="evenodd">
        <g id="Artboard" transform="translate(-661.000000, -1153.000000)" fill="#000000">
            <g id="Group" transform="translate(1.000000, -376.000000)">
                <g id="60" transform="translate(660.056657, 1529.745042)">
                    <path d="M155.538668,41.2618301 C155.02121,43.4759877 153.910024,44.3783127 152.103028,44.7620061 C151.756882,44.2973498 151.359108,43.7622911 151.03995,43.3340094 C149.302183,42.2697588 147.605483,41.2313224 146.009694,40.2539015 C146.009694,39.4348861 146.169273,38.8388119 145.975666,38.3987965 C145.60136,37.5481 145.094462,36.6891899 145.400713,35.7915584 C145.874756,34.4034564 146.37696,32.963726 147.191282,31.766884 C148.408072,29.977488 149.905297,28.379352 151.194836,26.8082036 L152.880975,26.8082036 C154.325399,28.0625409 155.658352,28.9601723 156.640467,30.1476273 C157.630795,31.3444692 158.271457,32.8299613 159.126847,34.2931592 C157.051148,36.5636388 155.245325,38.7777964 155.538668,41.2618301" id="Fill-93"></path>
                    <path d="M93.8500314,1.22617631 C94.0964401,2.60254455 95.6605482,3.26902124 95.7473779,4.90353186 C95.7872727,5.66270513 96.1744862,6.27755335 95.6758021,7.10830246 C95.130183,8.02001442 94.8767341,9.10538579 94.4977341,10.1121411 C94.3674896,9.99949713 94.2172977,9.86925256 94.0682791,9.739008 C93.0345362,10.5556766 92.8726105,10.7516302 92.1498119,12.6149488 C90.498874,13.0408837 88.6953975,13.5067134 86.6443389,14.0359053 C85.4205093,13.2004626 83.699169,12.9892552 82.2899463,12.0399953 C81.9590547,9.6744724 79.2250922,8.08572339 80.2154203,5.25789094 C80.6542623,4.80731515 81.1717204,4.2769499 81.8006491,3.63042057 C82.1186336,3.81816048 82.4342714,4.05870225 82.7886304,4.2077208 C84.3210575,4.85190338 85.5753948,4.09859698 86.666633,3.21035252 C87.8130199,2.27751982 88.7904408,1.1346531 89.9239205,-1.29578438e-13 L92.1767995,-1.29578438e-13 C91.7097964,0.722798666 91.2779946,1.39279548 90.8156851,2.10738053 C92.3551524,3.18219153 92.5182514,1.10531874 93.8500314,1.22617631" id="Fill-95"></path>
                    <path d="M164.949718,71.5994267 L165.96938,71.5994267 C166.737941,72.5698074 167.486554,73.5143738 168.351331,74.6056121 C168.505043,76.2448162 168.668142,78.0952277 167.159182,79.5701594 C167.28708,80.91954 166.263897,82.013125 166.423476,83.4434685 C166.540814,84.4819049 166.192322,85.6529326 165.765213,86.6397405 C165.536405,87.1724525 164.705656,87.4446754 164.144783,87.8354091 C162.006895,86.3839449 160.094294,85.083846 158.817663,84.2167223 C156.867515,80.8995927 158.017422,78.3838778 158.805929,75.8353085 C159.816205,72.5662873 160.63522,71.5161171 163.76813,69.6797861 C164.131876,70.2723402 164.497969,70.8660677 164.949718,71.5994267" id="Fill-97"></path>
                    <path d="M25.852747,48.2710998 C26.2951091,50.521632 24.5409143,52.7709908 21.4654999,54.2459225 C21.2930138,54.0945572 21.0735928,53.9009504 20.870599,53.7225975 C20.6077631,53.946712 20.375435,54.1461857 20.1548406,54.3339256 C18.8477015,53.8082539 17.5757635,53.2966626 16.010482,52.6677339 C15.6807638,52.0880869 15.19264,51.2315235 14.6540611,50.2869571 C15.0929032,49.8844897 15.4167545,49.4397807 15.8532498,49.2309201 C16.1935284,49.0689944 16.6722652,49.199239 17.1263611,49.199239 C17.3281815,48.2077376 17.5241351,47.250264 17.7189152,46.2998307 C16.9714757,44.9938649 16.1395532,43.5424007 15.2548289,41.9970666 C15.9471198,41.3540574 16.5478875,40.7943577 17.1463085,40.2381783 L18.7526581,40.2381783 C21.3540293,42.1472585 24.4576047,43.5506143 25.852747,48.2710998" id="Fill-99"></path>
                    <path d="M68.1308367,120.45604 C68.661202,119.717988 69.0355084,119.194663 69.6268891,118.370954 C70.1736816,118.170307 71.0971273,117.832375 72.1637247,117.440468 C72.3139167,118.245403 72.4230405,118.82857 72.5790993,119.659319 C73.0367153,119.520861 73.4661704,119.390616 73.8956254,119.260372 C75.2473528,118.879025 74.4635387,120.842081 75.7882784,120.993446 C76.3702722,121.059155 76.8138077,122.341653 77.4908448,123.316727 C77.820563,124.713043 77.3946281,126.213789 76.2998697,127.599544 C76.470009,127.791977 76.6659625,128.012572 76.8912504,128.267194 C76.5908666,128.535897 76.2799223,128.813987 75.92791,129.129624 C75.7542506,128.977086 75.3787707,128.600432 75.348263,128.62742 C73.6785512,130.058937 72.3702386,128.54059 70.9797899,128.06068 C69.7806012,127.646479 68.6553351,127.012857 67.530069,126.493052 C66.8694592,125.169486 66.2088494,123.848266 65.4508495,122.331093 C65.3581529,119.564276 65.5587999,119.065592 67.6626603,117.50735 C67.8163724,118.474211 67.950137,119.314347 68.1308367,120.45604" id="Fill-101"></path>
                    <path d="M117.037905,114.137067 C115.802342,113.674757 114.884763,113.332132 114.002386,113.002414 L114.002386,112.291349 C112.584949,111.834906 111.178073,111.383157 109.692581,110.905594 C109.342916,109.042275 109.035492,107.396031 108.775003,106.005582 C109.850987,104.723084 111.395148,104.632734 111.805829,103.045158 C111.967754,102.413883 113.212705,102.060697 114.310983,101.360192 C114.526884,101.889384 114.733398,102.395109 114.9845,103.008784 C114.965726,103.055719 114.777986,103.549709 114.590246,104.0437 C114.746305,104.139917 114.903537,104.236133 115.059596,104.33235 C115.377581,103.816065 115.696738,103.29978 116.159048,102.549994 C117.304261,104.078901 118.647775,105.186567 119.000961,106.550028 C119.323639,107.791458 120.155561,108.99182 119.606422,110.645105 C119.058456,112.293696 116.907661,112.112996 117.037905,114.137067" id="Fill-103"></path>
                    <path d="M45.8408288,79.253231 L42.591755,79.253231 C41.8736498,80.2635064 43.1139066,81.8757229 40.4961082,82.4788374 C38.2115481,82.3920076 35.6582853,81.1587911 34.0096942,78.3074912 L34.0096942,75.7225472 C34.9038055,74.8284359 35.4893194,74.242922 36.1745701,73.5588447 C36.2977744,73.6550614 36.6028517,73.8944298 36.9102758,74.1349716 C37.829028,73.0249594 39.0563777,73.7055165 39.871873,73.5541512 C42.4427364,74.841343 44.8716215,75.972476 45.8408288,79.253231" id="Fill-105"></path>
                    <path d="M27.2856719,132.40111 L28.6432661,132.40111 C28.7582568,132.744908 28.8814611,133.113348 29.0774147,133.698862 C30.3270585,133.528723 32.0167177,133.593258 32.5646835,134.651642 C33.2370271,135.950567 34.9525006,135.854351 35.2751785,137.776338 L35.2751785,142.987294 C33.1631045,144.337848 31.8113771,141.582765 29.9539254,142.0263 C28.630359,141.187338 28.1035139,139.704192 26.8139753,138.844109 C26.1169909,138.379453 25.5854523,137.295255 25.6734554,136.187589 C25.7332974,135.45423 25.6851891,134.712657 25.6851891,134.001592 L27.2856719,132.40111 Z" id="Fill-107"></path>
                    <path d="M1.39809789,97.8461706 C1.91086253,95.9323969 -0.733923497,95.1403691 0.20242932,93.2148616 C0.945175352,92.4709422 1.74659011,91.6671807 2.80028037,90.6123171 C4.37612227,91.4019981 6.20893317,92.1541311 7.8610444,93.1937409 C9.55774387,94.2615116 10.140911,96.2128334 11.0983845,97.9153997 C10.7886137,98.712121 10.5046571,99.44548 10.1819791,100.276229 C7.0068278,100.940359 4.40545663,99.3868113 1.39809789,97.8461706" id="Fill-109"></path>
                    <path d="M102.263596,151.740081 C101.040939,150.127864 99.34424,150.084449 97.7167696,149.555258 C97.3002217,148.95097 96.7956707,148.218784 96.1397544,147.267177 L96.1397544,142.21932 C96.549262,141.911896 97.1394694,141.470708 98.1462247,140.715054 C98.8643299,140.860553 100.124534,141.111655 101.219292,141.332249 C103.946215,142.718005 103.968509,145.53293 105.15127,147.952428 C104.243078,149.143403 103.271524,150.418861 102.263596,151.740081" id="Fill-111"></path>
                    <path d="M46.2784975,110.478837 C46.6222962,110.56684 46.9109463,110.640763 47.3228008,110.745193 L47.3228008,113.804181 C46.7431538,114.586821 46.2479898,115.255645 45.8889372,115.740248 C43.9904173,115.225137 42.3629469,114.783948 40.5477367,114.292304 C40.4785076,113.89453 40.3775974,113.307843 40.2708203,112.690648 C39.9727832,112.624939 39.6829597,112.560404 39.3262539,112.482961 C38.3922478,110.029435 40.727263,108.497008 41.1133031,106.413095 C42.5178324,106.481151 42.9026992,104.149656 44.7272965,105.053154 C44.7671912,105.185745 44.8516742,105.469702 45.0159466,106.021188 C45.4207608,106.08103 45.988674,106.164339 46.5765346,106.251169 L48.0209586,107.695593 C47.4530453,108.603785 46.8675315,109.538964 46.2784975,110.478837" id="Fill-113"></path>
                    <path d="M132.726626,74.309335 C133.299233,74.0605796 133.727514,73.8740131 134.166356,73.6827531 C135.486403,75.926245 138.056093,77.6886535 137.630158,81.10904 C136.547133,81.7098077 135.335037,82.3821513 134.198038,83.0122534 C133.31566,82.5605042 132.439149,82.1134485 131.725738,81.7485291 C130.894988,80.6971856 130.142855,79.7455789 129.307413,78.6871951 C129.063351,77.2239972 128.796995,75.6235144 128.517732,73.9420688 C129.195942,73.4175704 129.779109,72.968168 130.643886,72.300518 L132.441496,72.300518 C132.528326,72.9106727 132.611635,73.50088 132.726626,74.309335" id="Fill-115"></path>
                    <path d="M140.790759,126.222002 C140.570165,126.62799 140.34957,127.032804 140.071481,127.544395 C141.059462,128.06068 141.84797,128.217912 142.625917,127.042191 C142.719787,127.644132 142.860592,127.960943 142.791363,128.220259 C142.614183,128.877349 142.34196,129.507451 142.075604,130.238463 C143.184443,129.617748 143.271273,129.528572 143.926016,128.23786 C144.451688,129.671723 145.129898,130.826324 145.243715,132.0349 C145.349319,133.156645 144.851808,134.335887 144.61596,135.513955 C144.238133,135.349682 143.769957,135.029351 143.6667,135.119701 C142.725654,135.952797 141.788128,135.829593 140.835348,135.219438 C139.879047,134.60811 139.085846,134.882679 138.452224,135.870661 C137.947673,135.465846 137.637902,135.218264 137.263596,134.916707 C137.432562,134.230283 137.606221,133.522738 137.789267,132.772952 C137.28237,132.531237 136.851741,132.325896 136.34367,132.084181 C136.626453,130.815763 136.908063,129.549692 137.253035,128.002011 C138.157707,127.39655 139.317001,126.623297 140.473948,125.848869 L140.790759,126.222002 Z" id="Fill-117"></path>
                    <path d="M100.561968,42.7692643 C99.6138815,42.2013511 98.8758289,41.7296545 98.1107888,41.3072397 C96.1301327,40.2148281 96.1336528,40.220695 95.4425353,38.0264847 C95.2665291,37.4691319 95.0717489,36.9059121 94.7948326,36.3943209 C94.4181794,35.6985098 93.893681,35.0789681 93.5463621,34.3714233 C93.2459783,33.762442 93.104,33.0760179 92.8775387,32.3790335 C93.4806532,31.5952193 94.1177955,30.8219656 94.949718,30.4805136 C99.1855998,33.0478569 99.164479,32.289857 101.857373,39.5776858 C101.422051,40.65015 100.983209,41.7296545 100.561968,42.7692643" id="Fill-119"></path>
                    <path d="M127.238519,9.46443837 C127.536556,9.49846623 128.041107,9.55596158 128.564432,9.6146303 C130.438311,12.0024473 131.8358,14.514642 131.197484,17.4762392 C130.21185,17.6100039 129.351766,17.7285147 128.413067,17.8564125 C127.651547,17.0303569 126.860692,16.1726201 126.406596,15.6798029 C125.303624,15.2409608 124.381352,15.169385 124.072755,14.6965151 C122.977996,13.0244565 122.742148,11.1012957 123.067173,8.95636723 C123.833386,8.50461807 124.68995,7.9977203 125.715479,7.39225908 C126.232937,8.09628376 126.690553,8.71817222 127.238519,9.46443837" id="Fill-121"></path>
                    <path d="M125.51225,39.6106576 L125.51225,41.3742394 C126.287851,41.4493354 127.069318,41.5256047 127.97047,41.6136078 L127.97047,43.0580317 C131.037671,44.1445765 130.670405,46.6051427 130.619949,49.0739226 C126.936727,49.7274922 124.695582,47.4875203 122.567081,45.2780562 C122.258483,44.0108118 121.9757,42.8503445 121.638941,41.4692827 C122.359393,40.1011281 123.625464,39.5472954 125.51225,39.6106576" id="Fill-123"></path>
                    <path d="M55.7777851,44.2256567 C56.5932804,43.7351861 57.2773577,43.3233317 57.9719953,42.9056104 C59.9092366,44.5753223 62.6748802,45.2734801 63.8271339,47.3656067 C64.1580255,48.3946561 64.3692329,49.0493991 64.6637499,49.9646311 C64.4537158,50.3858726 64.106397,51.0816836 63.8705487,51.5545535 C63.3155426,51.8115225 62.9611835,51.975795 62.5141279,52.1834822 C61.6035893,51.7997888 60.559286,51.3609467 59.5149828,50.9221047 C57.2022617,49.4530399 55.6275932,47.4266222 55.7777851,44.2256567" id="Fill-125"></path>
                    <path d="M51.3438377,160.350772 C50.6808811,159.379218 50.0014973,158.386543 49.3760887,157.470138 C49.5333209,156.916305 49.6635655,156.456342 49.79381,155.996379 C49.6717791,155.944751 49.5485748,155.893122 49.4265438,155.841494 C50.3628967,154.59889 51.2980761,153.356287 52.1757602,152.191126 C55.6677226,152.962033 56.4386296,155.843841 57.4477316,158.268032 C56.9842487,159.186784 56.4937782,160.159512 56.0678433,161.004341 C54.6433667,160.807215 53.1437941,160.599527 51.3438377,160.350772" id="Fill-127"></path>
                    <path d="M40.8298159,20.2843589 C41.566695,19.5615603 42.0947135,19.0441021 42.679054,18.470322 C44.2349486,18.5594985 45.665292,18.3764521 47.0076324,20.0884054 C48.5717405,22.0819686 49.2910191,22.2614949 49.7310345,23.634343 C49.7591955,23.7246928 49.8741862,23.7857083 49.9492822,23.8608043 C49.137307,24.6000302 49.3614216,26.4046801 47.2270534,26.1078164 C46.5148151,25.3908846 45.41771,24.9367886 44.0190477,24.7513955 C42.9102088,24.6035503 41.9539086,23.3245721 40.8262958,22.4715289 C41.1571874,22.0021791 41.3836486,21.6806745 41.6206703,21.3439161 C41.4235434,21.0799068 41.193562,20.7713093 40.8298159,20.2843589" id="Fill-129"></path>
                </g>
            </g>
        </g>
    </g>
</svg>