<svg width="24" height="22" viewBox="0 0 24 22" fill="none" xmlns="http://www.w3.org/2000/svg">
<path d="M23.3001 4.07602C22.8298 3.16026 22.1513 2.36757 21.3191 1.76164C20.4869 1.15571 19.5241 0.75343 18.5082 0.587125C17.4923 0.420821 16.4515 0.495128 15.4696 0.804076C14.4876 1.11302 13.5917 1.648 12.8541 2.36602L12.0001 3.14702L11.1731 2.39402C10.4371 1.66209 9.53704 1.11639 8.54774 0.802274C7.55844 0.488161 6.50845 0.414707 5.48505 0.588017C4.46759 0.746654 3.50266 1.14579 2.67043 1.75226C1.8382 2.35873 1.16271 3.15504 0.700054 4.07502C0.0816291 5.28693 -0.134477 6.6644 0.0831055 8.00748C0.300688 9.35055 0.940634 10.5893 1.91005 11.544L11.2831 21.2C11.3762 21.2959 11.4877 21.3721 11.6109 21.4241C11.734 21.4761 11.8664 21.5029 12.0001 21.5029C12.1337 21.5029 12.2661 21.4761 12.3892 21.4241C12.5124 21.3721 12.6239 21.2959 12.7171 21.2L22.0771 11.562C23.0504 10.6064 23.6938 9.36538 23.9137 8.01918C24.1337 6.67297 23.9187 5.29171 23.3001 4.07602V4.07602Z" fill="#80376B"/>
</svg>
