<?xml version="1.0" encoding="UTF-8"?>
<svg width="145px" height="22px" viewBox="0 0 145 22" version="1.1" xmlns="http://www.w3.org/2000/svg" xmlns:xlink="http://www.w3.org/1999/xlink">
    <title>test</title>
    <g id="Page-1" stroke="none" stroke-width="1" fill="none" fill-rule="evenodd">
        <g id="test" fill="#000000" fill-rule="nonzero">
            <path d="M36.43,11 C35.8638576,10.7539072 35.2692881,10.5792314 34.66,10.48 C34.0622518,10.3500788 33.4714903,10.1898723 32.89,10 C32.4045191,9.87639153 31.9465782,9.66268579 31.54,9.37 C31.1773291,9.08464341 30.9759424,8.64084683 31,8.18 C30.9938126,7.87456371 31.0810347,7.5745198 31.25,7.32 C31.4156771,7.07266164 31.6300426,6.8616987 31.88,6.7 C32.1433274,6.53502687 32.4298224,6.41031724 32.73,6.33 C33.6283791,6.06528104 34.5957764,6.17718148 35.41,6.64 C35.895375,6.96819726 36.2879963,7.4159233 36.55,7.94 L38,7.08 C37.6308094,6.31781266 37.0235507,5.69651337 36.27,5.31 C35.4443355,4.91263237 34.5360272,4.71726039 33.62,4.74 C33.1004558,4.75575014 32.5855826,4.84324492 32.09,5 C31.5996772,5.13380295 31.1385067,5.35760628 30.73,5.66 C30.3182678,5.95102961 29.9766389,6.33023765 29.73,6.77 C29.4721026,7.25580631 29.3446185,7.80019799 29.36,8.35 C29.3159786,9.00644227 29.5113789,9.65659235 29.91,10.18 C30.2813454,10.6081664 30.7422034,10.9495427 31.26,11.18 C31.8271249,11.4278624 32.4210977,11.6090744 33.03,11.72 C33.6279906,11.8195321 34.2191507,11.9564675 34.8,12.13 C35.2900626,12.2694019 35.7508302,12.4963978 36.16,12.8 C36.5371669,13.1187176 36.7411655,13.5971872 36.71,14.09 C36.7155123,14.4249577 36.6253132,14.7545314 36.45,15.04 C36.2817341,15.3199631 36.0569525,15.5617737 35.79,15.75 C35.5151378,15.9541369 35.2073598,16.109717 34.88,16.21 C34.556922,16.3146241 34.2195933,16.3685967 33.88,16.37 C33.1510135,16.3724783 32.4328331,16.1937923 31.79,15.85 C31.1438643,15.5119658 30.6194468,14.9805561 30.29,14.33 L28.87,15.33 C29.3280787,16.1697654 30.0479124,16.8369283 30.92,17.23 C31.8423515,17.6507511 32.8462898,17.862466 33.86,17.85 C34.4319888,17.8523441 35.0012787,17.7714982 35.55,17.61 C36.0806031,17.439804 36.5730678,17.1680994 37,16.81 C37.419515,16.4945662 37.761528,16.0875708 38,15.62 C38.2519705,15.0966236 38.3753896,14.5206679 38.36,13.94 C38.3945191,13.2475211 38.1936167,12.5637482 37.79,12 C37.4200265,11.5660577 36.9545131,11.2237684 36.43,11 L36.43,11 Z" id="Path"></path>
            <path d="M50.79,6.58 C50.2015623,5.99548357 49.5007995,5.53624584 48.73,5.23 C47.8961111,4.90036768 47.0066562,4.73401924 46.11,4.74 C45.2101383,4.73447002 44.3174939,4.9007802 43.48,5.23 C42.7073672,5.53270676 42.0059245,5.9923901 41.42,6.58 C40.8394541,7.17349018 40.3838061,7.87736426 40.08,8.65 C39.7523829,9.48067617 39.5893596,10.3671156 39.6,11.26 C39.5908355,12.1560055 39.7537849,13.045438 40.08,13.88 C40.3864095,14.6483349 40.841822,15.3484466 41.42,15.94 C42.0071665,16.5285453 42.7080881,16.9912897 43.48,17.3 C44.3181624,17.6258033 45.2107848,17.7887154 46.11,17.78 C47.0060055,17.7891645 47.895438,17.6262151 48.73,17.3 C49.499383,16.9864746 50.1993993,16.524328 50.79,15.94 C51.3774654,15.3519521 51.8400548,14.6512652 52.15,13.88 C52.4762151,13.045438 52.6391645,12.1560055 52.63,11.26 C52.6406404,10.3671156 52.4776171,9.48067617 52.15,8.65 C51.8427388,7.87438908 51.3798976,7.16991746 50.79,6.58 L50.79,6.58 Z M50.69,13.23 C50.471511,13.830007 50.131014,14.3782072 49.69,14.84 C49.2495841,15.3056958 48.7187501,15.676599 48.13,15.93 C46.8223294,16.4635467 45.3576706,16.4635467 44.05,15.93 C43.4656388,15.6739786 42.9385742,15.3033331 42.5,14.84 C42.0554171,14.380982 41.7144199,13.8319764 41.5,13.23 C41.0468953,11.9557474 41.0468953,10.5642526 41.5,9.29 C41.7168956,8.68921968 42.0575866,8.14070715 42.5,7.68 C42.945007,7.21764325 43.4790861,6.85025129 44.07,6.6 C45.3750626,6.05331964 46.8449374,6.05331964 48.15,6.6 C49.3394533,7.09643639 50.2625523,8.07404904 50.69,9.29 C51.1335046,10.5658911 51.1335046,11.9541089 50.69,13.23 Z" id="Shape"></path>
            <path d="M95.33,11 C94.7638576,10.7539072 94.1692881,10.5792314 93.56,10.48 C92.9634305,10.3818486 92.372576,10.2516603 91.79,10.09 C91.3024117,9.96365548 90.841673,9.75022505 90.43,9.46 C90.0543309,9.16634666 89.8483833,8.70577298 89.88,8.23 C89.8767634,7.92350188 89.9675013,7.62336882 90.14,7.37 C90.3056771,7.12266164 90.5200426,6.9116987 90.77,6.75 C91.030765,6.58694167 91.3136746,6.46232671 91.61,6.38 C91.9022274,6.29257761 92.2050254,6.2454757 92.51,6.24 C93.1377351,6.21270377 93.7598029,6.36908952 94.3,6.69 C94.785375,7.01819726 95.1779963,7.4659233 95.44,7.99 L96.88,7.13 C96.516379,6.36391541 95.9075742,5.74103423 95.15,5.36 C93.8540499,4.74824194 92.3819353,4.62054043 91,5 C90.5123457,5.13273866 90.0542638,5.35668979 89.65,5.66 C89.2382678,5.95102961 88.8966389,6.33023765 88.65,6.77 C88.3886305,7.25486702 88.2576883,7.79931092 88.27,8.35 C88.2313434,9.0058252 88.426195,9.65414959 88.82,10.18 C89.1951116,10.6083838 89.6592607,10.9496699 90.18,11.18 C90.7464485,11.4296878 91.34064,11.6109665 91.95,11.72 C92.547541,11.821782 93.1385653,11.9586859 93.72,12.13 C94.2070396,12.269276 94.6645462,12.4963348 95.07,12.8 C95.449839,13.1167375 95.6544444,13.5966301 95.62,14.09 C95.6290775,14.4240407 95.5423258,14.753697 95.37,15.04 C95.2017341,15.3199631 94.9769525,15.5617737 94.71,15.75 C94.4339442,15.9521979 94.1265062,16.1076062 93.8,16.21 C93.476922,16.3146241 93.1395933,16.3685967 92.8,16.37 C92.0710135,16.3724783 91.3528331,16.1937923 90.71,15.85 C90.0638643,15.5119658 89.5394468,14.9805561 89.21,14.33 L87.78,15.33 C88.2446857,16.1682187 88.9670245,16.8344535 89.84,17.23 C90.7591874,17.6496243 91.7596229,17.8613205 92.77,17.85 C93.3420376,17.8530591 93.9114309,17.7721985 94.46,17.61 C94.9821431,17.4606784 95.470919,17.2128962 95.9,16.88 C96.319515,16.5645662 96.661528,16.1575708 96.9,15.69 C97.1519705,15.1666236 97.2753896,14.5906679 97.26,14.01 C97.3059973,13.3192439 97.1116809,12.633837 96.71,12.07 C96.3430686,11.6072147 95.8695933,11.2400999 95.33,11 L95.33,11 Z" id="Path"></path>
            <rect id="Rectangle" x="114.47" y="5.07" width="1.61" height="12.39"></rect>
            <path d="M115.28,1.19 C114.957549,1.18424282 114.646793,1.31071341 114.42,1.54 C114.18659,1.76401736 114.059353,2.07665679 114.07,2.4 C114.060613,2.72311677 114.18765,3.03526461 114.42,3.26 C114.900843,3.71086332 115.649157,3.71086332 116.13,3.26 C116.36235,3.03526461 116.489387,2.72311677 116.48,2.4 C116.490647,2.07665679 116.36341,1.76401736 116.13,1.54 C115.906283,1.31225408 115.599218,1.18581557 115.28,1.19 Z" id="Path"></path>
            <path d="M144.31,10.54 C144.310577,9.81722061 144.185377,9.09985347 143.94,8.42 C143.69772,7.72996618 143.316538,7.09693254 142.82,6.56 C142.311867,5.99806846 141.691964,5.54846796 141,5.24 C140.20903,4.89475508 139.352889,4.72420911 138.49,4.74 C137.634169,4.73071992 136.785906,4.90105372 136,5.24 C135.247061,5.55582729 134.566506,6.0220078 134,6.61 C133.440846,7.20299419 133.002672,7.89931758 132.71,8.66 C132.403755,9.48531734 132.25124,10.35974 132.26,11.24 C132.246318,12.1393293 132.395384,13.0337204 132.7,13.88 C132.987921,14.6483317 133.430371,15.3494449 134,15.94 C134.567439,16.5243929 135.247928,16.9871258 136,17.3 C136.816465,17.6284816 137.690011,17.7916341 138.57,17.78 C139.619065,17.7912796 140.658597,17.5799649 141.62,17.16 C142.569239,16.7297861 143.374621,16.0354916 143.94,15.16 L142.76,14.16 C142.334228,14.8422334 141.724041,15.3900149 141,15.74 C140.261489,16.1236681 139.442215,16.3259156 138.61,16.33 C137.801964,16.3641666 136.999894,16.1774779 136.29,15.79 C135.725028,15.4697649 135.234265,15.0335313 134.85,14.51 C134.514853,14.0454419 134.267453,13.5235301 134.12,12.97 C133.998583,12.5434654 133.931387,12.1033331 133.92,11.66 L144.32,11.66 L144.31,10.54 Z M133.91,10.22 C133.941042,9.91222361 134.011623,9.60973168 134.12,9.32 C134.290396,8.8331055 134.533115,8.3746354 134.84,7.96 C135.221457,7.4658584 135.693113,7.048493 136.23,6.73 C136.891638,6.3491018 137.647069,6.16197668 138.41,6.19 C138.986357,6.18735461 139.557468,6.29953713 140.09,6.52 C140.598654,6.71863073 141.063923,7.01409345 141.46,7.39 C141.838685,7.75391438 142.147157,8.18441903 142.37,8.66 C142.592072,9.14983574 142.704687,9.68219615 142.7,10.22 L133.91,10.22 Z" id="Shape"></path>
            <polygon id="Path" points="105.02 5.07 102.33 5.07 102.33 1.5 100.72 1.5 100.72 5.07 98.04 5.07 98.04 6.52 100.72 6.52 100.72 17.46 102.33 17.46 102.33 8.85 102.33 6.52 105.02 6.52"></polygon>
            <path d="M84.92,0.07 L84.92,7 C82.8377949,4.60570451 79.3404,4.04492783 76.6140119,5.66820747 C73.8876238,7.29148711 72.7138924,10.6334321 73.8265088,13.6050165 C74.9391253,16.5766008 78.0191048,18.3258773 81.141174,17.7593857 C84.2632432,17.1928941 86.5323113,14.4730464 86.5300018,11.3 L86.5300018,0.07 L84.92,0.07 Z M79.92,16.37 C77.0991333,16.3644797 74.8163259,14.0742161 74.8199999,11.2533464 C74.8236827,8.43247664 77.1124553,6.14817437 79.9333268,6.15000976 C82.7541984,6.15184737 85.04,8.43912786 85.04,11.26 C85.0402623,14.0550629 82.7948006,16.3317115 80,16.37 L79.92,16.37 Z" id="Shape"></path>
            <path d="M119.51,21.93 L119.51,15.19 C121.594477,17.5896625 125.097884,18.1529355 127.829495,16.5275974 C130.561107,14.9022593 131.737412,11.5545083 130.622852,8.57773431 C129.508293,5.60096032 126.422559,3.84899586 123.295199,4.41736587 C120.167839,4.98573588 117.895877,7.71141392 117.899994,10.89 L117.899994,21.89 L119.51,21.93 Z M124.51,5.76999017 C126.581752,5.7659536 128.451757,7.01083278 129.247387,8.92372181 C130.043018,10.8366108 129.607444,13.0404523 128.143924,14.5068362 C126.680404,15.9732202 124.477418,16.4131016 122.562978,15.6212124 C120.648537,14.8293232 119.39999,12.9617559 119.39999,10.89 C119.394414,8.07947428 121.659555,5.79199469 124.47,5.76999017 L124.51,5.76999017 Z" id="Shape"></path>
            <path d="M72.17,7.73 C71.9410746,7.12191 71.5709031,6.57693528 71.09,6.14 C70.5154063,5.62636829 69.8314772,5.25020728 69.09,5.04 C68.3540461,4.79054545 67.5716818,4.70855095 66.8,4.8 C66.1521442,4.89041729 65.5351287,5.13379562 65,5.51 C64.4850917,5.8835447 64.0499238,6.35610985 63.72,6.9 C63.3839936,7.47508547 63.1123556,8.0854326 62.91,8.72 L61.59,13 C61.4503633,13.439593 61.2764979,13.8675694 61.07,14.28 C60.8606106,14.7017384 60.5797985,15.0840489 60.24,15.41 C59.9120416,15.7232083 59.5091926,15.9470133 59.07,16.06 C57.9469094,16.2441885 56.8039085,15.8755986 56,15.07 C55.699231,14.7250034 55.4925695,14.3082361 55.4,13.86 C55.3147661,13.4005865 55.3147661,12.9294135 55.4,12.47 C55.4547232,12.0120023 55.5518056,11.5600669 55.69,11.12 L57.1,6.49 L57.64,4.74 L55.87,4.74 L54.82,8.13 L54.82,8.13 L54,10.9 C53.7917092,11.5477199 53.6706441,12.2203037 53.64,12.9 C53.5982033,13.5378168 53.6866656,14.1774673 53.9,14.78 C54.1312733,15.3868695 54.5010968,15.9313319 54.98,16.37 C55.5553662,16.8803217 56.2392905,17.2530605 56.98,17.46 C57.5287541,17.642026 58.1019338,17.7398037 58.68,17.75 C58.8743701,17.7491062 59.0683446,17.7323843 59.26,17.7 C59.8862948,17.604242 60.4818762,17.3646403 61,17 C61.518516,16.6274692 61.9571465,16.1548363 62.29,15.61 C62.6260064,15.0349145 62.8976444,14.4245674 63.1,13.79 L64.42,9.55 C64.5770274,9.09492507 64.7710072,8.65345376 65,8.23 C65.2093894,7.80826158 65.4902015,7.42595114 65.83,7.1 C66.1584297,6.78529529 66.5607906,6.55832248 67,6.44 C67.5503763,6.32456258 68.1221178,6.36614378 68.65,6.56 C69.1690372,6.70973369 69.6363638,7.00051471 70,7.4 C70.3007613,7.74114474 70.507541,8.15470408 70.6,8.6 C70.6852339,9.05941347 70.6852339,9.53058653 70.6,9.99 C70.5355596,10.4496108 70.4386505,10.904081 70.31,11.35 L68.7,16.53 L68.28,17.83 L70.06,17.83 L70.47,16.53 L72.02,11.53 C72.2167965,10.9038047 72.3343785,10.2554239 72.37,9.6 C72.4297226,8.96955984 72.3617002,8.33355002 72.17,7.73 L72.17,7.73 Z" id="Path"></path>
            <path d="M0.82,15.17 C0.97133966,15.8464355 1.28735866,16.4750385 1.74,16.9999953 C2.33820691,17.6294448 3.10006497,18.0796336 3.94,18.3 C4.75570807,18.6019161 5.64143324,18.6609644 6.49,18.47 C7.17501077,18.2974493 7.80479905,17.9533027 8.32,17.47 C8.84041747,16.963692 9.26999702,16.3717517 9.59,15.72 C9.92047971,15.0782196 10.1948353,14.4090596 10.41,13.72 L12.46,7.15 C12.7591367,6.16052868 13.1825122,5.21297399 13.72,4.33 C14.0362708,3.8472906 14.4052013,3.40122011 14.82,2.9999953 L6.2,2.9999953 C4.7020201,2.99752718 3.3767645,3.97019184 2.93,5.4 L1.21,10.96 C1.00029408,11.6464517 0.846459098,12.3487419 0.75,13.06 C0.653517138,13.7622142 0.677188093,14.4757245 0.82,15.17 Z" id="Path"></path>
            <path d="M24.58,6.83 C24.4286603,6.15356447 24.1126413,5.52496146 23.66,5 C23.0617931,4.37055525 22.299935,3.92036639 21.46,3.7 C20.6442919,3.39808395 19.7585668,3.3390356 18.91,3.53 C18.2249892,3.70255071 17.5952009,4.04669731 17.08,4.53 C16.5626409,5.03894782 16.133461,5.63033755 15.81,6.28 C15.4825357,6.92192648 15.2115148,7.59111395 15,8.28 L12.94,14.85 C12.6408633,15.8394713 12.2174878,16.787026 11.68,17.67 C11.3693131,18.1841643 11.0001932,18.6606645 10.58,19.0900047 L19.2,19.0900047 C20.6979799,19.0924728 22.0232355,18.1198082 22.47,16.69 L24.19,11.13 C24.3997059,10.4435483 24.5535409,9.74125815 24.65,9.03 C24.7569992,8.29830013 24.7332984,7.55341767 24.58,6.83 Z" id="Path"></path>
            <path d="M111.66,4.94 C110.846278,4.91074138 110.036367,5.06452197 109.29,5.39 C108.717787,5.66419731 108.222888,6.07661304 107.85,6.59 C107.669128,6.84165578 107.518115,7.11347914 107.4,7.4 L107.4,7.4 L107.4,7.4 C107.4,7.54 107.3,7.69 107.26,7.83 L106.65,9.6 L106.65,9.6 L106.65,9.6 L105,14.3 C105,14.3 105,14.3 105,14.3 L104,17.43 L104,17.43 L104,17.43 L105.77,17.43 L106.57,15.09 L106.57,15.09 L106.65,14.87 C106.65,14.87 106.65,14.77 106.7,14.72 L109,8 L109,8 L109.18,7.66 C109.407247,7.28136581 109.731848,6.97057818 110.12,6.76 C110.60411,6.52095326 111.140557,6.40747405 111.68,6.43 C111.906372,6.41365108 112.133628,6.41365108 112.36,6.43 L112.36,5 C112.13,5 111.9,4.94 111.66,4.94 Z" id="Path"></path>
        </g>
    </g>
</svg>